G04*
G04 #@! TF.GenerationSoftware,Altium Limited,Altium Designer,21.0.8 (223)*
G04*
G04 Layer_Color=128*
%FSLAX44Y44*%
%MOMM*%
G71*
G04*
G04 #@! TF.SameCoordinates,C7DFD244-51E8-418D-9BDC-30C7F22D4A59*
G04*
G04*
G04 #@! TF.FilePolarity,Positive*
G04*
G01*
G75*
G04:AMPARAMS|DCode=20|XSize=1.4mm|YSize=0.9mm|CornerRadius=0mm|HoleSize=0mm|Usage=FLASHONLY|Rotation=135.000|XOffset=0mm|YOffset=0mm|HoleType=Round|Shape=Rectangle|*
%AMROTATEDRECTD20*
4,1,4,0.8132,-0.1768,0.1768,-0.8132,-0.8132,0.1768,-0.1768,0.8132,0.8132,-0.1768,0.0*
%
%ADD20ROTATEDRECTD20*%

%ADD21R,1.4000X0.9000*%
%ADD22R,0.9000X1.4000*%
%ADD23R,0.8500X1.3500*%
%ADD25R,2.0000X5.0000*%
%ADD67R,5.0000X6.0000*%
%ADD68R,1.3500X0.8500*%
%ADD69R,3.0000X2.6000*%
%ADD70R,1.0000X0.6000*%
%ADD71R,0.6000X1.0000*%
%ADD72R,1.6000X1.2500*%
%ADD73O,1.3000X0.3000*%
%ADD74O,0.3000X1.3000*%
%ADD75R,2.6000X3.0000*%
%ADD76R,1.1000X0.6000*%
%ADD77R,0.6000X1.0500*%
G04:AMPARAMS|DCode=78|XSize=0.3mm|YSize=1.4mm|CornerRadius=0mm|HoleSize=0mm|Usage=FLASHONLY|Rotation=45.000|XOffset=0mm|YOffset=0mm|HoleType=Round|Shape=Round|*
%AMOVALD78*
21,1,1.1000,0.3000,0.0000,0.0000,135.0*
1,1,0.3000,0.3889,-0.3889*
1,1,0.3000,-0.3889,0.3889*
%
%ADD78OVALD78*%

G04:AMPARAMS|DCode=79|XSize=0.3mm|YSize=1.4mm|CornerRadius=0mm|HoleSize=0mm|Usage=FLASHONLY|Rotation=315.000|XOffset=0mm|YOffset=0mm|HoleType=Round|Shape=Round|*
%AMOVALD79*
21,1,1.1000,0.3000,0.0000,0.0000,45.0*
1,1,0.3000,-0.3889,-0.3889*
1,1,0.3000,0.3889,0.3889*
%
%ADD79OVALD79*%

%ADD80R,1.3000X2.1500*%
%ADD81R,3.5000X2.1500*%
G04:AMPARAMS|DCode=82|XSize=2.2mm|YSize=1.4mm|CornerRadius=0.35mm|HoleSize=0mm|Usage=FLASHONLY|Rotation=90.000|XOffset=0mm|YOffset=0mm|HoleType=Round|Shape=RoundedRectangle|*
%AMROUNDEDRECTD82*
21,1,2.2000,0.7000,0,0,90.0*
21,1,1.5000,1.4000,0,0,90.0*
1,1,0.7000,0.3500,0.7500*
1,1,0.7000,0.3500,-0.7500*
1,1,0.7000,-0.3500,-0.7500*
1,1,0.7000,-0.3500,0.7500*
%
%ADD82ROUNDEDRECTD82*%
%ADD83R,1.5000X1.8000*%
D20*
X419675Y589175D02*
D03*
X404825Y574325D02*
D03*
D21*
X899500Y263250D02*
D03*
Y242250D02*
D03*
X952000Y596500D02*
D03*
X674250Y431000D02*
D03*
X651000Y431000D02*
D03*
X371621Y529000D02*
D03*
X296000Y444500D02*
D03*
X952000Y575500D02*
D03*
X674250Y452000D02*
D03*
X651000Y452000D02*
D03*
X296000Y465500D02*
D03*
X371621Y508000D02*
D03*
D22*
X903000Y289750D02*
D03*
X924000D02*
D03*
X726710Y578770D02*
D03*
X747710D02*
D03*
X822000Y426500D02*
D03*
X58980Y526270D02*
D03*
X801000Y426500D02*
D03*
X79980Y526270D02*
D03*
D23*
X675250Y803250D02*
D03*
X653250D02*
D03*
X80250Y549250D02*
D03*
X58250D02*
D03*
X58000Y570000D02*
D03*
X80000D02*
D03*
X902500Y307500D02*
D03*
X924500D02*
D03*
X963750Y288750D02*
D03*
X941750D02*
D03*
X747750Y656000D02*
D03*
X769750D02*
D03*
X747750Y672250D02*
D03*
X769750D02*
D03*
X769000Y483000D02*
D03*
X768750Y550750D02*
D03*
X746750Y550750D02*
D03*
X768750Y534250D02*
D03*
X746750D02*
D03*
X747000Y501500D02*
D03*
X769000Y501500D02*
D03*
X747000Y483000D02*
D03*
X747000Y517250D02*
D03*
X769000Y517250D02*
D03*
X779000Y444000D02*
D03*
X801000D02*
D03*
D25*
X474000Y972500D02*
D03*
X526000D02*
D03*
D67*
X84926Y187870D02*
D03*
X909926Y190370D02*
D03*
D68*
X671250Y591500D02*
D03*
Y613500D02*
D03*
X190750Y620500D02*
D03*
Y598500D02*
D03*
X118250Y699000D02*
D03*
Y721000D02*
D03*
X376250Y635750D02*
D03*
Y613750D02*
D03*
X699500Y630062D02*
D03*
Y652063D02*
D03*
X958000Y474000D02*
D03*
Y496000D02*
D03*
X962000Y533750D02*
D03*
Y555750D02*
D03*
X632000Y613500D02*
D03*
Y591500D02*
D03*
X651750Y613500D02*
D03*
Y591500D02*
D03*
D69*
X293520Y574613D02*
D03*
Y507613D02*
D03*
D70*
X143250Y759750D02*
D03*
X143250Y740750D02*
D03*
X119250Y750250D02*
D03*
X166500Y711000D02*
D03*
X142500Y720500D02*
D03*
Y701500D02*
D03*
X693250Y803250D02*
D03*
X717250Y812750D02*
D03*
X693250Y822250D02*
D03*
X355480Y616980D02*
D03*
X331480Y626480D02*
D03*
X355480Y635980D02*
D03*
D71*
X92250Y774750D02*
D03*
X82750Y750750D02*
D03*
X101750D02*
D03*
X155000Y650000D02*
D03*
X164500Y674000D02*
D03*
X145500D02*
D03*
D72*
X357750Y559500D02*
D03*
Y592000D02*
D03*
X762552Y837714D02*
D03*
Y805214D02*
D03*
X430000Y516250D02*
D03*
Y483750D02*
D03*
X543000Y483500D02*
D03*
Y516000D02*
D03*
X453500D02*
D03*
Y483500D02*
D03*
X498500D02*
D03*
Y516000D02*
D03*
X476500D02*
D03*
Y483500D02*
D03*
X520500Y483250D02*
D03*
Y515750D02*
D03*
D73*
X718250Y535000D02*
D03*
Y505000D02*
D03*
X631750Y510000D02*
D03*
Y545000D02*
D03*
Y540000D02*
D03*
Y535000D02*
D03*
Y530000D02*
D03*
Y525000D02*
D03*
Y520000D02*
D03*
Y515000D02*
D03*
Y505000D02*
D03*
Y500000D02*
D03*
Y495000D02*
D03*
Y490000D02*
D03*
X718250Y490000D02*
D03*
Y495000D02*
D03*
Y500000D02*
D03*
Y510000D02*
D03*
Y515000D02*
D03*
Y520000D02*
D03*
Y525000D02*
D03*
Y530000D02*
D03*
Y540000D02*
D03*
Y545000D02*
D03*
D74*
X702500Y560750D02*
D03*
X687500Y474250D02*
D03*
X672500D02*
D03*
X697500D02*
D03*
Y560750D02*
D03*
X692500D02*
D03*
X687500D02*
D03*
X682500Y560750D02*
D03*
X677500Y560750D02*
D03*
X672500Y560750D02*
D03*
X667500D02*
D03*
X662500D02*
D03*
X657500D02*
D03*
X652500D02*
D03*
X647500D02*
D03*
Y474250D02*
D03*
X652500D02*
D03*
X657500D02*
D03*
X662500D02*
D03*
X667500D02*
D03*
X677500D02*
D03*
X682500D02*
D03*
X692500D02*
D03*
X702500D02*
D03*
D75*
X727500Y617500D02*
D03*
X794500D02*
D03*
D76*
X813254Y662500D02*
D03*
X789062Y671898D02*
D03*
Y662500D02*
D03*
X789254Y653000D02*
D03*
X813254D02*
D03*
Y672000D02*
D03*
D77*
X934000Y242250D02*
D03*
X943500D02*
D03*
X924500D02*
D03*
Y268750D02*
D03*
X943500D02*
D03*
D78*
X482676Y693286D02*
D03*
X436714Y647324D02*
D03*
X527931Y577321D02*
D03*
X517324Y566714D02*
D03*
X433178Y643789D02*
D03*
X440249Y650860D02*
D03*
X443785Y654395D02*
D03*
X447321Y657931D02*
D03*
X450856Y661466D02*
D03*
X454392Y665002D02*
D03*
X457927Y668537D02*
D03*
X461463Y672073D02*
D03*
X464998Y675608D02*
D03*
X468534Y679144D02*
D03*
X472069Y682680D02*
D03*
X475605Y686215D02*
D03*
X479140Y689751D02*
D03*
X486212Y696821D02*
D03*
X566822Y616211D02*
D03*
X563286Y612676D02*
D03*
X559751Y609141D02*
D03*
X556215Y605605D02*
D03*
X552679Y602069D02*
D03*
X549144Y598534D02*
D03*
X545608Y594998D02*
D03*
X542073Y591463D02*
D03*
X538537Y587927D02*
D03*
X535002Y584392D02*
D03*
X531466Y580856D02*
D03*
X524395Y573785D02*
D03*
X520860Y570250D02*
D03*
X513788Y563178D02*
D03*
D79*
X563286Y647324D02*
D03*
X447321Y602069D02*
D03*
X486212Y563178D02*
D03*
X482676Y566714D02*
D03*
X479140Y570250D02*
D03*
X475605Y573785D02*
D03*
X472069Y577321D02*
D03*
X468534Y580856D02*
D03*
X464998Y584392D02*
D03*
X461463Y587927D02*
D03*
X457927Y591463D02*
D03*
X454392Y594998D02*
D03*
X450856Y598534D02*
D03*
X443785Y605605D02*
D03*
X440249Y609141D02*
D03*
X436714Y612676D02*
D03*
X433178Y616211D02*
D03*
X513788Y696821D02*
D03*
X517324Y693286D02*
D03*
X520860Y689751D02*
D03*
X524395Y686215D02*
D03*
X527931Y682680D02*
D03*
X531466Y679144D02*
D03*
X535002Y675608D02*
D03*
X538537Y672073D02*
D03*
X542073Y668537D02*
D03*
X545608Y665002D02*
D03*
X549144Y661466D02*
D03*
X552679Y657931D02*
D03*
X556215Y654395D02*
D03*
X559751Y650860D02*
D03*
X566822Y643789D02*
D03*
D80*
X348000Y465250D02*
D03*
X325000D02*
D03*
X371000D02*
D03*
D81*
X348000Y406750D02*
D03*
D82*
X578600Y447000D02*
D03*
X604000D02*
D03*
Y510000D02*
D03*
X578600D02*
D03*
D83*
X163125Y578500D02*
D03*
Y620500D02*
D03*
M02*
