G04*
G04 #@! TF.GenerationSoftware,Altium Limited,Altium Designer,21.0.8 (223)*
G04*
G04 Layer_Color=8388736*
%FSLAX44Y44*%
%MOMM*%
G71*
G04*
G04 #@! TF.SameCoordinates,C7DFD244-51E8-418D-9BDC-30C7F22D4A59*
G04*
G04*
G04 #@! TF.FilePolarity,Negative*
G04*
G01*
G75*
%ADD28R,1.3032X1.9032*%
G04:AMPARAMS|DCode=29|XSize=1.6032mm|YSize=1.1032mm|CornerRadius=0mm|HoleSize=0mm|Usage=FLASHONLY|Rotation=135.000|XOffset=0mm|YOffset=0mm|HoleType=Round|Shape=Rectangle|*
%AMROTATEDRECTD29*
4,1,4,0.9569,-0.1768,0.1768,-0.9569,-0.9569,0.1768,-0.1768,0.9569,0.9569,-0.1768,0.0*
%
%ADD29ROTATEDRECTD29*%

%ADD30R,1.6032X1.1032*%
%ADD31R,1.1032X1.6032*%
%ADD32R,1.0532X1.5532*%
%ADD33R,2.2032X1.7032*%
%ADD34R,2.2032X5.2032*%
%ADD35R,1.7032X1.2032*%
G04:AMPARAMS|DCode=36|XSize=2.1032mm|YSize=1.3032mm|CornerRadius=0.3766mm|HoleSize=0mm|Usage=FLASHONLY|Rotation=315.000|XOffset=0mm|YOffset=0mm|HoleType=Round|Shape=RoundedRectangle|*
%AMROUNDEDRECTD36*
21,1,2.1032,0.5500,0,0,315.0*
21,1,1.3500,1.3032,0,0,315.0*
1,1,0.7532,0.2828,-0.6718*
1,1,0.7532,-0.6718,0.2828*
1,1,0.7532,-0.2828,0.6718*
1,1,0.7532,0.6718,-0.2828*
%
%ADD36ROUNDEDRECTD36*%
%ADD37R,2.2032X2.2032*%
%ADD38C,1.8032*%
%ADD39C,1.9032*%
G04:AMPARAMS|DCode=40|XSize=3.2032mm|YSize=4.7032mm|CornerRadius=1.3016mm|HoleSize=0mm|Usage=FLASHONLY|Rotation=90.000|XOffset=0mm|YOffset=0mm|HoleType=Round|Shape=RoundedRectangle|*
%AMROUNDEDRECTD40*
21,1,3.2032,2.1000,0,0,90.0*
21,1,0.6000,4.7032,0,0,90.0*
1,1,2.6032,1.0500,0.3000*
1,1,2.6032,1.0500,-0.3000*
1,1,2.6032,-1.0500,-0.3000*
1,1,2.6032,-1.0500,0.3000*
%
%ADD40ROUNDEDRECTD40*%
%ADD41C,2.2032*%
%ADD42C,1.6032*%
%ADD43C,2.0032*%
%ADD44C,2.3032*%
%ADD45R,1.6032X1.6032*%
%ADD46C,2.7032*%
%ADD47C,1.7032*%
%ADD48C,4.7032*%
%ADD49C,5.2032*%
D28*
X870658Y240571D02*
D03*
Y324571D02*
D03*
X825658Y324571D02*
D03*
Y240571D02*
D03*
X744092Y43425D02*
D03*
Y127425D02*
D03*
X699092Y127425D02*
D03*
Y43425D02*
D03*
X57500Y882500D02*
D03*
Y798500D02*
D03*
X102500Y798500D02*
D03*
Y882500D02*
D03*
X390052Y43425D02*
D03*
Y127425D02*
D03*
X345052Y127425D02*
D03*
Y43425D02*
D03*
X640000Y285000D02*
D03*
Y369000D02*
D03*
X595000Y369000D02*
D03*
Y285000D02*
D03*
X115000Y285000D02*
D03*
Y369000D02*
D03*
X70000Y369000D02*
D03*
Y285000D02*
D03*
X145000D02*
D03*
Y369000D02*
D03*
X190000Y369000D02*
D03*
Y285000D02*
D03*
X265000D02*
D03*
Y369000D02*
D03*
X220000Y369000D02*
D03*
Y285000D02*
D03*
X295000Y285000D02*
D03*
Y369000D02*
D03*
X340000Y369000D02*
D03*
Y285000D02*
D03*
X415000Y285000D02*
D03*
Y369000D02*
D03*
X370000Y369000D02*
D03*
Y285000D02*
D03*
X445000D02*
D03*
Y369000D02*
D03*
X490000Y369000D02*
D03*
Y285000D02*
D03*
X565000D02*
D03*
Y369000D02*
D03*
X520000Y369000D02*
D03*
Y285000D02*
D03*
X715000Y285000D02*
D03*
Y369000D02*
D03*
X670000Y369000D02*
D03*
Y285000D02*
D03*
X745250Y285000D02*
D03*
Y369000D02*
D03*
X790250Y369000D02*
D03*
Y285000D02*
D03*
X216645Y163167D02*
D03*
Y247167D02*
D03*
X171645Y247167D02*
D03*
Y163167D02*
D03*
X246645D02*
D03*
Y247167D02*
D03*
X291645Y247167D02*
D03*
Y163167D02*
D03*
X366645D02*
D03*
Y247167D02*
D03*
X321645Y247167D02*
D03*
Y163167D02*
D03*
X396645D02*
D03*
Y247167D02*
D03*
X441645Y247167D02*
D03*
Y163167D02*
D03*
X516645D02*
D03*
Y247167D02*
D03*
X471645Y247167D02*
D03*
Y163167D02*
D03*
X546645D02*
D03*
Y247167D02*
D03*
X591645Y247167D02*
D03*
Y163167D02*
D03*
X666645D02*
D03*
Y247167D02*
D03*
X621645Y247167D02*
D03*
Y163167D02*
D03*
X697500Y162500D02*
D03*
Y246500D02*
D03*
X742500Y246500D02*
D03*
Y162500D02*
D03*
X165052Y43425D02*
D03*
Y127425D02*
D03*
X120052Y127425D02*
D03*
Y43425D02*
D03*
X195052D02*
D03*
Y127425D02*
D03*
X240052Y127425D02*
D03*
Y43425D02*
D03*
X315052Y43425D02*
D03*
Y127425D02*
D03*
X270052Y127425D02*
D03*
Y43425D02*
D03*
X465052Y43425D02*
D03*
Y127425D02*
D03*
X420052Y127425D02*
D03*
Y43425D02*
D03*
X495052D02*
D03*
Y127425D02*
D03*
X540052Y127425D02*
D03*
Y43425D02*
D03*
X614728Y43425D02*
D03*
Y127425D02*
D03*
X569728Y127425D02*
D03*
Y43425D02*
D03*
X950000Y191500D02*
D03*
Y275500D02*
D03*
X905000Y275500D02*
D03*
Y191500D02*
D03*
X870000Y125000D02*
D03*
Y209000D02*
D03*
X825000Y209000D02*
D03*
Y125000D02*
D03*
X141750Y163000D02*
D03*
Y247000D02*
D03*
X96750Y247000D02*
D03*
Y163000D02*
D03*
D29*
X568425Y638925D02*
D03*
X553575Y624075D02*
D03*
X508576Y649575D02*
D03*
X487825Y670575D02*
D03*
X523425Y664424D02*
D03*
X502675Y685425D02*
D03*
D30*
X656500Y546500D02*
D03*
Y567500D02*
D03*
X674000Y546750D02*
D03*
X674000Y567750D02*
D03*
X249750Y529250D02*
D03*
X67185Y452799D02*
D03*
X249750Y508250D02*
D03*
X67185Y473799D02*
D03*
D31*
X659000Y512750D02*
D03*
X638000Y512750D02*
D03*
X659000Y529000D02*
D03*
X638000D02*
D03*
X744500Y467000D02*
D03*
X744750Y500750D02*
D03*
X723750Y500750D02*
D03*
X723500Y467000D02*
D03*
X723750Y518750D02*
D03*
X744750D02*
D03*
D32*
X926750Y353250D02*
D03*
X904750D02*
D03*
X745250Y550000D02*
D03*
X723250D02*
D03*
X723250Y565500D02*
D03*
X745250D02*
D03*
X723250Y484500D02*
D03*
X745250D02*
D03*
X723250Y534500D02*
D03*
X745250D02*
D03*
D33*
X582032Y902302D02*
D03*
Y882302D02*
D03*
Y862302D02*
D03*
Y842302D02*
D03*
Y822302D02*
D03*
Y802302D02*
D03*
X417032Y782302D02*
D03*
Y802302D02*
D03*
Y822302D02*
D03*
Y842302D02*
D03*
Y862302D02*
D03*
Y882302D02*
D03*
Y922302D02*
D03*
Y902302D02*
D03*
X582032Y782302D02*
D03*
Y922302D02*
D03*
D34*
X473999Y972500D02*
D03*
X526000D02*
D03*
X500000D02*
D03*
D35*
X143715Y440963D02*
D03*
Y472963D02*
D03*
X94715Y440963D02*
D03*
Y472963D02*
D03*
D36*
X476500Y610750D02*
D03*
X492763Y627014D02*
D03*
X518926Y600851D02*
D03*
X502663Y584587D02*
D03*
D37*
X87900Y601900D02*
D03*
Y626900D02*
D03*
X87500Y652500D02*
D03*
Y703300D02*
D03*
X62900Y601900D02*
D03*
Y626900D02*
D03*
X62500Y652500D02*
D03*
Y703300D02*
D03*
X87500Y677900D02*
D03*
X62500D02*
D03*
D38*
X332750Y573500D02*
D03*
X939197Y532442D02*
D03*
Y557842D02*
D03*
Y456750D02*
D03*
Y431350D02*
D03*
D39*
X862474Y644700D02*
D03*
X882474D02*
D03*
X861874Y669700D02*
D03*
X882474D02*
D03*
D40*
X909575Y597000D02*
D03*
X910574Y718000D02*
D03*
D41*
X221000Y635883D02*
D03*
Y661283D02*
D03*
Y508884D02*
D03*
Y534283D02*
D03*
Y558750D02*
D03*
Y585084D02*
D03*
Y610484D02*
D03*
Y483484D02*
D03*
X381000Y863600D02*
D03*
X330200D02*
D03*
X304800D02*
D03*
X279400D02*
D03*
X254000D02*
D03*
X228600D02*
D03*
X203200D02*
D03*
X355600D02*
D03*
D42*
X826700Y500946D02*
D03*
Y475546D02*
D03*
Y526346D02*
D03*
X801300Y539046D02*
D03*
Y513646D02*
D03*
Y488246D02*
D03*
Y462846D02*
D03*
D43*
X609600Y939800D02*
D03*
Y914400D02*
D03*
Y863600D02*
D03*
Y889000D02*
D03*
X381000Y914400D02*
D03*
Y939800D02*
D03*
Y889000D02*
D03*
X279400D02*
D03*
X254000D02*
D03*
X228600D02*
D03*
X203200D02*
D03*
X304800D02*
D03*
X330200D02*
D03*
X355600D02*
D03*
X304800Y914400D02*
D03*
X330200D02*
D03*
X355600D02*
D03*
X304800Y939800D02*
D03*
X330200D02*
D03*
X355600D02*
D03*
X304800Y965200D02*
D03*
X330200D02*
D03*
X355600D02*
D03*
X278013Y966200D02*
D03*
X252614D02*
D03*
X227213D02*
D03*
X201814D02*
D03*
X278013Y940800D02*
D03*
X227213D02*
D03*
X201814D02*
D03*
X177800Y965200D02*
D03*
X152400D02*
D03*
X127000D02*
D03*
X101600D02*
D03*
X177800Y939800D02*
D03*
X152400D02*
D03*
X127000D02*
D03*
X125613Y915400D02*
D03*
X151013D02*
D03*
X176413D02*
D03*
X254000Y939800D02*
D03*
X279400Y914400D02*
D03*
X254000D02*
D03*
X228600D02*
D03*
X203200D02*
D03*
X787400D02*
D03*
X762000D02*
D03*
X736600D02*
D03*
X711200D02*
D03*
X736600Y939800D02*
D03*
X814186Y915400D02*
D03*
X839586D02*
D03*
X864986D02*
D03*
X863600Y939800D02*
D03*
X838200D02*
D03*
X812800D02*
D03*
X889000Y965200D02*
D03*
X863600D02*
D03*
X838200D02*
D03*
X812800D02*
D03*
X788786Y940800D02*
D03*
X763387D02*
D03*
X712587D02*
D03*
X788786Y966200D02*
D03*
X763387D02*
D03*
X737987D02*
D03*
X712587D02*
D03*
X635000Y965200D02*
D03*
X660400D02*
D03*
X685800D02*
D03*
X635000Y939800D02*
D03*
X660400D02*
D03*
X685800D02*
D03*
X635000Y914400D02*
D03*
X660400D02*
D03*
X685800D02*
D03*
X635000Y889000D02*
D03*
X660400D02*
D03*
X685800D02*
D03*
Y863600D02*
D03*
X660400D02*
D03*
X635000D02*
D03*
D44*
X859695Y573346D02*
D03*
Y415846D02*
D03*
D45*
X826700Y450146D02*
D03*
D46*
X835000Y785000D02*
D03*
X735000Y785250D02*
D03*
X910000D02*
D03*
Y860250D02*
D03*
X735000D02*
D03*
X963375Y786626D02*
D03*
Y821625D02*
D03*
Y856625D02*
D03*
D47*
X333500Y522500D02*
D03*
X332500Y592500D02*
D03*
D48*
X229041Y423126D02*
D03*
Y723126D02*
D03*
X739041D02*
D03*
Y423126D02*
D03*
D49*
X75000Y75000D02*
D03*
X925000D02*
D03*
Y925000D02*
D03*
X75000D02*
D03*
M02*
