M48
;Layer_Color=9474304
;FILE_FORMAT=4:4
METRIC,LZ
;TYPE=PLATED
T1F00S00C0.4000
T2F00S00C0.8000
T3F00S00C0.9000
T4F00S00C1.0000
T6F00S00C1.0200
T7F00S00C1.1000
T8F00S00C1.4000
T9F00S00C1.6000
T10F00S00C2.2000
T11F00S00C3.2000
;TYPE=NON_PLATED
T12F00S00C3.2500
%
T01
X00071653Y00119204
X00165Y00098772
X0020425
X0024
X00315026
X0036175
X0039
X00442669
X00465
X00495
X005175
X0054
X0061431
X0065125
X007
X00745
X007645
X00870903Y00054204
X00931654Y00133954
X00941875Y00326
X009465Y003545
X00921Y003385
X0093127Y0039127
X00937Y00496
X00891Y004965
X00786403Y00464413
X00757999Y00501999
Y00517999
X00698Y00504
X0068075Y0051375
X00661249Y0049925
X006625Y004135
X007045Y0041425
X00715Y00346783
X00766528
X0079
X00846271Y00363271
X00891Y0035475
X0087Y00185
X008875Y0014
X008075
X00769486Y00139925
X007425Y00218783
X00713778
X006675
X005925
X00568028
X00541581Y00269733
X00565Y00346783
X00615778
X0064
X00617Y0041375
X0054Y0042575
X00548Y00435
X0055575Y0044325
X005651Y00453
X00592Y004795
X0050975Y0044525
X00510451Y0042325
X0049Y00346783
X00465278
X0037
X0034
X003175
X00265
X0019
X00180945Y00439655
X00348195Y00435905
X00397314Y00435679
X0043Y0045125
X0042075Y004625
X0041325Y004735
X003975Y00218783
X003675
X00343278
X00292286
X002175
X0018275
X00142031
X004425
X00471654
X005175
X000705Y002475
X00115Y00346783
X001205Y00467
X0009275Y0054875
X0009225Y00732
X000575Y00822279
X00142721Y00781924
X00143125Y00769494
X001825Y0068525
X001875Y006625
X0019775Y00655
X0025575Y006785
X0026575Y0068625
X0028075Y0072775
X0025975Y0062825
X00147062Y00620844
X001825Y0053475
X00384091Y00564581
X004505Y0056725
X00475787Y00551337
X004985Y0054325
X0049175Y006
X0047725Y0061
X00457453Y00618714
X0048275Y006555
X005028Y00664406
X00511741Y00631805
X0047573Y00711392
X00398084Y0070825
X00388457Y0069525
X00388064Y00683814
X0038525Y00664
X0039225Y0064525
X0041075Y00657554
Y0067625
X0035575Y00806
X00506Y0080725
X005125Y007725
X00499576Y00908131
X005425Y007725
X00534Y007385
X00542Y0072575
X00555Y00725
X00567786Y00725536
X00593Y00725
X00607535Y00724236
X006275Y0068825
X0063078Y00640403
X00618952Y00640515
X0064325Y006395
X0065475Y00629
X00683995Y00649925
X00703Y0061475
X0068925Y005975
X00615Y00602
X006085Y00612931
X00605115Y00582527
X00593156Y00587782
X00581876Y00592188
X0058175Y0055975
X00593169
X00605161
X0064Y005525
X00674Y0053
X00734539Y00558041
X00784738Y00539051
X00778678Y00528658
X0076Y00613
X00832256Y00613056
X0080127Y0072127
X0068425Y007215
X0058075Y0067675
X00580015Y00648515
X0054075Y00613999
X00518926Y00600851
X00541375Y00555
X00531064Y00539179
X00920942Y00543942
X00940314Y00656429
T02
X003335Y005225
X0033275Y005735
X003325Y005925
T03
X008013Y00462846
Y00488246
Y00513646
X008267Y00500946
Y00475546
Y00450146
Y00526346
X008013Y00539046
X00862474Y006447
X00882474
Y006697
X00861874
T04
X00221Y00483484
Y00508884
X000879Y006019
X000629
Y006269
X000879
X000875Y006525
X000625
Y006779
X000875
Y007033
X000625
X00221Y00661283
Y00635883
Y00610484
Y00585084
Y0055875
Y00534283
X002286Y008636
X00254
X002794
X003048
Y00889
X002794
X00254
X002286
X002032
Y008636
Y009144
X002286
X00254
X002794
X003048
X003302
Y00889
X003556
X00381
Y009144
X003556
X003556Y008636
X003302
X00381
X00176413Y009154
X00151013
X00125613
X006096Y009144
Y00889
Y008636
X00635
Y00889
Y009144
X006604
X006858
X007112
X007366
X00762
X007874
X00814186Y009154
X00839586
X00864986
X006858Y00889
X006604
Y008636
X006858
Y009398
Y009652
X006604
X00635
Y009398
X006096
X006604
X00712587Y009408
X007366Y009398
X00763387Y009408
X00788786
X008128Y009398
X008382
X008636
Y009652
X00889
X008382
X008128
X00788786Y009662
X00763387
X00737987
X00712587
X00381Y009398
X003556
X003302
X003048
Y009652
X003302
X003556
X00278013Y009662
X00252614
X00227213
X00201814
X001778Y009652
X001524
X00127
Y009398
X001524
X001778
X00201814Y009408
X00227213
X00254Y009398
X00278013Y009408
X001016Y009652
T06
X00939197Y0043135
Y0045675
Y00532442
Y00557842
T07
X00963375Y00786626
Y00821625
Y00856625
T08
X00735Y0078525
Y0086025
X0091
Y0078525
X00835Y00785
T09
X00859695Y00415846
Y00573346
T10
X00739041Y00423126
X00229041
Y00723126
X00739041
T11
X00075Y00075
X00925
Y00925
X00075
T12
X008902Y00437446
Y00551746
M30
