G04*
G04 #@! TF.GenerationSoftware,Altium Limited,Altium Designer,21.0.8 (223)*
G04*
G04 Layer_Physical_Order=1*
G04 Layer_Color=255*
%FSLAX44Y44*%
%MOMM*%
G71*
G04*
G04 #@! TF.SameCoordinates,C7DFD244-51E8-418D-9BDC-30C7F22D4A59*
G04*
G04*
G04 #@! TF.FilePolarity,Positive*
G04*
G01*
G75*
%ADD10C,0.2540*%
%ADD13C,0.3000*%
%ADD16C,0.5000*%
%ADD19R,1.1000X1.7000*%
G04:AMPARAMS|DCode=20|XSize=1.4mm|YSize=0.9mm|CornerRadius=0mm|HoleSize=0mm|Usage=FLASHONLY|Rotation=135.000|XOffset=0mm|YOffset=0mm|HoleType=Round|Shape=Rectangle|*
%AMROTATEDRECTD20*
4,1,4,0.8132,-0.1768,0.1768,-0.8132,-0.8132,0.1768,-0.1768,0.8132,0.8132,-0.1768,0.0*
%
%ADD20ROTATEDRECTD20*%

%ADD21R,1.4000X0.9000*%
%ADD22R,0.9000X1.4000*%
%ADD23R,0.8500X1.3500*%
%ADD24R,2.0000X1.5000*%
%ADD25R,2.0000X5.0000*%
%ADD26R,1.5000X1.0000*%
G04:AMPARAMS|DCode=27|XSize=1.9mm|YSize=1.1mm|CornerRadius=0.275mm|HoleSize=0mm|Usage=FLASHONLY|Rotation=315.000|XOffset=0mm|YOffset=0mm|HoleType=Round|Shape=RoundedRectangle|*
%AMROUNDEDRECTD27*
21,1,1.9000,0.5500,0,0,315.0*
21,1,1.3500,1.1000,0,0,315.0*
1,1,0.5500,0.2828,-0.6718*
1,1,0.5500,-0.6718,0.2828*
1,1,0.5500,-0.2828,0.6718*
1,1,0.5500,0.6718,-0.2828*
%
%ADD27ROUNDEDRECTD27*%
%ADD50C,0.6000*%
%ADD51C,0.4000*%
%ADD52C,0.8000*%
%ADD53R,2.0000X2.0000*%
%ADD54C,1.6000*%
%ADD55C,1.7000*%
G04:AMPARAMS|DCode=56|XSize=3mm|YSize=4.5mm|CornerRadius=1.2mm|HoleSize=0mm|Usage=FLASHONLY|Rotation=90.000|XOffset=0mm|YOffset=0mm|HoleType=Round|Shape=RoundedRectangle|*
%AMROUNDEDRECTD56*
21,1,3.0000,2.1000,0,0,90.0*
21,1,0.6000,4.5000,0,0,90.0*
1,1,2.4000,1.0500,0.3000*
1,1,2.4000,1.0500,-0.3000*
1,1,2.4000,-1.0500,-0.3000*
1,1,2.4000,-1.0500,0.3000*
%
%ADD56ROUNDEDRECTD56*%
%ADD57C,2.0000*%
%ADD58C,1.4000*%
%ADD59C,1.8000*%
%ADD60C,2.1000*%
%ADD61R,1.4000X1.4000*%
%ADD62C,2.5000*%
%ADD63C,1.5000*%
%ADD64C,4.5000*%
%ADD65C,5.0000*%
%ADD66C,0.9000*%
G36*
X95019Y976223D02*
X95945Y974887D01*
X95941Y974723D01*
X93755Y973045D01*
X91992Y970748D01*
X90883Y968072D01*
X90505Y965200D01*
X90883Y962328D01*
X91992Y959652D01*
X93755Y957355D01*
X96053Y955592D01*
X98728Y954483D01*
X101600Y954105D01*
X104472Y954483D01*
X107148Y955592D01*
X109445Y957355D01*
X111208Y959652D01*
X112317Y962328D01*
X112695Y965200D01*
X112317Y968072D01*
X111208Y970748D01*
X109445Y973045D01*
X107259Y974723D01*
X107255Y974887D01*
X108181Y976223D01*
X120419D01*
X121345Y974887D01*
X121341Y974723D01*
X119155Y973045D01*
X117392Y970748D01*
X116283Y968072D01*
X115905Y965200D01*
X116283Y962328D01*
X117392Y959652D01*
X119155Y957355D01*
X121453Y955592D01*
X124128Y954483D01*
X127000Y954105D01*
X129872Y954483D01*
X132548Y955592D01*
X134845Y957355D01*
X136608Y959652D01*
X137717Y962328D01*
X138095Y965200D01*
X137717Y968072D01*
X136608Y970748D01*
X134845Y973045D01*
X132659Y974723D01*
X132655Y974887D01*
X133581Y976223D01*
X145819D01*
X146745Y974887D01*
X146741Y974723D01*
X144555Y973045D01*
X142792Y970748D01*
X141683Y968072D01*
X141305Y965200D01*
X141683Y962328D01*
X142792Y959652D01*
X144555Y957355D01*
X146853Y955592D01*
X149528Y954483D01*
X152400Y954105D01*
X155272Y954483D01*
X157948Y955592D01*
X160245Y957355D01*
X162008Y959652D01*
X163117Y962328D01*
X163495Y965200D01*
X163117Y968072D01*
X162008Y970748D01*
X160245Y973045D01*
X158059Y974723D01*
X158055Y974887D01*
X158981Y976223D01*
X171219D01*
X172145Y974887D01*
X172141Y974723D01*
X169955Y973045D01*
X168192Y970748D01*
X167083Y968072D01*
X166705Y965200D01*
X167083Y962328D01*
X168192Y959652D01*
X169955Y957355D01*
X172253Y955592D01*
X174928Y954483D01*
X177800Y954105D01*
X180672Y954483D01*
X183347Y955592D01*
X185645Y957355D01*
X187409Y959652D01*
X188517Y962328D01*
X188895Y965200D01*
X188517Y968072D01*
X187409Y970748D01*
X185645Y973045D01*
X183459Y974723D01*
X183455Y974887D01*
X184381Y976223D01*
X194342D01*
X194851Y974723D01*
X193968Y974045D01*
X192205Y971747D01*
X191097Y969072D01*
X190719Y966200D01*
X191097Y963328D01*
X192205Y960652D01*
X193968Y958355D01*
X196266Y956591D01*
X198942Y955483D01*
X201814Y955105D01*
X204685Y955483D01*
X207361Y956591D01*
X209659Y958355D01*
X211422Y960652D01*
X212530Y963328D01*
X212908Y966200D01*
X212530Y969072D01*
X211422Y971747D01*
X209659Y974045D01*
X208776Y974723D01*
X209285Y976223D01*
X219742D01*
X220251Y974723D01*
X219368Y974045D01*
X217605Y971747D01*
X216497Y969072D01*
X216119Y966200D01*
X216497Y963328D01*
X217605Y960652D01*
X219368Y958355D01*
X221666Y956591D01*
X224342Y955483D01*
X227213Y955105D01*
X230085Y955483D01*
X232761Y956591D01*
X235059Y958355D01*
X236822Y960652D01*
X237930Y963328D01*
X238308Y966200D01*
X237930Y969072D01*
X236822Y971747D01*
X235059Y974045D01*
X234176Y974723D01*
X234685Y976223D01*
X245142D01*
X245651Y974723D01*
X244768Y974045D01*
X243005Y971747D01*
X241897Y969072D01*
X241519Y966200D01*
X241897Y963328D01*
X243005Y960652D01*
X244768Y958355D01*
X247066Y956591D01*
X249742Y955483D01*
X252614Y955105D01*
X255485Y955483D01*
X258161Y956591D01*
X260459Y958355D01*
X262222Y960652D01*
X263330Y963328D01*
X263708Y966200D01*
X263330Y969072D01*
X262222Y971747D01*
X260459Y974045D01*
X259576Y974723D01*
X260085Y976223D01*
X270542D01*
X271051Y974723D01*
X270168Y974045D01*
X268405Y971747D01*
X267297Y969072D01*
X266919Y966200D01*
X267297Y963328D01*
X268405Y960652D01*
X270168Y958355D01*
X272466Y956591D01*
X275142Y955483D01*
X278013Y955105D01*
X280885Y955483D01*
X283561Y956591D01*
X285859Y958355D01*
X287622Y960652D01*
X288730Y963328D01*
X289108Y966200D01*
X288730Y969072D01*
X287622Y971747D01*
X285859Y974045D01*
X284976Y974723D01*
X285485Y976223D01*
X298219D01*
X299145Y974887D01*
X299141Y974723D01*
X296955Y973045D01*
X295191Y970748D01*
X294083Y968072D01*
X293705Y965200D01*
X294083Y962328D01*
X295191Y959652D01*
X296955Y957355D01*
X299252Y955592D01*
X301928Y954483D01*
X304800Y954105D01*
X307672Y954483D01*
X310347Y955592D01*
X312645Y957355D01*
X314408Y959652D01*
X315517Y962328D01*
X315895Y965200D01*
X315517Y968072D01*
X314408Y970748D01*
X312645Y973045D01*
X310459Y974723D01*
X310455Y974887D01*
X311381Y976223D01*
X323619D01*
X324544Y974887D01*
X324541Y974723D01*
X322355Y973045D01*
X320592Y970748D01*
X319483Y968072D01*
X319105Y965200D01*
X319483Y962328D01*
X320592Y959652D01*
X322355Y957355D01*
X324652Y955592D01*
X327328Y954483D01*
X330200Y954105D01*
X333072Y954483D01*
X335747Y955592D01*
X338045Y957355D01*
X339809Y959652D01*
X340917Y962328D01*
X341295Y965200D01*
X340917Y968072D01*
X339809Y970748D01*
X338045Y973045D01*
X335859Y974723D01*
X335855Y974887D01*
X336781Y976223D01*
X349019D01*
X349944Y974887D01*
X349941Y974723D01*
X347755Y973045D01*
X345992Y970748D01*
X344883Y968072D01*
X344505Y965200D01*
X344883Y962328D01*
X345992Y959652D01*
X347755Y957355D01*
X350052Y955592D01*
X352728Y954483D01*
X355600Y954105D01*
X358472Y954483D01*
X361147Y955592D01*
X363445Y957355D01*
X365209Y959652D01*
X366317Y962328D01*
X366695Y965200D01*
X366317Y968072D01*
X365209Y970748D01*
X363445Y973045D01*
X361259Y974723D01*
X361255Y974887D01*
X362181Y976223D01*
X461460D01*
Y973770D01*
X474000D01*
Y972500D01*
X475270D01*
Y944960D01*
X486539D01*
Y945405D01*
X488000Y945500D01*
Y945500D01*
X495412D01*
Y940151D01*
X482151Y926890D01*
X429032D01*
Y931802D01*
X405032D01*
Y913618D01*
X404492Y912342D01*
X404492Y911526D01*
Y903572D01*
X417032D01*
X429572D01*
Y911526D01*
X429572Y912342D01*
X429032Y913618D01*
Y917714D01*
X484052D01*
X485808Y918063D01*
X487296Y919058D01*
X503244Y935006D01*
X504239Y936494D01*
X504588Y938250D01*
Y945500D01*
X512000D01*
Y945500D01*
X513460Y945403D01*
Y944960D01*
X524730D01*
Y972500D01*
X526000D01*
Y973770D01*
X538540D01*
Y976223D01*
X628419D01*
X629344Y974887D01*
X629341Y974723D01*
X627155Y973045D01*
X625392Y970748D01*
X624283Y968072D01*
X623905Y965200D01*
X624283Y962328D01*
X625392Y959652D01*
X627155Y957355D01*
X629453Y955592D01*
X632128Y954483D01*
X635000Y954105D01*
X637872Y954483D01*
X640547Y955592D01*
X642845Y957355D01*
X644609Y959652D01*
X645717Y962328D01*
X646095Y965200D01*
X645717Y968072D01*
X644609Y970748D01*
X642845Y973045D01*
X640659Y974723D01*
X640656Y974887D01*
X641581Y976223D01*
X653819D01*
X654744Y974887D01*
X654741Y974723D01*
X652555Y973045D01*
X650791Y970748D01*
X649683Y968072D01*
X649305Y965200D01*
X649683Y962328D01*
X650791Y959652D01*
X652555Y957355D01*
X654853Y955592D01*
X657528Y954483D01*
X660400Y954105D01*
X663272Y954483D01*
X665947Y955592D01*
X668245Y957355D01*
X670008Y959652D01*
X671117Y962328D01*
X671495Y965200D01*
X671117Y968072D01*
X670008Y970748D01*
X668245Y973045D01*
X666059Y974723D01*
X666056Y974887D01*
X666981Y976223D01*
X679219D01*
X680145Y974887D01*
X680141Y974723D01*
X677955Y973045D01*
X676191Y970748D01*
X675083Y968072D01*
X674705Y965200D01*
X675083Y962328D01*
X676191Y959652D01*
X677955Y957355D01*
X680253Y955592D01*
X682928Y954483D01*
X685800Y954105D01*
X688672Y954483D01*
X691348Y955592D01*
X693645Y957355D01*
X695408Y959652D01*
X696517Y962328D01*
X696895Y965200D01*
X696517Y968072D01*
X695408Y970748D01*
X693645Y973045D01*
X691459Y974723D01*
X691456Y974887D01*
X692381Y976223D01*
X705115D01*
X705624Y974723D01*
X704741Y974045D01*
X702978Y971747D01*
X701870Y969072D01*
X701492Y966200D01*
X701870Y963328D01*
X702978Y960652D01*
X704741Y958355D01*
X707039Y956591D01*
X709715Y955483D01*
X712587Y955105D01*
X715458Y955483D01*
X718134Y956591D01*
X720432Y958355D01*
X722195Y960652D01*
X723303Y963328D01*
X723681Y966200D01*
X723303Y969072D01*
X722195Y971747D01*
X720432Y974045D01*
X719549Y974723D01*
X720058Y976223D01*
X730515D01*
X731024Y974723D01*
X730141Y974045D01*
X728378Y971747D01*
X727270Y969072D01*
X726892Y966200D01*
X727270Y963328D01*
X728378Y960652D01*
X730141Y958355D01*
X732439Y956591D01*
X735115Y955483D01*
X737987Y955105D01*
X740858Y955483D01*
X743534Y956591D01*
X745832Y958355D01*
X747595Y960652D01*
X748703Y963328D01*
X749081Y966200D01*
X748703Y969072D01*
X747595Y971747D01*
X745832Y974045D01*
X744949Y974723D01*
X745458Y976223D01*
X755915D01*
X756424Y974723D01*
X755541Y974045D01*
X753778Y971747D01*
X752670Y969072D01*
X752292Y966200D01*
X752670Y963328D01*
X753778Y960652D01*
X755541Y958355D01*
X757839Y956591D01*
X760515Y955483D01*
X763387Y955105D01*
X766258Y955483D01*
X768934Y956591D01*
X771232Y958355D01*
X772995Y960652D01*
X774103Y963328D01*
X774481Y966200D01*
X774103Y969072D01*
X772995Y971747D01*
X771232Y974045D01*
X770349Y974723D01*
X770858Y976223D01*
X781315Y976223D01*
X781824Y974723D01*
X780941Y974045D01*
X779178Y971747D01*
X778070Y969072D01*
X777692Y966200D01*
X778070Y963328D01*
X779178Y960652D01*
X780941Y958355D01*
X783239Y956591D01*
X785915Y955483D01*
X788786Y955105D01*
X791658Y955483D01*
X794334Y956591D01*
X796632Y958355D01*
X798395Y960652D01*
X799503Y963328D01*
X799881Y966200D01*
X799503Y969072D01*
X798395Y971747D01*
X796632Y974045D01*
X795749Y974723D01*
X796258Y976223D01*
X806218D01*
X807144Y974887D01*
X807141Y974723D01*
X804955Y973045D01*
X803192Y970748D01*
X802083Y968072D01*
X801705Y965200D01*
X802083Y962328D01*
X803192Y959652D01*
X804955Y957355D01*
X807253Y955592D01*
X809928Y954483D01*
X812800Y954105D01*
X815672Y954483D01*
X818347Y955592D01*
X820645Y957355D01*
X822409Y959652D01*
X823517Y962328D01*
X823895Y965200D01*
X823517Y968072D01*
X822409Y970748D01*
X820645Y973045D01*
X818459Y974723D01*
X818456Y974887D01*
X819381Y976223D01*
X831618D01*
X832544Y974887D01*
X832541Y974723D01*
X830355Y973045D01*
X828592Y970748D01*
X827483Y968072D01*
X827105Y965200D01*
X827483Y962328D01*
X828592Y959652D01*
X830355Y957355D01*
X832653Y955592D01*
X835328Y954483D01*
X838200Y954105D01*
X841072Y954483D01*
X843747Y955592D01*
X846045Y957355D01*
X847809Y959652D01*
X848917Y962328D01*
X849295Y965200D01*
X848917Y968072D01*
X847809Y970748D01*
X846045Y973045D01*
X843859Y974723D01*
X843856Y974887D01*
X844781Y976223D01*
X857019D01*
X857944Y974887D01*
X857941Y974723D01*
X855755Y973045D01*
X853991Y970748D01*
X852883Y968072D01*
X852505Y965200D01*
X852883Y962328D01*
X853991Y959652D01*
X855755Y957355D01*
X858053Y955592D01*
X860728Y954483D01*
X863600Y954105D01*
X866472Y954483D01*
X869147Y955592D01*
X871445Y957355D01*
X873208Y959652D01*
X874317Y962328D01*
X874695Y965200D01*
X874317Y968072D01*
X873208Y970748D01*
X871445Y973045D01*
X869259Y974723D01*
X869256Y974887D01*
X870182Y976223D01*
X882418D01*
X883344Y974887D01*
X883341Y974723D01*
X881155Y973045D01*
X879391Y970748D01*
X878283Y968072D01*
X877905Y965200D01*
X878283Y962328D01*
X879391Y959652D01*
X881155Y957355D01*
X883453Y955592D01*
X886128Y954483D01*
X889000Y954105D01*
X891872Y954483D01*
X894548Y955592D01*
X896845Y957355D01*
X898608Y959652D01*
X899717Y962328D01*
X900095Y965200D01*
X899717Y968072D01*
X898608Y970748D01*
X896845Y973045D01*
X894659Y974723D01*
X894656Y974887D01*
X895582Y976223D01*
X917679D01*
X921453Y976223D01*
X928936Y975237D01*
X936227Y973284D01*
X943200Y970395D01*
X949737Y966621D01*
X955725Y962027D01*
X961062Y956689D01*
X965657Y950701D01*
X969431Y944164D01*
X972320Y937191D01*
X974273Y929900D01*
X975258Y922417D01*
X975258Y918643D01*
X975258Y918643D01*
X975258Y918643D01*
Y888464D01*
X791160D01*
X791160Y756107D01*
X975258D01*
Y667073D01*
X973758Y666451D01*
X949605Y690605D01*
X947951Y691710D01*
X946000Y692098D01*
X879174D01*
X877224Y691710D01*
X875570Y690605D01*
X864813Y679848D01*
X864615Y679930D01*
X861874Y680290D01*
X859133Y679930D01*
X856579Y678872D01*
X854386Y677188D01*
X852703Y674995D01*
X851645Y672441D01*
X851284Y669700D01*
X851645Y666959D01*
X852703Y664405D01*
X854386Y662211D01*
X856579Y660528D01*
X859133Y659470D01*
X861874Y659109D01*
X864615Y659470D01*
X867170Y660528D01*
X869363Y662211D01*
X871046Y664405D01*
X871132Y664612D01*
X872632D01*
X872831Y664132D01*
X874600Y661826D01*
X876907Y660056D01*
X879592Y658944D01*
X881204Y658732D01*
Y669700D01*
X882474D01*
Y670970D01*
X893442D01*
X893230Y672582D01*
X892118Y675267D01*
X890348Y677574D01*
X888042Y679343D01*
X885356Y680456D01*
X885623Y681902D01*
X943888D01*
X966402Y659388D01*
Y358550D01*
X940186Y332334D01*
X940178Y332333D01*
X938597Y331678D01*
X937239Y330636D01*
X936197Y329278D01*
X935542Y327697D01*
X935319Y326000D01*
X935542Y324303D01*
X936197Y322722D01*
X937239Y321364D01*
X938597Y320322D01*
X940178Y319667D01*
X941875Y319444D01*
X943572Y319667D01*
X945153Y320322D01*
X946511Y321364D01*
X947553Y322722D01*
X948208Y324303D01*
X948431Y326000D01*
X948412Y326141D01*
X973758Y351487D01*
X975258Y350866D01*
X975258Y98165D01*
X975258Y94615D01*
X974563Y87549D01*
X973178Y80586D01*
X971117Y73792D01*
X968400Y67232D01*
X965053Y60971D01*
X961108Y55067D01*
X956604Y49579D01*
X951584Y44558D01*
X946095Y40054D01*
X940192Y36110D01*
X933930Y32763D01*
X927371Y30046D01*
X920576Y27985D01*
X913613Y26600D01*
X906547Y25904D01*
X902997Y25904D01*
X902997Y25904D01*
X902997Y25904D01*
X797911D01*
X797337Y27290D01*
X827523Y57477D01*
X828297Y58634D01*
X828569Y60000D01*
Y112988D01*
X829000Y114431D01*
X829345Y114500D01*
X832500D01*
Y117655D01*
X832569Y118000D01*
X832500Y118345D01*
Y135500D01*
X828569D01*
Y198500D01*
X832500D01*
Y219500D01*
X829226D01*
Y221181D01*
X901431D01*
Y202000D01*
X897500D01*
Y181000D01*
X912500D01*
Y202000D01*
X908568D01*
Y224750D01*
Y265000D01*
X912500D01*
Y286000D01*
X897500D01*
Y265000D01*
X901431D01*
Y228319D01*
X829226D01*
Y230071D01*
X833158D01*
Y251071D01*
X829226D01*
Y314071D01*
X833158D01*
Y335071D01*
X818158D01*
Y314071D01*
X822089D01*
Y251071D01*
X818158D01*
Y230071D01*
X822089D01*
Y219500D01*
X817500D01*
Y198500D01*
X821431D01*
Y135500D01*
X817500D01*
Y114500D01*
X821431D01*
Y61478D01*
X788522Y28569D01*
X702319D01*
Y32925D01*
X706592D01*
Y53925D01*
X703569D01*
Y93318D01*
X704636Y94137D01*
X705678Y95494D01*
X706333Y97076D01*
X706556Y98772D01*
X706333Y100469D01*
X705678Y102051D01*
X704636Y103408D01*
X703569Y104227D01*
Y116925D01*
X706592D01*
Y135847D01*
X736592D01*
Y116925D01*
X741431D01*
Y104227D01*
X740364Y103408D01*
X739322Y102051D01*
X738667Y100469D01*
X738444Y98772D01*
X738667Y97076D01*
X739322Y95494D01*
X740364Y94137D01*
X741431Y93318D01*
Y53925D01*
X736592D01*
Y32925D01*
X751592D01*
Y53925D01*
X748569D01*
Y93318D01*
X749636Y94137D01*
X750678Y95494D01*
X751333Y97076D01*
X751556Y98772D01*
X751333Y100469D01*
X750678Y102051D01*
X749636Y103408D01*
X748569Y104227D01*
Y116925D01*
X751592D01*
Y135847D01*
X764422D01*
X764850Y135289D01*
X766208Y134248D01*
X767789Y133593D01*
X769486Y133369D01*
X771182Y133593D01*
X772764Y134248D01*
X774121Y135289D01*
X774969Y136394D01*
X802074D01*
X802864Y135364D01*
X804222Y134322D01*
X805803Y133667D01*
X807500Y133444D01*
X809197Y133667D01*
X810778Y134322D01*
X812136Y135364D01*
X813178Y136722D01*
X813833Y138303D01*
X814056Y140000D01*
X813833Y141697D01*
X813178Y143278D01*
X812136Y144636D01*
X810778Y145678D01*
X809197Y146333D01*
X807500Y146556D01*
X805803Y146333D01*
X804222Y145678D01*
X802864Y144636D01*
X802017Y143531D01*
X774912D01*
X774121Y144561D01*
X772764Y145603D01*
X771182Y146258D01*
X769486Y146481D01*
X767789Y146258D01*
X766208Y145603D01*
X764850Y144561D01*
X764422Y144003D01*
X689731D01*
X689157Y145389D01*
X695768Y152000D01*
X705000D01*
Y173000D01*
X701578D01*
Y236000D01*
X705000D01*
Y257000D01*
X690000D01*
Y236000D01*
X693422D01*
Y173000D01*
X690000D01*
Y157768D01*
X681726Y149494D01*
X625213D01*
Y152667D01*
X629145D01*
Y173667D01*
X625723D01*
Y236667D01*
X629145D01*
Y257667D01*
X614145D01*
Y236667D01*
X617566D01*
Y173667D01*
X614145D01*
Y152667D01*
X618076D01*
Y149494D01*
X578257D01*
X577881Y149569D01*
X550213D01*
Y152667D01*
X554145D01*
Y173667D01*
X551044D01*
Y214707D01*
X551054Y214722D01*
X551365Y216283D01*
X551333Y216444D01*
X551365Y216604D01*
X551054Y218165D01*
X551044Y218180D01*
Y219465D01*
X550980Y219786D01*
X551044Y220107D01*
Y236667D01*
X554145D01*
Y257667D01*
X539145D01*
Y236667D01*
X542887D01*
Y220107D01*
X542951Y219786D01*
X542887Y219465D01*
Y216604D01*
X542887Y216604D01*
X542887Y216604D01*
Y216283D01*
X542887Y216283D01*
X542887Y216283D01*
Y173667D01*
X539145D01*
Y152667D01*
X543076D01*
Y149569D01*
X476069D01*
Y152667D01*
X479145D01*
Y173667D01*
X475728D01*
Y213716D01*
X476290Y214147D01*
X477332Y215505D01*
X477987Y217086D01*
X478210Y218783D01*
X477987Y220480D01*
X477332Y222061D01*
X476290Y223419D01*
X475732Y223847D01*
Y236667D01*
X479145D01*
Y257667D01*
X464145D01*
Y236667D01*
X467576D01*
Y223847D01*
X467018Y223419D01*
X465976Y222061D01*
X465321Y220480D01*
X465098Y218783D01*
X465321Y217086D01*
X465976Y215505D01*
X467018Y214147D01*
X467571Y213723D01*
Y173667D01*
X464145D01*
Y152667D01*
X468931D01*
Y149569D01*
X393053D01*
X392479Y150954D01*
X394191Y152667D01*
X404145D01*
Y173667D01*
X401069D01*
Y213328D01*
X402136Y214147D01*
X403178Y215505D01*
X403833Y217086D01*
X404056Y218783D01*
X403833Y220480D01*
X403178Y222061D01*
X402136Y223419D01*
X401069Y224238D01*
Y236667D01*
X404145D01*
Y257667D01*
X389145D01*
Y236667D01*
X393931D01*
Y224238D01*
X392864Y223419D01*
X391822Y222061D01*
X391167Y220480D01*
X390944Y218783D01*
X391167Y217086D01*
X391822Y215505D01*
X392864Y214147D01*
X393931Y213328D01*
Y173667D01*
X389145D01*
Y157714D01*
X386166Y154735D01*
X374145D01*
Y173667D01*
X371069D01*
Y213328D01*
X372136Y214147D01*
X373178Y215505D01*
X373833Y217086D01*
X374056Y218783D01*
X373833Y220480D01*
X373178Y222061D01*
X372136Y223419D01*
X371069Y224238D01*
Y236667D01*
X374145D01*
Y257667D01*
X359145D01*
Y236667D01*
X363931D01*
Y224238D01*
X362864Y223419D01*
X361822Y222061D01*
X361167Y220480D01*
X360944Y218783D01*
X361167Y217086D01*
X361822Y215505D01*
X362864Y214147D01*
X363931Y213328D01*
Y173667D01*
X359145D01*
Y154735D01*
X329145D01*
Y173667D01*
X325213D01*
Y236667D01*
X329145D01*
Y257667D01*
X314145D01*
Y236667D01*
X318076D01*
Y173667D01*
X314145D01*
Y154735D01*
X299145D01*
Y173667D01*
X296044D01*
Y213473D01*
X296922Y214147D01*
X297964Y215505D01*
X298619Y217086D01*
X298842Y218783D01*
X298619Y220480D01*
X297964Y222061D01*
X296922Y223419D01*
X296044Y224093D01*
Y236667D01*
X299145D01*
Y257667D01*
X284145D01*
Y236667D01*
X287887D01*
Y223601D01*
X287650Y223419D01*
X286608Y222061D01*
X285954Y220480D01*
X285730Y218783D01*
X285954Y217086D01*
X286608Y215505D01*
X287650Y214147D01*
X287887Y213966D01*
Y173667D01*
X284145D01*
Y154735D01*
X254145D01*
Y173667D01*
X250213D01*
Y236667D01*
X254145D01*
Y257667D01*
X239145D01*
Y236667D01*
X243076D01*
Y173667D01*
X239145D01*
Y154735D01*
X224145D01*
Y173667D01*
X221151D01*
Y213391D01*
X222136Y214147D01*
X223178Y215505D01*
X223833Y217086D01*
X224056Y218783D01*
X223833Y220480D01*
X223178Y222061D01*
X222136Y223419D01*
X221151Y224175D01*
Y236667D01*
X224145D01*
Y257667D01*
X209145D01*
Y236667D01*
X212994D01*
Y223519D01*
X212864Y223419D01*
X211822Y222061D01*
X211167Y220480D01*
X210944Y218783D01*
X211167Y217086D01*
X211822Y215505D01*
X212864Y214147D01*
X212994Y214048D01*
Y173667D01*
X209145D01*
Y154735D01*
X179144D01*
Y173667D01*
X175213D01*
Y236667D01*
X179144D01*
Y257667D01*
X164145D01*
Y236667D01*
X168076D01*
Y173667D01*
X164145D01*
Y154494D01*
X149250D01*
Y173500D01*
X145969D01*
Y213612D01*
X146667Y214147D01*
X147709Y215505D01*
X148364Y217086D01*
X148587Y218783D01*
X148364Y220480D01*
X147709Y222061D01*
X146667Y223419D01*
X145969Y223955D01*
Y236500D01*
X149250D01*
Y257500D01*
X134250D01*
Y236500D01*
X137812D01*
Y223739D01*
X137395Y223419D01*
X136354Y222061D01*
X135699Y220480D01*
X135475Y218783D01*
X135699Y217086D01*
X136354Y215505D01*
X137395Y214147D01*
X137812Y213827D01*
Y173500D01*
X134250D01*
Y154494D01*
X107303D01*
X104250Y157547D01*
Y173500D01*
X100319D01*
Y236500D01*
X104250D01*
Y257500D01*
X89250D01*
Y236500D01*
X93181D01*
Y173500D01*
X89250D01*
Y152500D01*
X99203D01*
X103301Y148402D01*
X104459Y147628D01*
X105825Y147357D01*
X129977D01*
X130550Y145971D01*
X122505Y137925D01*
X112552D01*
Y116925D01*
X115973D01*
Y53925D01*
X112552D01*
Y32925D01*
X127552D01*
Y53925D01*
X124130D01*
Y116925D01*
X127552D01*
Y132879D01*
X137030Y142357D01*
X303988D01*
X304364Y142431D01*
X395051D01*
X395625Y141046D01*
X392505Y137925D01*
X382552D01*
Y116925D01*
X385973D01*
Y103876D01*
X385364Y103408D01*
X384322Y102051D01*
X383667Y100469D01*
X383444Y98772D01*
X383667Y97076D01*
X384322Y95494D01*
X385364Y94137D01*
X385973Y93669D01*
Y53925D01*
X382552D01*
Y32925D01*
X397552D01*
Y53925D01*
X394130D01*
Y93749D01*
X394636Y94137D01*
X395678Y95494D01*
X396333Y97076D01*
X396556Y98772D01*
X396333Y100469D01*
X395678Y102051D01*
X394636Y103408D01*
X394130Y103796D01*
Y116925D01*
X397552D01*
Y132879D01*
X402104Y137431D01*
X412552D01*
Y116925D01*
X416483D01*
Y53925D01*
X412552D01*
Y32925D01*
X416483D01*
Y28569D01*
X348620D01*
Y32925D01*
X352552D01*
Y53925D01*
X348620D01*
Y116925D01*
X352552D01*
Y137925D01*
X337552D01*
Y116925D01*
X341483D01*
Y53925D01*
X337552D01*
Y32925D01*
X341483D01*
Y28569D01*
X273569D01*
Y32925D01*
X277552D01*
Y53925D01*
X273620D01*
Y116925D01*
X277552D01*
Y137925D01*
X262552D01*
Y116925D01*
X266483D01*
Y53925D01*
X262552D01*
Y32925D01*
X266431D01*
Y28569D01*
X214955D01*
X202552Y40972D01*
Y53925D01*
X198620D01*
Y116925D01*
X202552D01*
Y137925D01*
X187552D01*
Y116925D01*
X191483D01*
Y53925D01*
X187552D01*
Y32925D01*
X200505D01*
X206140Y27290D01*
X205566Y25904D01*
X87997D01*
X84915Y25904D01*
X78780Y26508D01*
X72734Y27711D01*
X66836Y29500D01*
X61140Y31859D01*
X55704Y34765D01*
X50579Y38190D01*
X45813Y42100D01*
X41455Y46459D01*
X37544Y51224D01*
X34119Y56350D01*
X31214Y61786D01*
X28855Y67481D01*
X27065Y73380D01*
X25863Y79426D01*
X25258Y85561D01*
X25258Y88643D01*
Y918165D01*
X25258Y921971D01*
X26252Y929516D01*
X28221Y936867D01*
X31134Y943898D01*
X34939Y950489D01*
X39572Y956527D01*
X44954Y961909D01*
X50992Y966542D01*
X57583Y970347D01*
X64614Y973259D01*
X71965Y975229D01*
X79510Y976223D01*
X83316Y976223D01*
X83316Y976223D01*
X95019D01*
D02*
G37*
G36*
X562228Y116925D02*
X566160D01*
Y53925D01*
X562228D01*
Y32925D01*
X575181D01*
X580817Y27290D01*
X580243Y25904D01*
X487911Y25904D01*
X487337Y27290D01*
X492972Y32925D01*
X502552D01*
Y53925D01*
X498569D01*
Y93318D01*
X499636Y94137D01*
X500678Y95494D01*
X501333Y97076D01*
X501556Y98772D01*
X501333Y100469D01*
X500678Y102051D01*
X499636Y103408D01*
X498620Y104188D01*
Y116925D01*
X502552D01*
Y137431D01*
X532552D01*
Y116925D01*
X536431D01*
Y104227D01*
X535364Y103408D01*
X534322Y102051D01*
X533667Y100469D01*
X533444Y98772D01*
X533667Y97076D01*
X534322Y95494D01*
X535364Y94137D01*
X536431Y93318D01*
Y53925D01*
X532552D01*
Y32925D01*
X547552D01*
Y53925D01*
X543569D01*
Y93318D01*
X544636Y94137D01*
X545678Y95494D01*
X546333Y97076D01*
X546556Y98772D01*
X546333Y100469D01*
X545678Y102051D01*
X544636Y103408D01*
X543569Y104227D01*
Y116925D01*
X547552D01*
Y137431D01*
X562228D01*
Y116925D01*
D02*
G37*
G36*
X487552Y116925D02*
X491483D01*
Y104267D01*
X490364Y103408D01*
X489322Y102051D01*
X488667Y100469D01*
X488444Y98772D01*
X488667Y97076D01*
X489322Y95494D01*
X490364Y94137D01*
X491431Y93318D01*
Y53925D01*
X487552D01*
Y39770D01*
X487483Y39425D01*
Y37530D01*
X478522Y28569D01*
X423620D01*
Y32925D01*
X427552D01*
Y53925D01*
X423620D01*
Y116925D01*
X427552D01*
Y137431D01*
X457552D01*
Y116925D01*
X461431D01*
Y104227D01*
X460364Y103408D01*
X459322Y102051D01*
X458667Y100469D01*
X458444Y98772D01*
X458667Y97076D01*
X459322Y95494D01*
X460364Y94137D01*
X461431Y93318D01*
Y53925D01*
X457552D01*
Y32925D01*
X472552D01*
Y53925D01*
X468569D01*
Y93318D01*
X469636Y94137D01*
X470678Y95494D01*
X471333Y97076D01*
X471556Y98772D01*
X471333Y100469D01*
X470678Y102051D01*
X469636Y103408D01*
X468569Y104227D01*
Y116925D01*
X472552D01*
Y137431D01*
X487552D01*
Y116925D01*
D02*
G37*
G36*
X691592D02*
X696431D01*
Y104227D01*
X695364Y103408D01*
X694322Y102051D01*
X693667Y100469D01*
X693444Y98772D01*
X693667Y97076D01*
X694322Y95494D01*
X695364Y94137D01*
X696431Y93318D01*
Y53925D01*
X691592D01*
Y32925D01*
X695181D01*
Y28569D01*
X589632D01*
X577228Y40972D01*
Y53925D01*
X573297D01*
Y116925D01*
X577228D01*
Y135847D01*
X607228D01*
Y116925D01*
X610441D01*
Y103996D01*
X609674Y103408D01*
X608633Y102051D01*
X607978Y100469D01*
X607754Y98772D01*
X607978Y97076D01*
X608633Y95494D01*
X609674Y94137D01*
X610441Y93549D01*
Y53925D01*
X607228D01*
Y32925D01*
X622228D01*
Y53925D01*
X618598D01*
Y93869D01*
X618946Y94137D01*
X619988Y95494D01*
X620643Y97076D01*
X620866Y98772D01*
X620643Y100469D01*
X619988Y102051D01*
X618946Y103408D01*
X618598Y103676D01*
Y116925D01*
X622228D01*
Y135847D01*
X691592D01*
Y116925D01*
D02*
G37*
%LPC*%
G36*
X538540Y971230D02*
X527270D01*
Y944960D01*
X538540D01*
Y971230D01*
D02*
G37*
G36*
X472730D02*
X461460D01*
Y944960D01*
X472730D01*
Y971230D01*
D02*
G37*
G36*
X610870Y951272D02*
Y941070D01*
X621072D01*
X620843Y942812D01*
X619680Y945620D01*
X617830Y948030D01*
X615420Y949880D01*
X612612Y951043D01*
X610870Y951272D01*
D02*
G37*
G36*
X382270D02*
Y941070D01*
X392472D01*
X392243Y942812D01*
X391080Y945620D01*
X389230Y948030D01*
X386820Y949880D01*
X384012Y951043D01*
X382270Y951272D01*
D02*
G37*
G36*
X608330D02*
X606587Y951043D01*
X603780Y949880D01*
X601370Y948030D01*
X599520Y945620D01*
X598357Y942812D01*
X598128Y941070D01*
X608330D01*
Y951272D01*
D02*
G37*
G36*
X379730D02*
X377988Y951043D01*
X375180Y949880D01*
X372770Y948030D01*
X370920Y945620D01*
X369757Y942812D01*
X369528Y941070D01*
X379730D01*
Y951272D01*
D02*
G37*
G36*
X788786Y951895D02*
X785915Y951517D01*
X783239Y950408D01*
X780941Y948645D01*
X779178Y946347D01*
X778070Y943671D01*
X777692Y940800D01*
X778070Y937928D01*
X779178Y935253D01*
X780941Y932955D01*
X783239Y931191D01*
X785915Y930083D01*
X788786Y929705D01*
X791658Y930083D01*
X794334Y931191D01*
X796632Y932955D01*
X798395Y935253D01*
X799503Y937928D01*
X799881Y940800D01*
X799503Y943671D01*
X798395Y946347D01*
X796632Y948645D01*
X794334Y950408D01*
X791658Y951517D01*
X788786Y951895D01*
D02*
G37*
G36*
X763387D02*
X760515Y951517D01*
X757839Y950408D01*
X755541Y948645D01*
X753778Y946347D01*
X752670Y943671D01*
X752292Y940800D01*
X752670Y937928D01*
X753778Y935253D01*
X755541Y932955D01*
X757839Y931191D01*
X760515Y930083D01*
X763387Y929705D01*
X766258Y930083D01*
X768934Y931191D01*
X771232Y932955D01*
X772995Y935253D01*
X774103Y937928D01*
X774481Y940800D01*
X774103Y943671D01*
X772995Y946347D01*
X771232Y948645D01*
X768934Y950408D01*
X766258Y951517D01*
X763387Y951895D01*
D02*
G37*
G36*
X712587D02*
X709715Y951517D01*
X707039Y950408D01*
X704741Y948645D01*
X702978Y946347D01*
X701870Y943671D01*
X701492Y940800D01*
X701870Y937928D01*
X702978Y935253D01*
X704741Y932955D01*
X707039Y931191D01*
X709715Y930083D01*
X712587Y929705D01*
X715458Y930083D01*
X718134Y931191D01*
X720432Y932955D01*
X722195Y935253D01*
X723303Y937928D01*
X723681Y940800D01*
X723303Y943671D01*
X722195Y946347D01*
X720432Y948645D01*
X718134Y950408D01*
X715458Y951517D01*
X712587Y951895D01*
D02*
G37*
G36*
X278013D02*
X275142Y951517D01*
X272466Y950408D01*
X270168Y948645D01*
X268405Y946347D01*
X267297Y943671D01*
X266919Y940800D01*
X267297Y937928D01*
X268405Y935253D01*
X270168Y932955D01*
X272466Y931191D01*
X275142Y930083D01*
X278013Y929705D01*
X280885Y930083D01*
X283561Y931191D01*
X285859Y932955D01*
X287622Y935253D01*
X288730Y937928D01*
X289108Y940800D01*
X288730Y943671D01*
X287622Y946347D01*
X285859Y948645D01*
X283561Y950408D01*
X280885Y951517D01*
X278013Y951895D01*
D02*
G37*
G36*
X227213D02*
X224342Y951517D01*
X221666Y950408D01*
X219368Y948645D01*
X217605Y946347D01*
X216497Y943671D01*
X216119Y940800D01*
X216497Y937928D01*
X217605Y935253D01*
X219368Y932955D01*
X221666Y931191D01*
X224342Y930083D01*
X227213Y929705D01*
X230085Y930083D01*
X232761Y931191D01*
X235059Y932955D01*
X236822Y935253D01*
X237930Y937928D01*
X238308Y940800D01*
X237930Y943671D01*
X236822Y946347D01*
X235059Y948645D01*
X232761Y950408D01*
X230085Y951517D01*
X227213Y951895D01*
D02*
G37*
G36*
X201814D02*
X198942Y951517D01*
X196266Y950408D01*
X193968Y948645D01*
X192205Y946347D01*
X191097Y943671D01*
X190719Y940800D01*
X191097Y937928D01*
X192205Y935253D01*
X193968Y932955D01*
X196266Y931191D01*
X198942Y930083D01*
X201814Y929705D01*
X204685Y930083D01*
X207361Y931191D01*
X209659Y932955D01*
X211422Y935253D01*
X212530Y937928D01*
X212908Y940800D01*
X212530Y943671D01*
X211422Y946347D01*
X209659Y948645D01*
X207361Y950408D01*
X204685Y951517D01*
X201814Y951895D01*
D02*
G37*
G36*
X863600Y950895D02*
X860728Y950517D01*
X858053Y949408D01*
X855755Y947645D01*
X853991Y945348D01*
X852883Y942672D01*
X852505Y939800D01*
X852883Y936928D01*
X853991Y934252D01*
X855755Y931955D01*
X858053Y930191D01*
X860728Y929083D01*
X863600Y928705D01*
X866472Y929083D01*
X869147Y930191D01*
X871445Y931955D01*
X873208Y934252D01*
X874317Y936928D01*
X874695Y939800D01*
X874317Y942672D01*
X873208Y945348D01*
X871445Y947645D01*
X869147Y949408D01*
X866472Y950517D01*
X863600Y950895D01*
D02*
G37*
G36*
X838200D02*
X835328Y950517D01*
X832653Y949408D01*
X830355Y947645D01*
X828592Y945348D01*
X827483Y942672D01*
X827105Y939800D01*
X827483Y936928D01*
X828592Y934252D01*
X830355Y931955D01*
X832653Y930191D01*
X835328Y929083D01*
X838200Y928705D01*
X841072Y929083D01*
X843747Y930191D01*
X846045Y931955D01*
X847809Y934252D01*
X848917Y936928D01*
X849295Y939800D01*
X848917Y942672D01*
X847809Y945348D01*
X846045Y947645D01*
X843747Y949408D01*
X841072Y950517D01*
X838200Y950895D01*
D02*
G37*
G36*
X812800D02*
X809928Y950517D01*
X807253Y949408D01*
X804955Y947645D01*
X803192Y945348D01*
X802083Y942672D01*
X801705Y939800D01*
X802083Y936928D01*
X803192Y934252D01*
X804955Y931955D01*
X807253Y930191D01*
X809928Y929083D01*
X812800Y928705D01*
X815672Y929083D01*
X818347Y930191D01*
X820645Y931955D01*
X822409Y934252D01*
X823517Y936928D01*
X823895Y939800D01*
X823517Y942672D01*
X822409Y945348D01*
X820645Y947645D01*
X818347Y949408D01*
X815672Y950517D01*
X812800Y950895D01*
D02*
G37*
G36*
X736600D02*
X733728Y950517D01*
X731052Y949408D01*
X728755Y947645D01*
X726992Y945348D01*
X725883Y942672D01*
X725505Y939800D01*
X725883Y936928D01*
X726992Y934252D01*
X728755Y931955D01*
X731052Y930191D01*
X733728Y929083D01*
X736600Y928705D01*
X739472Y929083D01*
X742148Y930191D01*
X744445Y931955D01*
X746208Y934252D01*
X747317Y936928D01*
X747695Y939800D01*
X747317Y942672D01*
X746208Y945348D01*
X744445Y947645D01*
X742148Y949408D01*
X739472Y950517D01*
X736600Y950895D01*
D02*
G37*
G36*
X685800D02*
X682928Y950517D01*
X680253Y949408D01*
X677955Y947645D01*
X676191Y945348D01*
X675083Y942672D01*
X674705Y939800D01*
X675083Y936928D01*
X676191Y934252D01*
X677955Y931955D01*
X680253Y930191D01*
X682928Y929083D01*
X685800Y928705D01*
X688672Y929083D01*
X691348Y930191D01*
X693645Y931955D01*
X695408Y934252D01*
X696517Y936928D01*
X696895Y939800D01*
X696517Y942672D01*
X695408Y945348D01*
X693645Y947645D01*
X691348Y949408D01*
X688672Y950517D01*
X685800Y950895D01*
D02*
G37*
G36*
X660400D02*
X657528Y950517D01*
X654853Y949408D01*
X652555Y947645D01*
X650791Y945348D01*
X649683Y942672D01*
X649305Y939800D01*
X649683Y936928D01*
X650791Y934252D01*
X652555Y931955D01*
X654853Y930191D01*
X657528Y929083D01*
X660400Y928705D01*
X663272Y929083D01*
X665947Y930191D01*
X668245Y931955D01*
X670008Y934252D01*
X671117Y936928D01*
X671495Y939800D01*
X671117Y942672D01*
X670008Y945348D01*
X668245Y947645D01*
X665947Y949408D01*
X663272Y950517D01*
X660400Y950895D01*
D02*
G37*
G36*
X635000D02*
X632128Y950517D01*
X629453Y949408D01*
X627155Y947645D01*
X625392Y945348D01*
X624283Y942672D01*
X623905Y939800D01*
X624283Y936928D01*
X625392Y934252D01*
X627155Y931955D01*
X629453Y930191D01*
X632128Y929083D01*
X635000Y928705D01*
X637872Y929083D01*
X640547Y930191D01*
X642845Y931955D01*
X644609Y934252D01*
X645717Y936928D01*
X646095Y939800D01*
X645717Y942672D01*
X644609Y945348D01*
X642845Y947645D01*
X640547Y949408D01*
X637872Y950517D01*
X635000Y950895D01*
D02*
G37*
G36*
X355600D02*
X352728Y950517D01*
X350052Y949408D01*
X347755Y947645D01*
X345992Y945348D01*
X344883Y942672D01*
X344505Y939800D01*
X344883Y936928D01*
X345992Y934252D01*
X347755Y931955D01*
X350052Y930191D01*
X352728Y929083D01*
X355600Y928705D01*
X358472Y929083D01*
X361147Y930191D01*
X363445Y931955D01*
X365209Y934252D01*
X366317Y936928D01*
X366695Y939800D01*
X366317Y942672D01*
X365209Y945348D01*
X363445Y947645D01*
X361147Y949408D01*
X358472Y950517D01*
X355600Y950895D01*
D02*
G37*
G36*
X330200D02*
X327328Y950517D01*
X324652Y949408D01*
X322355Y947645D01*
X320592Y945348D01*
X319483Y942672D01*
X319105Y939800D01*
X319483Y936928D01*
X320592Y934252D01*
X322355Y931955D01*
X324652Y930191D01*
X327328Y929083D01*
X330200Y928705D01*
X333072Y929083D01*
X335747Y930191D01*
X338045Y931955D01*
X339809Y934252D01*
X340917Y936928D01*
X341295Y939800D01*
X340917Y942672D01*
X339809Y945348D01*
X338045Y947645D01*
X335747Y949408D01*
X333072Y950517D01*
X330200Y950895D01*
D02*
G37*
G36*
X304800D02*
X301928Y950517D01*
X299252Y949408D01*
X296955Y947645D01*
X295191Y945348D01*
X294083Y942672D01*
X293705Y939800D01*
X294083Y936928D01*
X295191Y934252D01*
X296955Y931955D01*
X299252Y930191D01*
X301928Y929083D01*
X304800Y928705D01*
X307672Y929083D01*
X310347Y930191D01*
X312645Y931955D01*
X314408Y934252D01*
X315517Y936928D01*
X315895Y939800D01*
X315517Y942672D01*
X314408Y945348D01*
X312645Y947645D01*
X310347Y949408D01*
X307672Y950517D01*
X304800Y950895D01*
D02*
G37*
G36*
X254000D02*
X251128Y950517D01*
X248452Y949408D01*
X246155Y947645D01*
X244391Y945348D01*
X243283Y942672D01*
X242905Y939800D01*
X243283Y936928D01*
X244391Y934252D01*
X246155Y931955D01*
X248452Y930191D01*
X251128Y929083D01*
X254000Y928705D01*
X256872Y929083D01*
X259548Y930191D01*
X261845Y931955D01*
X263608Y934252D01*
X264717Y936928D01*
X265095Y939800D01*
X264717Y942672D01*
X263608Y945348D01*
X261845Y947645D01*
X259548Y949408D01*
X256872Y950517D01*
X254000Y950895D01*
D02*
G37*
G36*
X177800D02*
X174928Y950517D01*
X172253Y949408D01*
X169955Y947645D01*
X168192Y945348D01*
X167083Y942672D01*
X166705Y939800D01*
X167083Y936928D01*
X168192Y934252D01*
X169955Y931955D01*
X172253Y930191D01*
X174928Y929083D01*
X177800Y928705D01*
X180672Y929083D01*
X183347Y930191D01*
X185645Y931955D01*
X187409Y934252D01*
X188517Y936928D01*
X188895Y939800D01*
X188517Y942672D01*
X187409Y945348D01*
X185645Y947645D01*
X183347Y949408D01*
X180672Y950517D01*
X177800Y950895D01*
D02*
G37*
G36*
X152400D02*
X149528Y950517D01*
X146853Y949408D01*
X144555Y947645D01*
X142792Y945348D01*
X141683Y942672D01*
X141305Y939800D01*
X141683Y936928D01*
X142792Y934252D01*
X144555Y931955D01*
X146853Y930191D01*
X149528Y929083D01*
X152400Y928705D01*
X155272Y929083D01*
X157948Y930191D01*
X160245Y931955D01*
X162008Y934252D01*
X163117Y936928D01*
X163495Y939800D01*
X163117Y942672D01*
X162008Y945348D01*
X160245Y947645D01*
X157948Y949408D01*
X155272Y950517D01*
X152400Y950895D01*
D02*
G37*
G36*
X127000D02*
X124128Y950517D01*
X121453Y949408D01*
X119155Y947645D01*
X117392Y945348D01*
X116283Y942672D01*
X115905Y939800D01*
X116283Y936928D01*
X117392Y934252D01*
X119155Y931955D01*
X121453Y930191D01*
X124128Y929083D01*
X127000Y928705D01*
X129872Y929083D01*
X132548Y930191D01*
X134845Y931955D01*
X136608Y934252D01*
X137717Y936928D01*
X138095Y939800D01*
X137717Y942672D01*
X136608Y945348D01*
X134845Y947645D01*
X132548Y949408D01*
X129872Y950517D01*
X127000Y950895D01*
D02*
G37*
G36*
X594572Y932342D02*
X583302D01*
Y923572D01*
X594572D01*
Y932342D01*
D02*
G37*
G36*
X580762D02*
X569492D01*
Y923572D01*
X580762D01*
Y932342D01*
D02*
G37*
G36*
X621072Y938530D02*
X609600D01*
X598128D01*
X598357Y936787D01*
X599520Y933980D01*
X601370Y931570D01*
X603780Y929720D01*
X604502Y929421D01*
Y924779D01*
X603780Y924480D01*
X601370Y922630D01*
X599520Y920220D01*
X598357Y917412D01*
X598128Y915670D01*
X609600D01*
X621072D01*
X620843Y917412D01*
X619680Y920220D01*
X617830Y922630D01*
X615420Y924480D01*
X614698Y924779D01*
Y929421D01*
X615420Y929720D01*
X617830Y931570D01*
X619680Y933980D01*
X620843Y936787D01*
X621072Y938530D01*
D02*
G37*
G36*
X392472D02*
X381000D01*
X369528D01*
X369757Y936787D01*
X370920Y933980D01*
X372770Y931570D01*
X375180Y929720D01*
X375902Y929421D01*
Y924779D01*
X375180Y924480D01*
X372770Y922630D01*
X370920Y920220D01*
X369757Y917412D01*
X369528Y915670D01*
X381000D01*
X392472D01*
X392243Y917412D01*
X391080Y920220D01*
X389230Y922630D01*
X386820Y924480D01*
X386098Y924779D01*
Y929421D01*
X386820Y929720D01*
X389230Y931570D01*
X391080Y933980D01*
X392243Y936787D01*
X392472Y938530D01*
D02*
G37*
G36*
X864986Y926495D02*
X862115Y926117D01*
X859439Y925008D01*
X857141Y923245D01*
X855378Y920947D01*
X854270Y918271D01*
X853892Y915400D01*
X854270Y912528D01*
X855378Y909853D01*
X857141Y907555D01*
X859439Y905791D01*
X862115Y904683D01*
X864986Y904305D01*
X867858Y904683D01*
X870534Y905791D01*
X872832Y907555D01*
X874595Y909853D01*
X875703Y912528D01*
X876081Y915400D01*
X875703Y918271D01*
X874595Y920947D01*
X872832Y923245D01*
X870534Y925008D01*
X867858Y926117D01*
X864986Y926495D01*
D02*
G37*
G36*
X839586D02*
X836715Y926117D01*
X834039Y925008D01*
X831741Y923245D01*
X829978Y920947D01*
X828870Y918271D01*
X828492Y915400D01*
X828870Y912528D01*
X829978Y909853D01*
X831741Y907555D01*
X834039Y905791D01*
X836715Y904683D01*
X839586Y904305D01*
X842458Y904683D01*
X845134Y905791D01*
X847432Y907555D01*
X849195Y909853D01*
X850303Y912528D01*
X850681Y915400D01*
X850303Y918271D01*
X849195Y920947D01*
X847432Y923245D01*
X845134Y925008D01*
X842458Y926117D01*
X839586Y926495D01*
D02*
G37*
G36*
X814186D02*
X811315Y926117D01*
X808639Y925008D01*
X806341Y923245D01*
X804578Y920947D01*
X803470Y918271D01*
X803092Y915400D01*
X803470Y912528D01*
X804578Y909853D01*
X806341Y907555D01*
X808639Y905791D01*
X811315Y904683D01*
X814186Y904305D01*
X817058Y904683D01*
X819734Y905791D01*
X822032Y907555D01*
X823795Y909853D01*
X824903Y912528D01*
X825281Y915400D01*
X824903Y918271D01*
X823795Y920947D01*
X822032Y923245D01*
X819734Y925008D01*
X817058Y926117D01*
X814186Y926495D01*
D02*
G37*
G36*
X176413D02*
X173542Y926117D01*
X170866Y925008D01*
X168568Y923245D01*
X166805Y920947D01*
X165697Y918271D01*
X165319Y915400D01*
X165697Y912528D01*
X166805Y909853D01*
X168568Y907555D01*
X170866Y905791D01*
X173542Y904683D01*
X176413Y904305D01*
X179285Y904683D01*
X181961Y905791D01*
X184259Y907555D01*
X186022Y909853D01*
X187130Y912528D01*
X187508Y915400D01*
X187130Y918271D01*
X186022Y920947D01*
X184259Y923245D01*
X181961Y925008D01*
X179285Y926117D01*
X176413Y926495D01*
D02*
G37*
G36*
X151013D02*
X148142Y926117D01*
X145466Y925008D01*
X143168Y923245D01*
X141405Y920947D01*
X140297Y918271D01*
X139919Y915400D01*
X140297Y912528D01*
X141405Y909853D01*
X143168Y907555D01*
X145466Y905791D01*
X148142Y904683D01*
X151013Y904305D01*
X153885Y904683D01*
X156561Y905791D01*
X158859Y907555D01*
X160622Y909853D01*
X161730Y912528D01*
X162108Y915400D01*
X161730Y918271D01*
X160622Y920947D01*
X158859Y923245D01*
X156561Y925008D01*
X153885Y926117D01*
X151013Y926495D01*
D02*
G37*
G36*
X125613D02*
X122742Y926117D01*
X120066Y925008D01*
X117768Y923245D01*
X116005Y920947D01*
X114897Y918271D01*
X114519Y915400D01*
X114897Y912528D01*
X116005Y909853D01*
X117768Y907555D01*
X120066Y905791D01*
X122742Y904683D01*
X125613Y904305D01*
X128485Y904683D01*
X131161Y905791D01*
X133459Y907555D01*
X135222Y909853D01*
X136330Y912528D01*
X136708Y915400D01*
X136330Y918271D01*
X135222Y920947D01*
X133459Y923245D01*
X131161Y925008D01*
X128485Y926117D01*
X125613Y926495D01*
D02*
G37*
G36*
X787400Y925495D02*
X784528Y925117D01*
X781852Y924008D01*
X779555Y922245D01*
X777792Y919948D01*
X776683Y917272D01*
X776305Y914400D01*
X776683Y911528D01*
X777792Y908852D01*
X779555Y906555D01*
X781852Y904791D01*
X784528Y903683D01*
X787400Y903305D01*
X790272Y903683D01*
X792947Y904791D01*
X795245Y906555D01*
X797009Y908852D01*
X798117Y911528D01*
X798495Y914400D01*
X798117Y917272D01*
X797009Y919948D01*
X795245Y922245D01*
X792947Y924008D01*
X790272Y925117D01*
X787400Y925495D01*
D02*
G37*
G36*
X762000D02*
X759128Y925117D01*
X756452Y924008D01*
X754155Y922245D01*
X752392Y919948D01*
X751283Y917272D01*
X750905Y914400D01*
X751283Y911528D01*
X752392Y908852D01*
X754155Y906555D01*
X756452Y904791D01*
X759128Y903683D01*
X762000Y903305D01*
X764872Y903683D01*
X767548Y904791D01*
X769845Y906555D01*
X771609Y908852D01*
X772717Y911528D01*
X773095Y914400D01*
X772717Y917272D01*
X771609Y919948D01*
X769845Y922245D01*
X767548Y924008D01*
X764872Y925117D01*
X762000Y925495D01*
D02*
G37*
G36*
X736600D02*
X733728Y925117D01*
X731052Y924008D01*
X728755Y922245D01*
X726992Y919948D01*
X725883Y917272D01*
X725505Y914400D01*
X725883Y911528D01*
X726992Y908852D01*
X728755Y906555D01*
X731052Y904791D01*
X733728Y903683D01*
X736600Y903305D01*
X739472Y903683D01*
X742148Y904791D01*
X744445Y906555D01*
X746208Y908852D01*
X747317Y911528D01*
X747695Y914400D01*
X747317Y917272D01*
X746208Y919948D01*
X744445Y922245D01*
X742148Y924008D01*
X739472Y925117D01*
X736600Y925495D01*
D02*
G37*
G36*
X711200D02*
X708328Y925117D01*
X705652Y924008D01*
X703355Y922245D01*
X701591Y919948D01*
X700483Y917272D01*
X700105Y914400D01*
X700483Y911528D01*
X701591Y908852D01*
X703355Y906555D01*
X705652Y904791D01*
X708328Y903683D01*
X711200Y903305D01*
X714072Y903683D01*
X716748Y904791D01*
X719045Y906555D01*
X720808Y908852D01*
X721917Y911528D01*
X722295Y914400D01*
X721917Y917272D01*
X720808Y919948D01*
X719045Y922245D01*
X716748Y924008D01*
X714072Y925117D01*
X711200Y925495D01*
D02*
G37*
G36*
X685800D02*
X682928Y925117D01*
X680253Y924008D01*
X677955Y922245D01*
X676191Y919948D01*
X675083Y917272D01*
X674705Y914400D01*
X675083Y911528D01*
X676191Y908852D01*
X677955Y906555D01*
X680253Y904791D01*
X682928Y903683D01*
X685800Y903305D01*
X688672Y903683D01*
X691348Y904791D01*
X693645Y906555D01*
X695408Y908852D01*
X696517Y911528D01*
X696895Y914400D01*
X696517Y917272D01*
X695408Y919948D01*
X693645Y922245D01*
X691348Y924008D01*
X688672Y925117D01*
X685800Y925495D01*
D02*
G37*
G36*
X660400D02*
X657528Y925117D01*
X654853Y924008D01*
X652555Y922245D01*
X650791Y919948D01*
X649683Y917272D01*
X649305Y914400D01*
X649683Y911528D01*
X650791Y908852D01*
X652555Y906555D01*
X654853Y904791D01*
X657528Y903683D01*
X660400Y903305D01*
X663272Y903683D01*
X665947Y904791D01*
X668245Y906555D01*
X670008Y908852D01*
X671117Y911528D01*
X671495Y914400D01*
X671117Y917272D01*
X670008Y919948D01*
X668245Y922245D01*
X665947Y924008D01*
X663272Y925117D01*
X660400Y925495D01*
D02*
G37*
G36*
X635000D02*
X632128Y925117D01*
X629453Y924008D01*
X627155Y922245D01*
X625392Y919948D01*
X624283Y917272D01*
X623905Y914400D01*
X624283Y911528D01*
X625392Y908852D01*
X627155Y906555D01*
X629453Y904791D01*
X632128Y903683D01*
X635000Y903305D01*
X637872Y903683D01*
X640547Y904791D01*
X642845Y906555D01*
X644609Y908852D01*
X645717Y911528D01*
X646095Y914400D01*
X645717Y917272D01*
X644609Y919948D01*
X642845Y922245D01*
X640547Y924008D01*
X637872Y925117D01*
X635000Y925495D01*
D02*
G37*
G36*
X355600D02*
X352728Y925117D01*
X350052Y924008D01*
X347755Y922245D01*
X345992Y919948D01*
X344883Y917272D01*
X344505Y914400D01*
X344883Y911528D01*
X345992Y908852D01*
X347755Y906555D01*
X350052Y904791D01*
X352728Y903683D01*
X355600Y903305D01*
X358472Y903683D01*
X361147Y904791D01*
X363445Y906555D01*
X365209Y908852D01*
X366317Y911528D01*
X366695Y914400D01*
X366317Y917272D01*
X365209Y919948D01*
X363445Y922245D01*
X361147Y924008D01*
X358472Y925117D01*
X355600Y925495D01*
D02*
G37*
G36*
X330200D02*
X327328Y925117D01*
X324652Y924008D01*
X322355Y922245D01*
X320592Y919948D01*
X319483Y917272D01*
X319105Y914400D01*
X319483Y911528D01*
X320592Y908852D01*
X322355Y906555D01*
X324652Y904791D01*
X327328Y903683D01*
X330200Y903305D01*
X333072Y903683D01*
X335747Y904791D01*
X338045Y906555D01*
X339809Y908852D01*
X340917Y911528D01*
X341295Y914400D01*
X340917Y917272D01*
X339809Y919948D01*
X338045Y922245D01*
X335747Y924008D01*
X333072Y925117D01*
X330200Y925495D01*
D02*
G37*
G36*
X304800D02*
X301928Y925117D01*
X299252Y924008D01*
X296955Y922245D01*
X295191Y919948D01*
X294083Y917272D01*
X293705Y914400D01*
X294083Y911528D01*
X295191Y908852D01*
X296955Y906555D01*
X299252Y904791D01*
X301928Y903683D01*
X304800Y903305D01*
X307672Y903683D01*
X310347Y904791D01*
X312645Y906555D01*
X314408Y908852D01*
X315517Y911528D01*
X315895Y914400D01*
X315517Y917272D01*
X314408Y919948D01*
X312645Y922245D01*
X310347Y924008D01*
X307672Y925117D01*
X304800Y925495D01*
D02*
G37*
G36*
X279400D02*
X276528Y925117D01*
X273853Y924008D01*
X271555Y922245D01*
X269792Y919948D01*
X268683Y917272D01*
X268305Y914400D01*
X268683Y911528D01*
X269792Y908852D01*
X271555Y906555D01*
X273853Y904791D01*
X276528Y903683D01*
X279400Y903305D01*
X282272Y903683D01*
X284947Y904791D01*
X287245Y906555D01*
X289009Y908852D01*
X290117Y911528D01*
X290495Y914400D01*
X290117Y917272D01*
X289009Y919948D01*
X287245Y922245D01*
X284947Y924008D01*
X282272Y925117D01*
X279400Y925495D01*
D02*
G37*
G36*
X254000D02*
X251128Y925117D01*
X248452Y924008D01*
X246155Y922245D01*
X244391Y919948D01*
X243283Y917272D01*
X242905Y914400D01*
X243283Y911528D01*
X244391Y908852D01*
X246155Y906555D01*
X248452Y904791D01*
X251128Y903683D01*
X254000Y903305D01*
X256872Y903683D01*
X259548Y904791D01*
X261845Y906555D01*
X263608Y908852D01*
X264717Y911528D01*
X265095Y914400D01*
X264717Y917272D01*
X263608Y919948D01*
X261845Y922245D01*
X259548Y924008D01*
X256872Y925117D01*
X254000Y925495D01*
D02*
G37*
G36*
X228600D02*
X225728Y925117D01*
X223053Y924008D01*
X220755Y922245D01*
X218992Y919948D01*
X217883Y917272D01*
X217505Y914400D01*
X217883Y911528D01*
X218992Y908852D01*
X220755Y906555D01*
X223053Y904791D01*
X225728Y903683D01*
X228600Y903305D01*
X231472Y903683D01*
X234147Y904791D01*
X236445Y906555D01*
X238209Y908852D01*
X239317Y911528D01*
X239695Y914400D01*
X239317Y917272D01*
X238209Y919948D01*
X236445Y922245D01*
X234147Y924008D01*
X231472Y925117D01*
X228600Y925495D01*
D02*
G37*
G36*
X203200D02*
X200328Y925117D01*
X197652Y924008D01*
X195355Y922245D01*
X193591Y919948D01*
X192483Y917272D01*
X192105Y914400D01*
X192483Y911528D01*
X193591Y908852D01*
X195355Y906555D01*
X197652Y904791D01*
X200328Y903683D01*
X203200Y903305D01*
X206072Y903683D01*
X208748Y904791D01*
X211045Y906555D01*
X212808Y908852D01*
X213917Y911528D01*
X214295Y914400D01*
X213917Y917272D01*
X212808Y919948D01*
X211045Y922245D01*
X208748Y924008D01*
X206072Y925117D01*
X203200Y925495D01*
D02*
G37*
G36*
X925000Y952084D02*
X920763Y951750D01*
X916631Y950758D01*
X912704Y949132D01*
X909081Y946911D01*
X905849Y944151D01*
X903089Y940919D01*
X900869Y937296D01*
X899242Y933369D01*
X898250Y929237D01*
X897917Y925000D01*
X898250Y920763D01*
X899242Y916631D01*
X900869Y912704D01*
X903089Y909081D01*
X905849Y905849D01*
X909081Y903089D01*
X912704Y900869D01*
X916631Y899242D01*
X920763Y898250D01*
X925000Y897917D01*
X929237Y898250D01*
X933369Y899242D01*
X937296Y900869D01*
X940919Y903089D01*
X944151Y905849D01*
X946911Y909081D01*
X949132Y912704D01*
X950758Y916631D01*
X951750Y920763D01*
X952084Y925000D01*
X951750Y929237D01*
X950758Y933369D01*
X949132Y937296D01*
X946911Y940919D01*
X944151Y944151D01*
X940919Y946911D01*
X937296Y949132D01*
X933369Y950758D01*
X929237Y951750D01*
X925000Y952084D01*
D02*
G37*
G36*
X75000D02*
X70763Y951750D01*
X66631Y950758D01*
X62704Y949132D01*
X59081Y946911D01*
X55849Y944151D01*
X53089Y940919D01*
X50868Y937296D01*
X49242Y933369D01*
X48250Y929237D01*
X47916Y925000D01*
X48250Y920763D01*
X49242Y916631D01*
X50868Y912704D01*
X53089Y909081D01*
X55849Y905849D01*
X59081Y903089D01*
X62704Y900869D01*
X66631Y899242D01*
X70763Y898250D01*
X75000Y897917D01*
X79237Y898250D01*
X83369Y899242D01*
X87296Y900869D01*
X90919Y903089D01*
X94151Y905849D01*
X96911Y909081D01*
X99131Y912704D01*
X100758Y916631D01*
X101750Y920763D01*
X102083Y925000D01*
X101750Y929237D01*
X100758Y933369D01*
X99131Y937296D01*
X96911Y940919D01*
X94151Y944151D01*
X90919Y946911D01*
X87296Y949132D01*
X83369Y950758D01*
X79237Y951750D01*
X75000Y952084D01*
D02*
G37*
G36*
X392472Y913130D02*
X381000D01*
X369528D01*
X369757Y911387D01*
X370920Y908580D01*
X372770Y906170D01*
X375180Y904320D01*
X375902Y904021D01*
Y899379D01*
X375180Y899080D01*
X372770Y897230D01*
X370920Y894820D01*
X369757Y892012D01*
X369528Y890270D01*
X381000D01*
X392472D01*
X392243Y892012D01*
X391080Y894820D01*
X389230Y897230D01*
X386820Y899080D01*
X386098Y899379D01*
Y904021D01*
X386820Y904320D01*
X389230Y906170D01*
X391080Y908580D01*
X392243Y911387D01*
X392472Y913130D01*
D02*
G37*
G36*
X621072D02*
X609600D01*
X598128D01*
X598357Y911387D01*
X599520Y908580D01*
X601370Y906170D01*
X603780Y904320D01*
X604502Y904021D01*
Y899379D01*
X603780Y899080D01*
X601370Y897230D01*
X599520Y894820D01*
X598357Y892012D01*
X598128Y890270D01*
X609600D01*
X621072D01*
X620843Y892012D01*
X619680Y894820D01*
X617830Y897230D01*
X615420Y899080D01*
X614698Y899379D01*
Y904021D01*
X615420Y904320D01*
X617830Y906170D01*
X619680Y908580D01*
X620843Y911387D01*
X621072Y913130D01*
D02*
G37*
G36*
X110540Y893540D02*
X103770D01*
Y883770D01*
X110540D01*
Y893540D01*
D02*
G37*
G36*
X101230D02*
X94460D01*
Y883770D01*
X101230D01*
Y893540D01*
D02*
G37*
G36*
X685800Y900095D02*
X682928Y899717D01*
X680253Y898608D01*
X677955Y896845D01*
X676191Y894548D01*
X675083Y891872D01*
X674705Y889000D01*
X675083Y886128D01*
X676191Y883453D01*
X677955Y881155D01*
X680253Y879391D01*
X682928Y878283D01*
X685800Y877905D01*
X688672Y878283D01*
X691348Y879391D01*
X693645Y881155D01*
X695408Y883453D01*
X696517Y886128D01*
X696895Y889000D01*
X696517Y891872D01*
X695408Y894548D01*
X693645Y896845D01*
X691348Y898608D01*
X688672Y899717D01*
X685800Y900095D01*
D02*
G37*
G36*
X660400D02*
X657528Y899717D01*
X654853Y898608D01*
X652555Y896845D01*
X650791Y894548D01*
X649683Y891872D01*
X649305Y889000D01*
X649683Y886128D01*
X650791Y883453D01*
X652555Y881155D01*
X654853Y879391D01*
X657528Y878283D01*
X660400Y877905D01*
X663272Y878283D01*
X665947Y879391D01*
X668245Y881155D01*
X670008Y883453D01*
X671117Y886128D01*
X671495Y889000D01*
X671117Y891872D01*
X670008Y894548D01*
X668245Y896845D01*
X665947Y898608D01*
X663272Y899717D01*
X660400Y900095D01*
D02*
G37*
G36*
X635000D02*
X632128Y899717D01*
X629453Y898608D01*
X627155Y896845D01*
X625392Y894548D01*
X624283Y891872D01*
X623905Y889000D01*
X624283Y886128D01*
X625392Y883453D01*
X627155Y881155D01*
X629453Y879391D01*
X632128Y878283D01*
X635000Y877905D01*
X637872Y878283D01*
X640547Y879391D01*
X642845Y881155D01*
X644609Y883453D01*
X645717Y886128D01*
X646095Y889000D01*
X645717Y891872D01*
X644609Y894548D01*
X642845Y896845D01*
X640547Y898608D01*
X637872Y899717D01*
X635000Y900095D01*
D02*
G37*
G36*
X355600D02*
X352728Y899717D01*
X350052Y898608D01*
X347755Y896845D01*
X345992Y894548D01*
X344883Y891872D01*
X344505Y889000D01*
X344883Y886128D01*
X345992Y883453D01*
X347755Y881155D01*
X350052Y879391D01*
X352728Y878283D01*
X355600Y877905D01*
X358472Y878283D01*
X361147Y879391D01*
X363445Y881155D01*
X365209Y883453D01*
X366317Y886128D01*
X366695Y889000D01*
X366317Y891872D01*
X365209Y894548D01*
X363445Y896845D01*
X361147Y898608D01*
X358472Y899717D01*
X355600Y900095D01*
D02*
G37*
G36*
X330200D02*
X327328Y899717D01*
X324652Y898608D01*
X322355Y896845D01*
X320592Y894548D01*
X319483Y891872D01*
X319105Y889000D01*
X319483Y886128D01*
X320592Y883453D01*
X322355Y881155D01*
X324652Y879391D01*
X327328Y878283D01*
X330200Y877905D01*
X333072Y878283D01*
X335747Y879391D01*
X338045Y881155D01*
X339809Y883453D01*
X340917Y886128D01*
X341295Y889000D01*
X340917Y891872D01*
X339809Y894548D01*
X338045Y896845D01*
X335747Y898608D01*
X333072Y899717D01*
X330200Y900095D01*
D02*
G37*
G36*
X304800D02*
X301928Y899717D01*
X299252Y898608D01*
X296955Y896845D01*
X295191Y894548D01*
X294083Y891872D01*
X293705Y889000D01*
X294083Y886128D01*
X295191Y883453D01*
X296955Y881155D01*
X299252Y879391D01*
X301928Y878283D01*
X304800Y877905D01*
X307672Y878283D01*
X310347Y879391D01*
X312645Y881155D01*
X314408Y883453D01*
X315517Y886128D01*
X315895Y889000D01*
X315517Y891872D01*
X314408Y894548D01*
X312645Y896845D01*
X310347Y898608D01*
X307672Y899717D01*
X304800Y900095D01*
D02*
G37*
G36*
X279400D02*
X276528Y899717D01*
X273853Y898608D01*
X271555Y896845D01*
X269792Y894548D01*
X268683Y891872D01*
X268305Y889000D01*
X268683Y886128D01*
X269792Y883453D01*
X271555Y881155D01*
X273853Y879391D01*
X276528Y878283D01*
X279400Y877905D01*
X282272Y878283D01*
X284947Y879391D01*
X287245Y881155D01*
X289009Y883453D01*
X290117Y886128D01*
X290495Y889000D01*
X290117Y891872D01*
X289009Y894548D01*
X287245Y896845D01*
X284947Y898608D01*
X282272Y899717D01*
X279400Y900095D01*
D02*
G37*
G36*
X254000D02*
X251128Y899717D01*
X248452Y898608D01*
X246155Y896845D01*
X244391Y894548D01*
X243283Y891872D01*
X242905Y889000D01*
X243283Y886128D01*
X244391Y883453D01*
X246155Y881155D01*
X248452Y879391D01*
X251128Y878283D01*
X254000Y877905D01*
X256872Y878283D01*
X259548Y879391D01*
X261845Y881155D01*
X263608Y883453D01*
X264717Y886128D01*
X265095Y889000D01*
X264717Y891872D01*
X263608Y894548D01*
X261845Y896845D01*
X259548Y898608D01*
X256872Y899717D01*
X254000Y900095D01*
D02*
G37*
G36*
X228600D02*
X225728Y899717D01*
X223053Y898608D01*
X220755Y896845D01*
X218992Y894548D01*
X217883Y891872D01*
X217505Y889000D01*
X217883Y886128D01*
X218992Y883453D01*
X220755Y881155D01*
X223053Y879391D01*
X225728Y878283D01*
X228600Y877905D01*
X231472Y878283D01*
X234147Y879391D01*
X236445Y881155D01*
X238209Y883453D01*
X239317Y886128D01*
X239695Y889000D01*
X239317Y891872D01*
X238209Y894548D01*
X236445Y896845D01*
X234147Y898608D01*
X231472Y899717D01*
X228600Y900095D01*
D02*
G37*
G36*
X203200D02*
X200328Y899717D01*
X197652Y898608D01*
X195355Y896845D01*
X193591Y894548D01*
X192483Y891872D01*
X192105Y889000D01*
X192483Y886128D01*
X193591Y883453D01*
X195355Y881155D01*
X197652Y879391D01*
X200328Y878283D01*
X203200Y877905D01*
X206072Y878283D01*
X208748Y879391D01*
X211045Y881155D01*
X212808Y883453D01*
X213917Y886128D01*
X214295Y889000D01*
X213917Y891872D01*
X212808Y894548D01*
X211045Y896845D01*
X208748Y898608D01*
X206072Y899717D01*
X203200Y900095D01*
D02*
G37*
G36*
X110540Y881230D02*
X103770D01*
Y871460D01*
X110540D01*
Y881230D01*
D02*
G37*
G36*
X101230D02*
X94460D01*
Y871460D01*
X101230D01*
Y881230D01*
D02*
G37*
G36*
X621072Y887730D02*
X609600D01*
X598128D01*
X598357Y885987D01*
X599520Y883180D01*
X601370Y880770D01*
X603780Y878920D01*
X604502Y878621D01*
Y873979D01*
X603780Y873680D01*
X601370Y871830D01*
X599520Y869420D01*
X598357Y866612D01*
X598128Y864870D01*
X609600D01*
X621072D01*
X620843Y866612D01*
X619680Y869420D01*
X617830Y871830D01*
X615420Y873680D01*
X614698Y873979D01*
Y878621D01*
X615420Y878920D01*
X617830Y880770D01*
X619680Y883180D01*
X620843Y885987D01*
X621072Y887730D01*
D02*
G37*
G36*
X685800Y874695D02*
X682928Y874317D01*
X680253Y873208D01*
X677955Y871445D01*
X676191Y869147D01*
X675083Y866472D01*
X674705Y863600D01*
X675083Y860728D01*
X676191Y858053D01*
X677955Y855755D01*
X680253Y853991D01*
X682928Y852883D01*
X685800Y852505D01*
X688672Y852883D01*
X691348Y853991D01*
X693645Y855755D01*
X695408Y858053D01*
X696517Y860728D01*
X696895Y863600D01*
X696517Y866472D01*
X695408Y869147D01*
X693645Y871445D01*
X691348Y873208D01*
X688672Y874317D01*
X685800Y874695D01*
D02*
G37*
G36*
X660400D02*
X657528Y874317D01*
X654853Y873208D01*
X652555Y871445D01*
X650791Y869147D01*
X649683Y866472D01*
X649305Y863600D01*
X649683Y860728D01*
X650791Y858053D01*
X652555Y855755D01*
X654853Y853991D01*
X657528Y852883D01*
X660400Y852505D01*
X663272Y852883D01*
X665947Y853991D01*
X668245Y855755D01*
X670008Y858053D01*
X671117Y860728D01*
X671495Y863600D01*
X671117Y866472D01*
X670008Y869147D01*
X668245Y871445D01*
X665947Y873208D01*
X663272Y874317D01*
X660400Y874695D01*
D02*
G37*
G36*
X635000D02*
X632128Y874317D01*
X629453Y873208D01*
X627155Y871445D01*
X625392Y869147D01*
X624283Y866472D01*
X623905Y863600D01*
X624283Y860728D01*
X625392Y858053D01*
X627155Y855755D01*
X629453Y853991D01*
X632128Y852883D01*
X635000Y852505D01*
X637872Y852883D01*
X640547Y853991D01*
X642845Y855755D01*
X644609Y858053D01*
X645717Y860728D01*
X646095Y863600D01*
X645717Y866472D01*
X644609Y869147D01*
X642845Y871445D01*
X640547Y873208D01*
X637872Y874317D01*
X635000Y874695D01*
D02*
G37*
G36*
X621072Y862330D02*
X610870D01*
Y852128D01*
X612612Y852357D01*
X615420Y853520D01*
X617830Y855370D01*
X619680Y857780D01*
X620843Y860587D01*
X621072Y862330D01*
D02*
G37*
G36*
X608330D02*
X598128D01*
X598357Y860587D01*
X599520Y857780D01*
X601370Y855370D01*
X603780Y853520D01*
X606587Y852357D01*
X608330Y852128D01*
Y862330D01*
D02*
G37*
G36*
X110540Y809540D02*
X103770D01*
Y799770D01*
X110540D01*
Y809540D01*
D02*
G37*
G36*
X101230D02*
X94460D01*
Y799770D01*
X101230D01*
Y809540D01*
D02*
G37*
G36*
X65000Y893000D02*
X50000D01*
Y872000D01*
X53931D01*
Y827734D01*
X52864Y826915D01*
X51822Y825557D01*
X51167Y823976D01*
X50944Y822279D01*
X51167Y820582D01*
X51822Y819001D01*
X52864Y817643D01*
X53931Y816824D01*
Y809000D01*
X50000D01*
Y788000D01*
X65000D01*
Y809000D01*
X61068D01*
Y816824D01*
X62136Y817643D01*
X63177Y819001D01*
X63833Y820582D01*
X64056Y822279D01*
X63833Y823976D01*
X63177Y825557D01*
X62136Y826915D01*
X61068Y827734D01*
Y872000D01*
X65000D01*
Y893000D01*
D02*
G37*
G36*
X110540Y797230D02*
X103770D01*
Y787460D01*
X110540D01*
Y797230D01*
D02*
G37*
G36*
X101230D02*
X94460D01*
Y787460D01*
X101230D01*
Y797230D01*
D02*
G37*
G36*
X594572Y921032D02*
X582032D01*
X569492D01*
Y913078D01*
X569492Y912262D01*
X570032Y910986D01*
Y905871D01*
X564802D01*
X563436Y905599D01*
X562279Y904825D01*
X517477Y860023D01*
X516703Y858866D01*
X516431Y857500D01*
Y781478D01*
X513834Y778880D01*
X512500Y779056D01*
X510803Y778833D01*
X509222Y778178D01*
X507864Y777136D01*
X506822Y775778D01*
X506167Y774197D01*
X505944Y772500D01*
X506167Y770803D01*
X506822Y769222D01*
X507864Y767864D01*
X509222Y766822D01*
X510803Y766167D01*
X512500Y765944D01*
X514197Y766167D01*
X515778Y766822D01*
X517136Y767864D01*
X518178Y769222D01*
X518833Y770803D01*
X519056Y772500D01*
X518881Y773834D01*
X520046Y774999D01*
X521431Y774425D01*
Y735500D01*
X521703Y734134D01*
X522477Y732977D01*
X532227Y723227D01*
X533384Y722453D01*
X534750Y722181D01*
X536545D01*
X537364Y721114D01*
X538722Y720072D01*
X540303Y719417D01*
X542000Y719194D01*
X542030Y719198D01*
X542730Y717777D01*
X541022Y716069D01*
X529756D01*
X487819Y758006D01*
Y815413D01*
X487547Y816778D01*
X486773Y817936D01*
X439884Y864825D01*
X438726Y865599D01*
X437360Y865871D01*
X429032D01*
Y871802D01*
X429032D01*
Y872802D01*
X429032D01*
Y890986D01*
X429572Y892262D01*
X429572Y893078D01*
Y901032D01*
X417032D01*
X404492D01*
Y893078D01*
X404492Y892262D01*
X405032Y890986D01*
Y881858D01*
X404356Y881407D01*
X395895Y872946D01*
X394790Y871292D01*
X394402Y869341D01*
Y867933D01*
X392902Y867635D01*
X391954Y869924D01*
X389944Y872544D01*
X387324Y874554D01*
X386098Y875062D01*
Y878621D01*
X386820Y878920D01*
X389230Y880770D01*
X391080Y883180D01*
X392243Y885987D01*
X392472Y887730D01*
X381000D01*
X369528D01*
X369757Y885987D01*
X370920Y883180D01*
X372770Y880770D01*
X375180Y878920D01*
X375902Y878621D01*
Y875061D01*
X374676Y874554D01*
X372056Y872544D01*
X370046Y869924D01*
X368783Y866874D01*
X367291Y866733D01*
X366082Y869652D01*
X364159Y872159D01*
X361652Y874082D01*
X358733Y875291D01*
X355600Y875704D01*
X352467Y875291D01*
X349548Y874082D01*
X347042Y872159D01*
X345118Y869652D01*
X343909Y866733D01*
X343657Y864816D01*
X342144D01*
X341891Y866733D01*
X340682Y869652D01*
X338759Y872159D01*
X336252Y874082D01*
X333333Y875291D01*
X330200Y875704D01*
X327067Y875291D01*
X324148Y874082D01*
X321642Y872159D01*
X319718Y869652D01*
X318509Y866733D01*
X318256Y864815D01*
X316744D01*
X316491Y866733D01*
X315282Y869652D01*
X313358Y872159D01*
X310852Y874082D01*
X307933Y875291D01*
X304800Y875704D01*
X301667Y875291D01*
X298748Y874082D01*
X296241Y872159D01*
X294318Y869652D01*
X293109Y866733D01*
X292857Y864816D01*
X291343D01*
X291091Y866733D01*
X289882Y869652D01*
X287959Y872159D01*
X285452Y874082D01*
X282533Y875291D01*
X279400Y875704D01*
X276267Y875291D01*
X273348Y874082D01*
X270842Y872159D01*
X268918Y869652D01*
X267709Y866733D01*
X267456Y864816D01*
X265944D01*
X265691Y866733D01*
X264482Y869652D01*
X262558Y872159D01*
X260052Y874082D01*
X257133Y875291D01*
X254000Y875704D01*
X250867Y875291D01*
X247948Y874082D01*
X245441Y872159D01*
X243518Y869652D01*
X242309Y866733D01*
X242057Y864816D01*
X240544D01*
X240291Y866733D01*
X239082Y869652D01*
X237159Y872159D01*
X234652Y874082D01*
X231733Y875291D01*
X228600Y875704D01*
X225467Y875291D01*
X222548Y874082D01*
X220042Y872159D01*
X218118Y869652D01*
X216909Y866733D01*
X216656Y864815D01*
X215144D01*
X214891Y866733D01*
X213682Y869652D01*
X211758Y872159D01*
X209252Y874082D01*
X206333Y875291D01*
X203200Y875704D01*
X200067Y875291D01*
X197148Y874082D01*
X194641Y872159D01*
X192718Y869652D01*
X191509Y866733D01*
X191096Y863600D01*
X191509Y860467D01*
X192718Y857548D01*
X194641Y855042D01*
X197148Y853118D01*
X200067Y851909D01*
X203200Y851496D01*
X206333Y851909D01*
X209252Y853118D01*
X211758Y855042D01*
X213682Y857548D01*
X214891Y860467D01*
X215144Y862385D01*
X216656D01*
X216909Y860467D01*
X218118Y857548D01*
X220042Y855042D01*
X222548Y853118D01*
X225467Y851909D01*
X228600Y851496D01*
X231733Y851909D01*
X234652Y853118D01*
X237159Y855042D01*
X239082Y857548D01*
X240291Y860467D01*
X240544Y862384D01*
X242057D01*
X242309Y860467D01*
X243518Y857548D01*
X245441Y855042D01*
X247948Y853118D01*
X250431Y852089D01*
Y814500D01*
X250703Y813134D01*
X251477Y811977D01*
X279749Y783704D01*
X279175Y782319D01*
X149267D01*
X149218Y782367D01*
X149053Y783621D01*
X148398Y785202D01*
X147356Y786560D01*
X145999Y787602D01*
X144417Y788257D01*
X142721Y788480D01*
X141024Y788257D01*
X139443Y787602D01*
X138085Y786560D01*
X137043Y785202D01*
X136388Y783621D01*
X136165Y781924D01*
X136388Y780227D01*
X137043Y778646D01*
X138085Y777288D01*
X139171Y776455D01*
X139205Y776390D01*
X139328Y775373D01*
X139241Y774706D01*
X138489Y774130D01*
X137447Y772772D01*
X136792Y771191D01*
X136569Y769494D01*
X136792Y767797D01*
X137447Y766216D01*
X138489Y764858D01*
X139847Y763816D01*
X141428Y763161D01*
X143125Y762938D01*
X144822Y763161D01*
X146403Y763816D01*
X147761Y764858D01*
X148803Y766216D01*
X149458Y767797D01*
X149681Y769494D01*
X151130Y769931D01*
X278272D01*
X380160Y668044D01*
X379572Y667278D01*
X378917Y665697D01*
X378694Y664000D01*
X378917Y662303D01*
X379572Y660722D01*
X380614Y659364D01*
X381972Y658322D01*
X383553Y657667D01*
X385250Y657444D01*
X386947Y657667D01*
X388181Y658179D01*
X389681Y657516D01*
Y651222D01*
X388972Y650928D01*
X387614Y649886D01*
X386572Y648528D01*
X385917Y646947D01*
X385799Y646051D01*
X384216Y645514D01*
X348456Y681273D01*
X347298Y682047D01*
X345933Y682319D01*
X274728D01*
X272131Y684916D01*
X272306Y686250D01*
X272083Y687947D01*
X271428Y689528D01*
X270386Y690886D01*
X269028Y691928D01*
X267447Y692583D01*
X265750Y692806D01*
X264053Y692583D01*
X262472Y691928D01*
X261114Y690886D01*
X260072Y689528D01*
X259417Y687947D01*
X259194Y686250D01*
X259266Y685703D01*
X257892Y684648D01*
X257447Y684833D01*
X255750Y685056D01*
X254053Y684833D01*
X252472Y684178D01*
X251114Y683136D01*
X250072Y681778D01*
X249417Y680197D01*
X249194Y678500D01*
X249417Y676803D01*
X250072Y675222D01*
X251114Y673864D01*
X251174Y673819D01*
X250664Y672319D01*
X243006D01*
X211154Y704171D01*
X211203Y704226D01*
X211203Y704226D01*
X212162Y705284D01*
X212245Y705216D01*
X215364Y702656D01*
X219620Y700381D01*
X224238Y698980D01*
X229041Y698507D01*
X233844Y698980D01*
X238462Y700381D01*
X242719Y702656D01*
X246449Y705718D01*
X249511Y709449D01*
X251786Y713705D01*
X253187Y718323D01*
X253660Y723126D01*
X253187Y727929D01*
X251786Y732547D01*
X249511Y736803D01*
X246449Y740534D01*
X242719Y743596D01*
X238462Y745871D01*
X233844Y747271D01*
X229041Y747745D01*
X224238Y747271D01*
X219620Y745871D01*
X215364Y743596D01*
X211633Y740534D01*
X208572Y736803D01*
X206297Y732547D01*
X204896Y727929D01*
X204423Y723126D01*
X204896Y718323D01*
X206297Y713705D01*
X208572Y709449D01*
X211131Y706329D01*
X211199Y706247D01*
X210087Y705238D01*
X192801Y722523D01*
X191644Y723297D01*
X190278Y723569D01*
X79200D01*
X77834Y723297D01*
X76677Y722523D01*
X69453Y715300D01*
X52598D01*
Y717388D01*
X63362Y728152D01*
X87010D01*
X87614Y727364D01*
X88972Y726322D01*
X90553Y725667D01*
X92250Y725444D01*
X93947Y725667D01*
X95528Y726322D01*
X96886Y727364D01*
X97928Y728722D01*
X98583Y730303D01*
X98806Y732000D01*
X98583Y733697D01*
X97928Y735278D01*
X96886Y736636D01*
X95528Y737678D01*
X93947Y738333D01*
X92250Y738556D01*
X90669Y738348D01*
X61250D01*
X59299Y737960D01*
X57645Y736855D01*
X43895Y723105D01*
X42790Y721451D01*
X42402Y719500D01*
Y444500D01*
X42790Y442549D01*
X43895Y440895D01*
X92769Y392021D01*
X94423Y390916D01*
X96374Y390528D01*
X726360D01*
X726981Y389028D01*
X717453Y379500D01*
X707500D01*
Y358500D01*
X711431D01*
Y352238D01*
X710364Y351419D01*
X709322Y350061D01*
X708667Y348480D01*
X708444Y346783D01*
X708667Y345086D01*
X709322Y343505D01*
X710364Y342147D01*
X711431Y341328D01*
Y295500D01*
X707500D01*
Y274500D01*
X722500D01*
Y295500D01*
X718569D01*
Y341328D01*
X719636Y342147D01*
X720678Y343505D01*
X721333Y345086D01*
X721556Y346783D01*
X721333Y348480D01*
X720678Y350061D01*
X719636Y351419D01*
X718569Y352238D01*
Y358500D01*
X722500D01*
Y374453D01*
X731978Y383931D01*
X809250D01*
X863158Y330024D01*
Y314071D01*
X866431D01*
Y277500D01*
Y251071D01*
X863158D01*
Y230071D01*
X878158D01*
Y251071D01*
X873569D01*
Y277500D01*
Y314071D01*
X878158D01*
Y335071D01*
X868205D01*
X847723Y355553D01*
X848315Y357082D01*
X849549Y357593D01*
X850907Y358635D01*
X851949Y359993D01*
X852604Y361574D01*
X852827Y363271D01*
X852604Y364968D01*
X851949Y366549D01*
X850907Y367907D01*
X849549Y368949D01*
X847968Y369604D01*
X847024Y369728D01*
X817521Y399231D01*
X815867Y400336D01*
X813916Y400724D01*
X752190D01*
X751825Y402179D01*
X752719Y402656D01*
X756449Y405718D01*
X759511Y409449D01*
X761786Y413705D01*
X763187Y418323D01*
X763660Y423126D01*
X763187Y427929D01*
X761786Y432547D01*
X759511Y436803D01*
X756449Y440534D01*
X752719Y443596D01*
X748462Y445871D01*
X746613Y446432D01*
X746836Y447932D01*
X765522D01*
X778977Y434477D01*
X780135Y433703D01*
X781500Y433431D01*
X855500D01*
X856866Y433703D01*
X858023Y434477D01*
X914978Y491431D01*
X932312D01*
X932364Y491364D01*
X933722Y490322D01*
X935303Y489667D01*
X937000Y489444D01*
X938697Y489667D01*
X940278Y490322D01*
X941636Y491364D01*
X942454Y492430D01*
X942523Y492477D01*
X943297Y493634D01*
X943569Y495000D01*
X943482Y495436D01*
X943556Y496000D01*
X943333Y497697D01*
X942678Y499278D01*
X941636Y500636D01*
X940278Y501678D01*
X938697Y502333D01*
X937000Y502556D01*
X935303Y502333D01*
X933722Y501678D01*
X932364Y500636D01*
X931322Y499278D01*
X931028Y498569D01*
X913500D01*
X912134Y498297D01*
X910977Y497523D01*
X854022Y440569D01*
X836961D01*
X835700Y441146D01*
X835700Y442069D01*
Y459146D01*
X817700D01*
Y442069D01*
X817700Y441146D01*
X816439Y440569D01*
X782978D01*
X770126Y453421D01*
X770180Y453977D01*
X776523Y460320D01*
X777297Y461478D01*
X777569Y462843D01*
Y484868D01*
X797980Y505280D01*
X798951Y504878D01*
X801300Y504568D01*
X803649Y504878D01*
X805839Y505784D01*
X807719Y507227D01*
X809161Y509107D01*
X810068Y511297D01*
X810378Y513646D01*
X810068Y515995D01*
X809161Y518185D01*
X807719Y520065D01*
X805839Y521507D01*
X803649Y522414D01*
X801300Y522724D01*
X798951Y522414D01*
X796761Y521507D01*
X794881Y520065D01*
X793438Y518185D01*
X792532Y515995D01*
X792222Y513646D01*
X792532Y511297D01*
X792934Y510326D01*
X771477Y488869D01*
X770703Y487712D01*
X770431Y486346D01*
Y464321D01*
X766179Y460069D01*
X751540D01*
Y465730D01*
X744500D01*
Y468270D01*
X751540D01*
Y476540D01*
X751500D01*
Y493250D01*
X751250D01*
Y497653D01*
X752750Y498162D01*
X753363Y497363D01*
X754721Y496321D01*
X756302Y495666D01*
X757999Y495443D01*
X759695Y495666D01*
X761276Y496321D01*
X762634Y497363D01*
X763676Y498721D01*
X764331Y500302D01*
X764555Y501999D01*
X764331Y503696D01*
X763676Y505277D01*
X762634Y506635D01*
X761276Y507677D01*
X759695Y508332D01*
X757999Y508555D01*
X757959Y508550D01*
X757926Y508599D01*
X756526Y509999D01*
X757926Y511399D01*
X757959Y511448D01*
X757999Y511443D01*
X759695Y511666D01*
X761276Y512321D01*
X762634Y513363D01*
X763676Y514721D01*
X764245Y516093D01*
X764332Y516224D01*
X764586Y517500D01*
X764528Y517794D01*
X764555Y517999D01*
X764331Y519696D01*
X763676Y521277D01*
X762634Y522635D01*
X761276Y523677D01*
X759695Y524332D01*
X757999Y524555D01*
X756302Y524332D01*
X754721Y523677D01*
X753363Y522635D01*
X752750Y521836D01*
X751250Y522345D01*
Y525750D01*
X751500D01*
Y541250D01*
Y552146D01*
X755467D01*
X773129Y534484D01*
X774042Y533294D01*
X773000Y531936D01*
X772345Y530355D01*
X772122Y528658D01*
X772345Y526962D01*
X773000Y525380D01*
X774042Y524023D01*
X775400Y522981D01*
X776981Y522326D01*
X778678Y522102D01*
X780375Y522326D01*
X781956Y522981D01*
X783314Y524023D01*
X784355Y525380D01*
X785010Y526962D01*
X785234Y528658D01*
X785010Y530355D01*
X784721Y531055D01*
X784721Y531074D01*
X785639Y532613D01*
X786435Y532718D01*
X788017Y533373D01*
X789374Y534415D01*
X790416Y535773D01*
X790966Y537099D01*
X791794Y537191D01*
X792487Y537035D01*
X792532Y536697D01*
X793438Y534507D01*
X794881Y532627D01*
X796761Y531185D01*
X798951Y530278D01*
X801300Y529968D01*
X803649Y530278D01*
X805839Y531185D01*
X807719Y532627D01*
X809161Y534507D01*
X809660Y535712D01*
X813612D01*
X814806Y535950D01*
X814910Y535952D01*
X816306Y535109D01*
Y534782D01*
X816560Y533507D01*
X817283Y532425D01*
X818834Y530874D01*
X817932Y528695D01*
X817622Y526346D01*
X817932Y523997D01*
X818839Y521807D01*
X820281Y519927D01*
X822161Y518484D01*
X824351Y517578D01*
X826700Y517268D01*
X829049Y517578D01*
X831239Y518484D01*
X833119Y519927D01*
X834561Y521807D01*
X835468Y523997D01*
X835778Y526346D01*
X835468Y528695D01*
X834561Y530885D01*
X833289Y532543D01*
X834419Y533534D01*
X840977Y526977D01*
X842134Y526203D01*
X843500Y525931D01*
X906500D01*
X907866Y526203D01*
X909023Y526977D01*
X919608Y537561D01*
X920942Y537386D01*
X922639Y537609D01*
X924220Y538264D01*
X925578Y539306D01*
X926620Y540664D01*
X927275Y542245D01*
X927498Y543942D01*
X927275Y545639D01*
X926620Y547220D01*
X925578Y548578D01*
X924220Y549620D01*
X922639Y550275D01*
X920942Y550498D01*
X919245Y550275D01*
X917664Y549620D01*
X916306Y548578D01*
X915264Y547220D01*
X914609Y545639D01*
X914386Y543942D01*
X914561Y542608D01*
X905022Y533069D01*
X896665D01*
X896443Y534569D01*
X897218Y534804D01*
X900388Y536498D01*
X903167Y538779D01*
X905448Y541558D01*
X907142Y544728D01*
X908186Y548168D01*
X908538Y551746D01*
X908186Y555324D01*
X907142Y558764D01*
X905448Y561934D01*
X903167Y564713D01*
X900388Y566994D01*
X897218Y568688D01*
X893778Y569732D01*
X890200Y570084D01*
X886622Y569732D01*
X883182Y568688D01*
X880012Y566994D01*
X877233Y564713D01*
X874952Y561934D01*
X873258Y558764D01*
X872214Y555324D01*
X871862Y551746D01*
X872214Y548168D01*
X873258Y544728D01*
X874952Y541558D01*
X877233Y538779D01*
X880012Y536498D01*
X883182Y534804D01*
X883957Y534569D01*
X883735Y533069D01*
X844978D01*
X789273Y588773D01*
X788116Y589547D01*
X786750Y589819D01*
X714416D01*
X713051Y589547D01*
X711893Y588773D01*
X699727Y576607D01*
X698953Y575449D01*
X698681Y574084D01*
Y511352D01*
X697868Y510539D01*
X696303Y510333D01*
X694722Y509678D01*
X693364Y508636D01*
X692322Y507278D01*
X691667Y505697D01*
X691444Y504000D01*
X691667Y502303D01*
X692322Y500722D01*
X693364Y499364D01*
X694722Y498322D01*
X696303Y497667D01*
X698000Y497444D01*
X699697Y497667D01*
X701278Y498322D01*
X702636Y499364D01*
X703678Y500722D01*
X704333Y502303D01*
X704556Y504000D01*
X704333Y505697D01*
X704166Y506100D01*
X705119Y507373D01*
X706660Y507474D01*
X709012Y505122D01*
X710094Y504400D01*
X711369Y504146D01*
X714599D01*
X714599Y504146D01*
X717250D01*
Y493250D01*
X717000D01*
Y475750D01*
X717000D01*
Y458000D01*
X730000D01*
Y458900D01*
X731500Y459355D01*
X731892Y458768D01*
X734206Y456454D01*
X733632Y455069D01*
X710477D01*
X667629Y497916D01*
X667805Y499250D01*
X667581Y500947D01*
X666926Y502528D01*
X665884Y503886D01*
X665500Y504181D01*
Y520000D01*
X665500D01*
Y526431D01*
X668545D01*
X669364Y525364D01*
X670722Y524322D01*
X672303Y523667D01*
X674000Y523444D01*
X675697Y523667D01*
X677278Y524322D01*
X678636Y525364D01*
X679678Y526722D01*
X680333Y528303D01*
X680556Y530000D01*
X680333Y531697D01*
X679678Y533278D01*
X678636Y534636D01*
X677569Y535455D01*
Y540250D01*
X683000D01*
Y553250D01*
X665000D01*
Y553000D01*
X647500D01*
Y540000D01*
X665500D01*
Y540250D01*
X670431D01*
Y535455D01*
X669364Y534636D01*
X668545Y533569D01*
X665500D01*
Y538000D01*
X652500D01*
Y521750D01*
X652500D01*
Y503750D01*
X654833D01*
X655456Y502250D01*
X654916Y500947D01*
X654693Y499250D01*
X654916Y497553D01*
X655571Y495972D01*
X656613Y494614D01*
X657971Y493572D01*
X659552Y492918D01*
X661249Y492694D01*
X662582Y492870D01*
X706475Y448977D01*
X707633Y448203D01*
X708999Y447932D01*
X731247D01*
X731469Y446432D01*
X729620Y445871D01*
X725364Y443596D01*
X721633Y440534D01*
X718572Y436803D01*
X716297Y432547D01*
X714896Y427929D01*
X714423Y423126D01*
X714896Y418323D01*
X716297Y413705D01*
X718572Y409449D01*
X721633Y405718D01*
X725364Y402656D01*
X726257Y402179D01*
X725893Y400724D01*
X242190D01*
X241825Y402179D01*
X242719Y402656D01*
X246449Y405718D01*
X249511Y409449D01*
X251786Y413705D01*
X253187Y418323D01*
X253660Y423126D01*
X253187Y427929D01*
X251786Y432547D01*
X249511Y436803D01*
X246449Y440534D01*
X242719Y443596D01*
X238462Y445871D01*
X233844Y447271D01*
X229041Y447744D01*
X224238Y447271D01*
X219620Y445871D01*
X215364Y443596D01*
X211633Y440534D01*
X208572Y436803D01*
X206297Y432547D01*
X204896Y427929D01*
X204423Y423126D01*
X204896Y418323D01*
X206297Y413705D01*
X208572Y409449D01*
X211633Y405718D01*
X215364Y402656D01*
X216257Y402179D01*
X215893Y400724D01*
X98486D01*
X52598Y446612D01*
Y589900D01*
X74900D01*
Y589900D01*
X75900D01*
Y589900D01*
X99900D01*
Y595902D01*
X130500D01*
X132451Y596290D01*
X134105Y597395D01*
X141607Y604898D01*
X142712Y606552D01*
X143101Y608503D01*
Y608861D01*
X148749Y614510D01*
X148759Y614511D01*
X150340Y615166D01*
X151698Y616208D01*
X152739Y617566D01*
X153394Y619147D01*
X153618Y620844D01*
X153394Y622541D01*
X152739Y624122D01*
X151698Y625480D01*
X150340Y626522D01*
X148759Y627177D01*
X147062Y627400D01*
X145365Y627177D01*
X143784Y626522D01*
X142426Y625480D01*
X141384Y624122D01*
X140729Y622541D01*
X140506Y620844D01*
X140524Y620704D01*
X134398Y614578D01*
X133293Y612924D01*
X132905Y610973D01*
Y610614D01*
X128388Y606098D01*
X99900D01*
Y613400D01*
X99900Y614900D01*
X99900Y615400D01*
Y638900D01*
X76400D01*
X74900Y638900D01*
X74399Y638900D01*
X52598D01*
Y640500D01*
X74500D01*
Y640500D01*
X75500D01*
Y640500D01*
X99500D01*
Y649922D01*
X193691D01*
X194472Y649322D01*
X196053Y648667D01*
X197750Y648444D01*
X199447Y648667D01*
X201028Y649322D01*
X201181Y649440D01*
X202681Y648700D01*
Y619978D01*
X135022Y552319D01*
X98205D01*
X97386Y553386D01*
X96028Y554428D01*
X94447Y555083D01*
X92750Y555306D01*
X91053Y555083D01*
X89472Y554428D01*
X88114Y553386D01*
X87072Y552028D01*
X86417Y550447D01*
X86194Y548750D01*
X86417Y547053D01*
X87072Y545472D01*
X88114Y544114D01*
X89472Y543072D01*
X91053Y542417D01*
X92750Y542194D01*
X94447Y542417D01*
X96028Y543072D01*
X97386Y544114D01*
X98205Y545181D01*
X136500D01*
X137866Y545453D01*
X139023Y546227D01*
X208773Y615977D01*
X209911Y615070D01*
X209309Y613616D01*
X208897Y610484D01*
X209309Y607351D01*
X210518Y604432D01*
X212442Y601925D01*
X214948Y600001D01*
X217868Y598792D01*
X219785Y598540D01*
Y597027D01*
X217868Y596775D01*
X214948Y595565D01*
X212442Y593642D01*
X210518Y591135D01*
X209309Y588216D01*
X208897Y585084D01*
X209309Y581951D01*
X210518Y579032D01*
X212442Y576525D01*
X214948Y574602D01*
X217868Y573392D01*
X221000Y572980D01*
X224133Y573392D01*
X227052Y574602D01*
X229559Y576525D01*
X231482Y579032D01*
X232691Y581951D01*
X233104Y585084D01*
X232691Y588216D01*
X231482Y591135D01*
X229559Y593642D01*
X227052Y595565D01*
X224133Y596775D01*
X222216Y597027D01*
Y598540D01*
X224133Y598792D01*
X227052Y600001D01*
X229559Y601925D01*
X231482Y604432D01*
X232691Y607351D01*
X233104Y610484D01*
X232691Y613616D01*
X231482Y616535D01*
X229559Y619042D01*
X227052Y620965D01*
X224133Y622175D01*
X222216Y622427D01*
Y623940D01*
X224133Y624192D01*
X227052Y625401D01*
X229559Y627325D01*
X231482Y629832D01*
X232691Y632751D01*
X233104Y635883D01*
X232691Y639016D01*
X231482Y641935D01*
X229559Y644442D01*
X227052Y646366D01*
X224133Y647575D01*
X222216Y647827D01*
Y649340D01*
X224133Y649592D01*
X227052Y650801D01*
X229559Y652725D01*
X231482Y655232D01*
X232691Y658151D01*
X233104Y661283D01*
X232960Y662371D01*
X234381Y663072D01*
X236227Y661227D01*
X237384Y660453D01*
X238750Y660181D01*
X337022D01*
X432477Y564727D01*
X433634Y563953D01*
X435000Y563681D01*
X445045D01*
X445864Y562614D01*
X447222Y561572D01*
X448803Y560917D01*
X450500Y560694D01*
X452197Y560917D01*
X453778Y561572D01*
X455136Y562614D01*
X456178Y563972D01*
X456833Y565553D01*
X457056Y567250D01*
X456833Y568947D01*
X456178Y570528D01*
X455136Y571886D01*
X453778Y572928D01*
X452197Y573583D01*
X450500Y573806D01*
X448803Y573583D01*
X447222Y572928D01*
X445864Y571886D01*
X445045Y570819D01*
X436478D01*
X394501Y612796D01*
X395075Y614181D01*
X452738D01*
X452817Y614078D01*
X454175Y613036D01*
X455756Y612381D01*
X457453Y612158D01*
X459150Y612381D01*
X460731Y613036D01*
X462089Y614078D01*
X463131Y615436D01*
X463786Y617017D01*
X464009Y618714D01*
X463786Y620411D01*
X463131Y621992D01*
X462089Y623350D01*
X460731Y624392D01*
X459150Y625047D01*
X457453Y625270D01*
X455756Y625047D01*
X454175Y624392D01*
X452817Y623350D01*
X451776Y621992D01*
X451497Y621319D01*
X394269D01*
X388292Y627296D01*
X388866Y628681D01*
X468557D01*
X473476Y623762D01*
X472950Y622167D01*
X471818Y621942D01*
X470247Y620892D01*
X466358Y617003D01*
X465308Y615432D01*
X464939Y613578D01*
X465308Y611725D01*
X466358Y610154D01*
X475904Y600608D01*
X477475Y599558D01*
X479328Y599189D01*
X481182Y599558D01*
X482753Y600608D01*
X486642Y604497D01*
X487692Y606068D01*
X488060Y607922D01*
X487841Y609027D01*
X487906Y609264D01*
X488828Y610402D01*
X488965Y610477D01*
X505296D01*
X506662Y610749D01*
X507819Y611523D01*
X583523Y687227D01*
X584297Y688384D01*
X584569Y689750D01*
Y729272D01*
X590228Y734931D01*
X613022D01*
X639681Y708272D01*
Y644955D01*
X638614Y644136D01*
X638146Y643526D01*
X636458Y643681D01*
X635416Y645039D01*
X634058Y646080D01*
X632477Y646735D01*
X630780Y646959D01*
X629084Y646735D01*
X627502Y646080D01*
X626144Y645039D01*
X625838Y644639D01*
X623964Y644661D01*
X623587Y645151D01*
X622230Y646193D01*
X620648Y646848D01*
X618952Y647072D01*
X617255Y646848D01*
X615674Y646193D01*
X614316Y645151D01*
X613274Y643793D01*
X612619Y642212D01*
X612396Y640515D01*
X612619Y638819D01*
X613274Y637237D01*
X614316Y635880D01*
X615674Y634838D01*
X617255Y634183D01*
X618952Y633959D01*
X619639Y634050D01*
X619874Y633699D01*
X620681Y632891D01*
Y557799D01*
X553227Y490344D01*
X551444Y490253D01*
X551382Y491836D01*
X571523Y511977D01*
X572297Y513134D01*
X572569Y514500D01*
Y599951D01*
X581981Y609363D01*
X603045D01*
X603864Y608296D01*
X605222Y607254D01*
X606803Y606599D01*
X608500Y606375D01*
X610197Y606599D01*
X611778Y607254D01*
X613136Y608296D01*
X614178Y609653D01*
X614833Y611235D01*
X615056Y612931D01*
X614833Y614628D01*
X614178Y616209D01*
X613136Y617567D01*
X611778Y618609D01*
X610197Y619264D01*
X608500Y619487D01*
X606803Y619264D01*
X605222Y618609D01*
X603864Y617567D01*
X603045Y616500D01*
X582951D01*
X582377Y617886D01*
X606523Y642032D01*
X607297Y643190D01*
X607569Y644556D01*
Y717684D01*
X609232Y717903D01*
X610813Y718558D01*
X612171Y719600D01*
X613213Y720958D01*
X613867Y722539D01*
X614091Y724236D01*
X613867Y725933D01*
X613213Y727514D01*
X612171Y728872D01*
X610813Y729914D01*
X609232Y730569D01*
X607535Y730792D01*
X605838Y730569D01*
X604257Y729914D01*
X602899Y728872D01*
X601857Y727514D01*
X601202Y725933D01*
X601182Y725781D01*
X600057Y725102D01*
X599578Y725089D01*
X599538Y725141D01*
X599333Y726697D01*
X598678Y728278D01*
X597636Y729636D01*
X596278Y730678D01*
X594697Y731333D01*
X593000Y731556D01*
X591303Y731333D01*
X589722Y730678D01*
X588364Y729636D01*
X587322Y728278D01*
X586667Y726697D01*
X586444Y725000D01*
X586667Y723303D01*
X587322Y721722D01*
X588364Y720364D01*
X589722Y719322D01*
X591303Y718667D01*
X593000Y718444D01*
X594334Y718620D01*
X595431Y717522D01*
Y649478D01*
X555477Y609523D01*
X554703Y608366D01*
X554431Y607000D01*
Y519728D01*
X530227Y495523D01*
X529453Y494366D01*
X529181Y493000D01*
Y431728D01*
X523272Y425819D01*
X516422D01*
X516128Y426528D01*
X515086Y427886D01*
X513729Y428928D01*
X512147Y429583D01*
X510451Y429806D01*
X508754Y429583D01*
X507173Y428928D01*
X505815Y427886D01*
X504773Y426528D01*
X504479Y425819D01*
X483978D01*
X433773Y476023D01*
X432616Y476797D01*
X431250Y477069D01*
X418705D01*
X417886Y478136D01*
X416528Y479178D01*
X414947Y479833D01*
X413250Y480056D01*
X411553Y479833D01*
X409972Y479178D01*
X408614Y478136D01*
X407572Y476778D01*
X406917Y475197D01*
X406694Y473500D01*
X406917Y471803D01*
X407572Y470222D01*
X408614Y468864D01*
X409972Y467822D01*
X411553Y467167D01*
X413250Y466944D01*
X414169Y467065D01*
X414846Y466101D01*
X415025Y465665D01*
X414417Y464197D01*
X414194Y462500D01*
X414417Y460803D01*
X415072Y459222D01*
X416114Y457864D01*
X417472Y456822D01*
X419053Y456167D01*
X420750Y455944D01*
X422447Y456167D01*
X424028Y456822D01*
X425386Y457864D01*
X426205Y458931D01*
X427640D01*
X427938Y457431D01*
X426722Y456928D01*
X425364Y455886D01*
X424322Y454528D01*
X423667Y452947D01*
X423444Y451250D01*
X423667Y449553D01*
X424322Y447972D01*
X425364Y446614D01*
X426722Y445572D01*
X428303Y444917D01*
X430000Y444694D01*
X431697Y444917D01*
X432114Y445090D01*
X470477Y406727D01*
X471635Y405953D01*
X473000Y405681D01*
X536250D01*
X537616Y405953D01*
X538773Y406727D01*
X558523Y426477D01*
X559297Y427634D01*
X559569Y429000D01*
Y437987D01*
X560386Y438614D01*
X561428Y439972D01*
X562083Y441553D01*
X562306Y443250D01*
X562083Y444947D01*
X561761Y445724D01*
X562909Y446872D01*
X563403Y446667D01*
X565100Y446444D01*
X566797Y446667D01*
X568378Y447322D01*
X569736Y448364D01*
X570778Y449722D01*
X571433Y451303D01*
X571656Y453000D01*
X571433Y454697D01*
X570778Y456278D01*
X569736Y457636D01*
X568669Y458455D01*
Y488622D01*
X631773Y551727D01*
X632547Y552884D01*
X632819Y554250D01*
Y634211D01*
X634058Y634725D01*
X635416Y635767D01*
X635884Y636377D01*
X637572Y636222D01*
X638614Y634864D01*
X639972Y633822D01*
X641553Y633167D01*
X643250Y632944D01*
X644947Y633167D01*
X646528Y633822D01*
X647886Y634864D01*
X648928Y636222D01*
X649583Y637803D01*
X649806Y639500D01*
X649583Y641197D01*
X648928Y642778D01*
X647886Y644136D01*
X646819Y644955D01*
Y709750D01*
X646547Y711116D01*
X645773Y712273D01*
X617023Y741023D01*
X615866Y741797D01*
X614500Y742069D01*
X588750D01*
X587384Y741797D01*
X586227Y741023D01*
X578477Y733273D01*
X577703Y732116D01*
X577431Y730750D01*
Y691228D01*
X503818Y617615D01*
X501719D01*
X501145Y619000D01*
X502905Y620761D01*
X503955Y622332D01*
X504324Y624185D01*
X503955Y626039D01*
X502905Y627610D01*
X493359Y637156D01*
X491788Y638205D01*
X489935Y638574D01*
X488081Y638205D01*
X486510Y637156D01*
X482621Y633267D01*
X481571Y631695D01*
X481203Y629842D01*
X481571Y627989D01*
X481785Y627668D01*
X480620Y626712D01*
X472559Y634773D01*
X471401Y635547D01*
X470203Y635785D01*
X469718Y636585D01*
X469473Y637176D01*
X481416Y649119D01*
X482750Y648944D01*
X484447Y649167D01*
X486028Y649822D01*
X487386Y650864D01*
X488428Y652222D01*
X489083Y653803D01*
X489306Y655500D01*
X489083Y657197D01*
X488900Y657639D01*
X489593Y658851D01*
X489896Y659154D01*
X493673Y662931D01*
X487825Y668779D01*
X483745Y664699D01*
X485371Y663073D01*
X484521Y661802D01*
X484447Y661833D01*
X482750Y662056D01*
X481053Y661833D01*
X479472Y661178D01*
X478114Y660136D01*
X477072Y658778D01*
X476417Y657197D01*
X476194Y655500D01*
X476370Y654166D01*
X463022Y640819D01*
X398734D01*
X398071Y642319D01*
X398583Y643553D01*
X398806Y645250D01*
X398583Y646947D01*
X397928Y648528D01*
X396886Y649886D01*
X396819Y649937D01*
Y667314D01*
X396547Y668679D01*
X395773Y669837D01*
X389515Y676095D01*
X390107Y677625D01*
X391342Y678136D01*
X392700Y679178D01*
X393741Y680536D01*
X394396Y682117D01*
X394620Y683814D01*
X394396Y685510D01*
X393741Y687092D01*
X392713Y688432D01*
X392700Y688451D01*
X392718Y690326D01*
X393093Y690614D01*
X394134Y691972D01*
X394790Y693553D01*
X395013Y695250D01*
X394790Y696947D01*
X394134Y698528D01*
X393093Y699886D01*
X391735Y700928D01*
X390154Y701583D01*
X388457Y701806D01*
X386760Y701583D01*
X385179Y700928D01*
X383926Y699967D01*
X382580D01*
X379251Y703296D01*
X379825Y704681D01*
X392630D01*
X393448Y703614D01*
X394806Y702572D01*
X396387Y701917D01*
X398084Y701694D01*
X399781Y701917D01*
X401362Y702572D01*
X402720Y703614D01*
X403762Y704972D01*
X404417Y706553D01*
X404640Y708250D01*
X404417Y709947D01*
X403762Y711528D01*
X402720Y712886D01*
X401362Y713928D01*
X399781Y714583D01*
X398084Y714806D01*
X396387Y714583D01*
X394806Y713928D01*
X393448Y712886D01*
X392630Y711819D01*
X377870D01*
X308569Y781120D01*
Y852172D01*
X310852Y853118D01*
X313358Y855042D01*
X315282Y857548D01*
X316491Y860467D01*
X316744Y862385D01*
X318256D01*
X318509Y860467D01*
X319718Y857548D01*
X321642Y855042D01*
X324148Y853118D01*
X327067Y851909D01*
X330200Y851496D01*
X333333Y851909D01*
X336252Y853118D01*
X338759Y855042D01*
X340682Y857548D01*
X341891Y860467D01*
X342144Y862384D01*
X343657D01*
X343909Y860467D01*
X345118Y857548D01*
X347042Y855042D01*
X349548Y853118D01*
X352467Y851909D01*
X355600Y851496D01*
X358733Y851909D01*
X361652Y853118D01*
X364159Y855042D01*
X366082Y857548D01*
X367291Y860467D01*
X368783Y860326D01*
X370046Y857276D01*
X372056Y854656D01*
X374676Y852646D01*
X377727Y851383D01*
X379730Y851119D01*
Y863600D01*
X382270D01*
Y851119D01*
X384274Y851383D01*
X387324Y852646D01*
X389944Y854656D01*
X391954Y857276D01*
X392902Y859565D01*
X394402Y859267D01*
Y772750D01*
X394790Y770799D01*
X395895Y769145D01*
X457828Y707213D01*
X459482Y706108D01*
X461432Y705720D01*
X472445D01*
X472452Y705714D01*
X474034Y705059D01*
X475413Y704877D01*
X492406Y687884D01*
X491715Y687192D01*
X504442Y674464D01*
X505434Y675456D01*
X513581Y667309D01*
X512464Y666192D01*
X525192Y653464D01*
X534385Y662657D01*
X521657Y675385D01*
X520791Y674518D01*
X512644Y682665D01*
X513635Y683657D01*
X500907Y696385D01*
X499616Y695094D01*
X482130Y712579D01*
X482063Y713088D01*
X481408Y714670D01*
X480366Y716027D01*
X479008Y717069D01*
X477427Y717724D01*
X475730Y717948D01*
X474034Y717724D01*
X472452Y717069D01*
X471095Y716027D01*
X471009Y715916D01*
X463544D01*
X408043Y771416D01*
X408617Y772802D01*
X429032D01*
Y791302D01*
X429032Y792802D01*
X429032Y793302D01*
Y811302D01*
X429032Y812802D01*
X429032Y813302D01*
Y831302D01*
X429032Y832802D01*
X429032Y833302D01*
Y838734D01*
X446220D01*
X475181Y809772D01*
Y754250D01*
X475453Y752884D01*
X476227Y751727D01*
X522977Y704977D01*
X524134Y704203D01*
X525500Y703931D01*
X549750D01*
X551116Y704203D01*
X552273Y704977D01*
X566453Y719156D01*
X567786Y718980D01*
X569483Y719204D01*
X571064Y719859D01*
X572422Y720900D01*
X573464Y722258D01*
X574119Y723839D01*
X574342Y725536D01*
X574119Y727233D01*
X573464Y728814D01*
X572422Y730172D01*
X571064Y731214D01*
X569483Y731869D01*
X567786Y732092D01*
X566090Y731869D01*
X564508Y731214D01*
X563150Y730172D01*
X562109Y728814D01*
X562094Y728779D01*
X561628Y728614D01*
X560408Y728629D01*
X559636Y729636D01*
X558278Y730678D01*
X556697Y731333D01*
X555000Y731556D01*
X553303Y731333D01*
X551722Y730678D01*
X550364Y729636D01*
X549510Y728523D01*
X548538Y728464D01*
X547844Y728628D01*
X547678Y729028D01*
X546636Y730386D01*
X545278Y731428D01*
X543697Y732083D01*
X542000Y732306D01*
X540303Y732083D01*
X538722Y731428D01*
X537787Y730711D01*
X536097Y730841D01*
X536617Y732549D01*
X537278Y732822D01*
X538636Y733864D01*
X539678Y735222D01*
X540333Y736803D01*
X540556Y738500D01*
X540333Y740197D01*
X539678Y741778D01*
X538636Y743136D01*
X537278Y744178D01*
X535697Y744833D01*
X534000Y745056D01*
X533569Y745434D01*
Y774425D01*
X534954Y774999D01*
X536119Y773834D01*
X535944Y772500D01*
X536167Y770803D01*
X536822Y769222D01*
X537864Y767864D01*
X539222Y766822D01*
X540803Y766167D01*
X542500Y765944D01*
X544197Y766167D01*
X545778Y766822D01*
X547136Y767864D01*
X548178Y769222D01*
X548833Y770803D01*
X549056Y772500D01*
X548833Y774197D01*
X548178Y775778D01*
X547136Y777136D01*
X545778Y778178D01*
X544197Y778833D01*
X542500Y779056D01*
X541166Y778880D01*
X539069Y780978D01*
Y830772D01*
X547030Y838734D01*
X570032D01*
Y833302D01*
X570032Y831802D01*
X570032Y831302D01*
Y813302D01*
X570032Y811802D01*
X570032Y811302D01*
Y793618D01*
X569492Y792342D01*
X569492Y791526D01*
Y783572D01*
X582032D01*
X594572D01*
Y791526D01*
X594572Y792342D01*
X594032Y793618D01*
Y811302D01*
X594032Y812802D01*
X594032Y813302D01*
Y831302D01*
X594032Y832802D01*
X594032Y833302D01*
Y851802D01*
X594032D01*
Y852802D01*
X594032D01*
Y871802D01*
X594032D01*
Y872802D01*
X594032D01*
Y891802D01*
X594032D01*
Y892802D01*
X594032D01*
Y910986D01*
X594572Y912262D01*
X594572Y913078D01*
Y921032D01*
D02*
G37*
G36*
Y781032D02*
X583302D01*
Y772262D01*
X594572D01*
Y781032D01*
D02*
G37*
G36*
X580762D02*
X569492D01*
Y772262D01*
X580762D01*
Y781032D01*
D02*
G37*
G36*
X735000Y799875D02*
X731215Y799377D01*
X727687Y797916D01*
X724659Y795592D01*
X722334Y792562D01*
X720873Y789035D01*
X720375Y785250D01*
X720873Y781465D01*
X722334Y777937D01*
X724659Y774909D01*
X727687Y772584D01*
X731215Y771123D01*
X735000Y770625D01*
X738785Y771123D01*
X742313Y772584D01*
X745341Y774909D01*
X747666Y777937D01*
X749127Y781465D01*
X749625Y785250D01*
X749127Y789035D01*
X747666Y792562D01*
X745341Y795592D01*
X742313Y797916D01*
X738785Y799377D01*
X735000Y799875D01*
D02*
G37*
G36*
X921074Y735666D02*
X911844D01*
Y719270D01*
X935740D01*
Y721000D01*
X935240Y724796D01*
X933775Y728333D01*
X931444Y731370D01*
X928407Y733701D01*
X924870Y735166D01*
X921074Y735666D01*
D02*
G37*
G36*
X909304D02*
X900074D01*
X896279Y735166D01*
X892741Y733701D01*
X889704Y731370D01*
X887374Y728333D01*
X885908Y724796D01*
X885409Y721000D01*
Y719270D01*
X909304D01*
Y735666D01*
D02*
G37*
G36*
X935740Y716730D02*
X911844D01*
Y700334D01*
X921074D01*
X924870Y700834D01*
X928407Y702299D01*
X931444Y704630D01*
X933775Y707667D01*
X935240Y711204D01*
X935740Y715000D01*
Y716730D01*
D02*
G37*
G36*
X909304D02*
X885409D01*
Y715000D01*
X885908Y711204D01*
X887374Y707667D01*
X889704Y704630D01*
X892741Y702299D01*
X896279Y700834D01*
X900074Y700334D01*
X909304D01*
Y716730D01*
D02*
G37*
G36*
X739041Y747745D02*
X734239Y747271D01*
X729620Y745871D01*
X725364Y743596D01*
X721633Y740534D01*
X718572Y736803D01*
X716297Y732547D01*
X714896Y727929D01*
X714423Y723126D01*
X714896Y718323D01*
X716297Y713705D01*
X718572Y709449D01*
X721633Y705718D01*
X725364Y702656D01*
X729620Y700381D01*
X734239Y698980D01*
X739041Y698507D01*
X743844Y698980D01*
X748462Y700381D01*
X752719Y702656D01*
X756449Y705718D01*
X759511Y709449D01*
X761786Y713705D01*
X763187Y718323D01*
X763660Y723126D01*
X763187Y727929D01*
X761786Y732547D01*
X759511Y736803D01*
X756449Y740534D01*
X752719Y743596D01*
X748462Y745871D01*
X743844Y747271D01*
X739041Y747745D01*
D02*
G37*
G36*
X486058Y682299D02*
X481978Y678219D01*
X487825Y672371D01*
X491905Y676451D01*
X486058Y682299D01*
D02*
G37*
G36*
X480182Y676423D02*
X476102Y672343D01*
X481949Y666495D01*
X486029Y670575D01*
X480182Y676423D01*
D02*
G37*
G36*
X493701Y674655D02*
X489621Y670575D01*
X495469Y664727D01*
X499549Y668808D01*
X493701Y674655D01*
D02*
G37*
G36*
X893442Y668430D02*
X883744D01*
Y658732D01*
X885356Y658944D01*
X888042Y660056D01*
X890348Y661826D01*
X892118Y664132D01*
X893230Y666818D01*
X893442Y668430D01*
D02*
G37*
G36*
X506808Y661299D02*
X502728Y657219D01*
X508576Y651372D01*
X512655Y655452D01*
X506808Y661299D01*
D02*
G37*
G36*
X882474Y655291D02*
X879733Y654930D01*
X877179Y653872D01*
X874986Y652189D01*
X873303Y649995D01*
X873224Y649807D01*
X871724D01*
X871646Y649995D01*
X869963Y652189D01*
X867769Y653872D01*
X865215Y654930D01*
X862474Y655291D01*
X859733Y654930D01*
X857179Y653872D01*
X854986Y652189D01*
X853303Y649995D01*
X852244Y647441D01*
X851884Y644700D01*
X852244Y641959D01*
X853303Y639405D01*
X854986Y637211D01*
X857179Y635528D01*
X859733Y634470D01*
X862474Y634110D01*
X865215Y634470D01*
X867769Y635528D01*
X869963Y637211D01*
X871646Y639405D01*
X871724Y639594D01*
X873224D01*
X873303Y639405D01*
X874986Y637211D01*
X877179Y635528D01*
X879733Y634470D01*
X882474Y634110D01*
X885215Y634470D01*
X887769Y635528D01*
X889963Y637211D01*
X891646Y639405D01*
X892704Y641959D01*
X893065Y644700D01*
X892704Y647441D01*
X891646Y649995D01*
X889963Y652189D01*
X887769Y653872D01*
X885215Y654930D01*
X882474Y655291D01*
D02*
G37*
G36*
X500932Y655423D02*
X496852Y651343D01*
X502700Y645496D01*
X506780Y649576D01*
X500932Y655423D01*
D02*
G37*
G36*
X580015Y655071D02*
X578319Y654848D01*
X576737Y654193D01*
X575380Y653151D01*
X574338Y651794D01*
X573683Y650212D01*
X573459Y648515D01*
X573635Y647182D01*
X571497Y645044D01*
X566657Y649885D01*
X557465Y640692D01*
X570192Y627965D01*
X579385Y637157D01*
X576544Y639997D01*
X578682Y642135D01*
X580015Y641959D01*
X581712Y642183D01*
X583293Y642838D01*
X584651Y643880D01*
X585693Y645237D01*
X586348Y646819D01*
X586572Y648515D01*
X586348Y650212D01*
X585693Y651794D01*
X584651Y653151D01*
X583293Y654193D01*
X581712Y654848D01*
X580015Y655071D01*
D02*
G37*
G36*
X514452Y653655D02*
X510372Y649576D01*
X516219Y643728D01*
X520299Y647808D01*
X514452Y653655D01*
D02*
G37*
G36*
X508576Y647779D02*
X504496Y643699D01*
X510343Y637852D01*
X514423Y641932D01*
X508576Y647779D01*
D02*
G37*
G36*
X551808Y635799D02*
X547728Y631719D01*
X553575Y625871D01*
X557655Y629951D01*
X551808Y635799D01*
D02*
G37*
G36*
X545932Y629923D02*
X541852Y625843D01*
X547699Y619995D01*
X551779Y624075D01*
X545932Y629923D01*
D02*
G37*
G36*
X559451Y628155D02*
X555372Y624075D01*
X561219Y618228D01*
X565299Y622308D01*
X559451Y628155D01*
D02*
G37*
G36*
X553575Y622279D02*
X549495Y618199D01*
X555343Y612351D01*
X559423Y616432D01*
X553575Y622279D01*
D02*
G37*
G36*
X920074Y614665D02*
X910844D01*
Y598270D01*
X934740D01*
Y600000D01*
X934240Y603796D01*
X932775Y607333D01*
X930444Y610370D01*
X927407Y612701D01*
X923870Y614166D01*
X920074Y614665D01*
D02*
G37*
G36*
X908305D02*
X899074D01*
X895279Y614166D01*
X891742Y612701D01*
X888704Y610370D01*
X886374Y607333D01*
X884909Y603796D01*
X884409Y600000D01*
Y598270D01*
X908305D01*
Y614665D01*
D02*
G37*
G36*
X516098Y612411D02*
X514244Y612043D01*
X512673Y610993D01*
X508784Y607104D01*
X507734Y605532D01*
X507366Y603679D01*
X507734Y601826D01*
X508784Y600255D01*
X518330Y590709D01*
X519901Y589659D01*
X521754Y589290D01*
X523608Y589659D01*
X525179Y590709D01*
X529068Y594598D01*
X530118Y596169D01*
X530487Y598022D01*
X530118Y599875D01*
X529068Y601447D01*
X519522Y610993D01*
X517951Y612043D01*
X516098Y612411D01*
D02*
G37*
G36*
X934740Y595730D02*
X910844D01*
Y579334D01*
X920074D01*
X923870Y579834D01*
X927407Y581299D01*
X930444Y583630D01*
X932775Y586667D01*
X934240Y590204D01*
X934740Y594000D01*
Y595730D01*
D02*
G37*
G36*
X908305D02*
X884409D01*
Y594000D01*
X884909Y590204D01*
X886374Y586667D01*
X888704Y583630D01*
X891742Y581299D01*
X895279Y579834D01*
X899074Y579334D01*
X908305D01*
Y595730D01*
D02*
G37*
G36*
X499835Y596147D02*
X497981Y595779D01*
X496410Y594729D01*
X492521Y590840D01*
X491471Y589269D01*
X491102Y587415D01*
X491471Y585562D01*
X492521Y583991D01*
X502067Y574445D01*
X503638Y573395D01*
X505491Y573027D01*
X507345Y573395D01*
X508916Y574445D01*
X512805Y578334D01*
X513855Y579905D01*
X514224Y581759D01*
X513855Y583612D01*
X512805Y585183D01*
X503259Y594729D01*
X501688Y595779D01*
X499835Y596147D01*
D02*
G37*
G36*
X683540Y574790D02*
X675270D01*
Y569020D01*
X683540D01*
Y574790D01*
D02*
G37*
G36*
X655230Y574540D02*
X646960D01*
Y568770D01*
X655230D01*
Y574540D01*
D02*
G37*
G36*
X735000Y874875D02*
X731215Y874377D01*
X727687Y872916D01*
X724659Y870592D01*
X722334Y867563D01*
X720873Y864035D01*
X720375Y860250D01*
X720873Y856465D01*
X722334Y852937D01*
X724659Y849909D01*
X727687Y847584D01*
X731215Y846123D01*
X735000Y845625D01*
X738785Y846123D01*
X739586Y846455D01*
X772402Y813639D01*
Y688500D01*
X772790Y686549D01*
X773895Y684895D01*
X839145Y619645D01*
X840799Y618540D01*
X842750Y618152D01*
X925638D01*
X944652Y599138D01*
Y570507D01*
X941739Y567594D01*
X939197Y567928D01*
X936587Y567585D01*
X934154Y566577D01*
X932065Y564974D01*
X930462Y562885D01*
X929454Y560452D01*
X929111Y557842D01*
X929454Y555232D01*
X930462Y552799D01*
X932065Y550710D01*
X934154Y549107D01*
X936587Y548099D01*
X939197Y547756D01*
X941807Y548099D01*
X944240Y549107D01*
X946329Y550710D01*
X947932Y552799D01*
X948940Y555232D01*
X949283Y557842D01*
X948949Y560384D01*
X953355Y564790D01*
X954460Y566444D01*
X954848Y568395D01*
Y601250D01*
X954460Y603201D01*
X953355Y604855D01*
X931355Y626855D01*
X929701Y627960D01*
X927750Y628348D01*
X844862D01*
X782598Y690612D01*
Y815751D01*
X782210Y817701D01*
X781105Y819355D01*
X747604Y852857D01*
X747666Y852937D01*
X749127Y856465D01*
X749625Y860250D01*
X749127Y864035D01*
X747666Y867563D01*
X745341Y870592D01*
X742313Y872916D01*
X738785Y874377D01*
X735000Y874875D01*
D02*
G37*
G36*
X332500Y602082D02*
X330020Y601755D01*
X327709Y600798D01*
X325724Y599275D01*
X324202Y597291D01*
X323245Y594980D01*
X322918Y592500D01*
X323245Y590020D01*
X324202Y587709D01*
X325724Y585724D01*
X327709Y584202D01*
X328122Y584031D01*
Y582407D01*
X327707Y582235D01*
X325618Y580632D01*
X324015Y578543D01*
X323007Y576110D01*
X322664Y573500D01*
X323007Y570890D01*
X324015Y568457D01*
X325618Y566368D01*
X327707Y564765D01*
X330140Y563757D01*
X332750Y563414D01*
X335360Y563757D01*
X337793Y564765D01*
X339882Y566368D01*
X341485Y568457D01*
X342493Y570890D01*
X342836Y573500D01*
X342493Y576110D01*
X341485Y578543D01*
X339882Y580632D01*
X337793Y582235D01*
X337128Y582511D01*
Y584134D01*
X337291Y584202D01*
X339275Y585724D01*
X340798Y587709D01*
X341755Y590020D01*
X342082Y592500D01*
X341755Y594980D01*
X340798Y597291D01*
X339275Y599275D01*
X337291Y600798D01*
X334980Y601755D01*
X332500Y602082D01*
D02*
G37*
G36*
X859695Y585954D02*
X856432Y585524D01*
X853391Y584265D01*
X850780Y582261D01*
X848776Y579650D01*
X847517Y576609D01*
X847087Y573346D01*
X847517Y570083D01*
X848776Y567042D01*
X850780Y564431D01*
X853391Y562427D01*
X856432Y561168D01*
X859695Y560738D01*
X862958Y561168D01*
X865999Y562427D01*
X868610Y564431D01*
X870614Y567042D01*
X871873Y570083D01*
X872303Y573346D01*
X871873Y576609D01*
X870614Y579650D01*
X868610Y582261D01*
X865999Y584265D01*
X862958Y585524D01*
X859695Y585954D01*
D02*
G37*
G36*
X683540Y566480D02*
X675270D01*
Y560710D01*
X683540D01*
Y566480D01*
D02*
G37*
G36*
X672730Y574790D02*
X664460D01*
Y574540D01*
X657770D01*
Y567500D01*
Y560460D01*
X666040D01*
Y560710D01*
X672730D01*
Y567750D01*
Y574790D01*
D02*
G37*
G36*
X655230Y566230D02*
X646960D01*
Y560460D01*
X655230D01*
Y566230D01*
D02*
G37*
G36*
X581876Y598744D02*
X580179Y598520D01*
X578598Y597865D01*
X577240Y596823D01*
X576198Y595466D01*
X575543Y593884D01*
X575320Y592188D01*
X575543Y590491D01*
X576198Y588909D01*
X577240Y587552D01*
X578244Y586781D01*
Y565253D01*
X577114Y564386D01*
X576072Y563028D01*
X575417Y561447D01*
X575194Y559750D01*
X575417Y558053D01*
X576072Y556472D01*
X577114Y555114D01*
X578472Y554072D01*
X580053Y553417D01*
X581750Y553194D01*
X583447Y553417D01*
X585028Y554072D01*
X586386Y555114D01*
X586514Y555282D01*
X588405D01*
X588534Y555114D01*
X589891Y554072D01*
X591473Y553417D01*
X593169Y553194D01*
X594866Y553417D01*
X596447Y554072D01*
X597805Y555114D01*
X598256Y555701D01*
X600075D01*
X600526Y555114D01*
X601883Y554072D01*
X603465Y553417D01*
X605161Y553194D01*
X606858Y553417D01*
X608439Y554072D01*
X609797Y555114D01*
X610839Y556472D01*
X611494Y558053D01*
X611717Y559750D01*
X611494Y561447D01*
X610839Y563028D01*
X609797Y564386D01*
X608707Y565223D01*
Y577090D01*
X609751Y577892D01*
X610793Y579249D01*
X611447Y580830D01*
X611671Y582527D01*
X611447Y584224D01*
X610793Y585805D01*
X609751Y587163D01*
X608393Y588205D01*
X606812Y588860D01*
X605115Y589083D01*
X603418Y588860D01*
X601837Y588205D01*
X601171Y587694D01*
X601002Y587704D01*
X599631Y588403D01*
X599489Y589479D01*
X598834Y591060D01*
X597792Y592418D01*
X596434Y593460D01*
X594853Y594115D01*
X593156Y594338D01*
X591460Y594115D01*
X589878Y593460D01*
X589786Y593389D01*
X588366Y593835D01*
X588150Y594025D01*
X587553Y595466D01*
X586511Y596823D01*
X585154Y597865D01*
X583573Y598520D01*
X581876Y598744D01*
D02*
G37*
G36*
X540750Y620555D02*
X539053Y620331D01*
X537472Y619676D01*
X536114Y618634D01*
X535072Y617277D01*
X534417Y615695D01*
X534194Y613999D01*
X534417Y612302D01*
X535072Y610720D01*
X536114Y609363D01*
X537472Y608321D01*
X537806Y608182D01*
Y560455D01*
X536739Y559636D01*
X535697Y558278D01*
X535042Y556697D01*
X534819Y555000D01*
X535042Y553303D01*
X535697Y551722D01*
X536739Y550364D01*
X538097Y549322D01*
X539678Y548667D01*
X541375Y548444D01*
X543072Y548667D01*
X544653Y549322D01*
X546011Y550364D01*
X547053Y551722D01*
X547708Y553303D01*
X547931Y555000D01*
X547708Y556697D01*
X547053Y558278D01*
X546011Y559636D01*
X544944Y560455D01*
Y609023D01*
X545386Y609363D01*
X546428Y610720D01*
X547083Y612302D01*
X547306Y613999D01*
X547083Y615695D01*
X546428Y617277D01*
X545386Y618634D01*
X544028Y619676D01*
X542447Y620331D01*
X540750Y620555D01*
D02*
G37*
G36*
X475787Y557893D02*
X474090Y557669D01*
X472509Y557014D01*
X471151Y555973D01*
X470332Y554905D01*
X431087D01*
X429721Y554634D01*
X428563Y553860D01*
X340022Y465319D01*
X188687D01*
X178270Y475736D01*
X177113Y476510D01*
X175747Y476781D01*
X153216D01*
Y479963D01*
X134215D01*
Y465963D01*
X153216D01*
Y469644D01*
X174269D01*
X184686Y459227D01*
X185844Y458453D01*
X187209Y458181D01*
X341500D01*
X342866Y458453D01*
X344023Y459227D01*
X432565Y547768D01*
X470332D01*
X471151Y546701D01*
X472509Y545659D01*
X474090Y545004D01*
X475787Y544781D01*
X477484Y545004D01*
X479065Y545659D01*
X480423Y546701D01*
X481465Y548059D01*
X482120Y549640D01*
X482343Y551337D01*
X482120Y553033D01*
X481465Y554615D01*
X480423Y555973D01*
X479065Y557014D01*
X477484Y557669D01*
X475787Y557893D01*
D02*
G37*
G36*
X259290Y536290D02*
X251020D01*
Y530520D01*
X259290D01*
Y536290D01*
D02*
G37*
G36*
X248480D02*
X240210D01*
Y530520D01*
X248480D01*
Y536290D01*
D02*
G37*
G36*
X645040Y538540D02*
X639270D01*
Y530270D01*
X645040D01*
Y538540D01*
D02*
G37*
G36*
X636730D02*
X630960D01*
Y530270D01*
X636730D01*
Y538540D01*
D02*
G37*
G36*
X939197Y542528D02*
X936587Y542185D01*
X934154Y541177D01*
X932065Y539574D01*
X930462Y537485D01*
X929454Y535052D01*
X929111Y532442D01*
X929454Y529832D01*
X930462Y527399D01*
X932065Y525310D01*
X934154Y523707D01*
X936587Y522699D01*
X939197Y522356D01*
X941807Y522699D01*
X944240Y523707D01*
X946329Y525310D01*
X947932Y527399D01*
X948940Y529832D01*
X949283Y532442D01*
X948940Y535052D01*
X947932Y537485D01*
X946329Y539574D01*
X944240Y541177D01*
X941807Y542185D01*
X939197Y542528D01*
D02*
G37*
G36*
X259290Y527980D02*
X251020D01*
Y522210D01*
X259290D01*
Y527980D01*
D02*
G37*
G36*
X248480D02*
X240210D01*
Y522210D01*
X248480D01*
Y527980D01*
D02*
G37*
G36*
X645040Y527730D02*
X638000D01*
X630960D01*
Y522290D01*
X630960D01*
Y514020D01*
X638000D01*
X645040D01*
Y519460D01*
X645040D01*
Y527730D01*
D02*
G37*
G36*
X333500Y532082D02*
X331020Y531756D01*
X328709Y530798D01*
X326724Y529276D01*
X325201Y527291D01*
X324244Y524980D01*
X323918Y522500D01*
X324244Y520020D01*
X325201Y517709D01*
X326724Y515725D01*
X328709Y514202D01*
X331020Y513245D01*
X333500Y512918D01*
X335980Y513245D01*
X338291Y514202D01*
X340275Y515725D01*
X341798Y517709D01*
X342755Y520020D01*
X343082Y522500D01*
X342755Y524980D01*
X341798Y527291D01*
X340275Y529276D01*
X338291Y530798D01*
X335980Y531756D01*
X333500Y532082D01*
D02*
G37*
G36*
X645040Y511480D02*
X639270D01*
Y503210D01*
X645040D01*
Y511480D01*
D02*
G37*
G36*
X636730D02*
X630960D01*
Y503210D01*
X636730D01*
Y511480D01*
D02*
G37*
G36*
X827970Y510401D02*
Y502216D01*
X836155D01*
X835994Y503436D01*
X835033Y505757D01*
X833504Y507750D01*
X831511Y509279D01*
X829190Y510240D01*
X827970Y510401D01*
D02*
G37*
G36*
X825430Y510401D02*
X824210Y510240D01*
X821889Y509279D01*
X819896Y507750D01*
X818367Y505757D01*
X817405Y503436D01*
X817245Y502216D01*
X825430D01*
Y510401D01*
D02*
G37*
G36*
X221000Y570853D02*
X217868Y570441D01*
X214948Y569232D01*
X212442Y567308D01*
X210518Y564802D01*
X209309Y561882D01*
X208897Y558750D01*
X209309Y555617D01*
X210518Y552698D01*
X212442Y550191D01*
X214948Y548268D01*
X217216Y547328D01*
Y545705D01*
X214948Y544766D01*
X212442Y542842D01*
X210518Y540335D01*
X209309Y537416D01*
X208897Y534283D01*
X209309Y531151D01*
X210518Y528232D01*
X212442Y525725D01*
X214948Y523801D01*
X217868Y522592D01*
X219785Y522340D01*
Y520827D01*
X217868Y520575D01*
X214948Y519366D01*
X212442Y517442D01*
X210518Y514935D01*
X210123Y513982D01*
X133136D01*
X131185Y513593D01*
X129531Y512488D01*
X97006Y479963D01*
X85216D01*
Y478479D01*
X76185D01*
Y480299D01*
X58185D01*
Y467299D01*
X76185D01*
Y468283D01*
X85216D01*
Y465963D01*
X104215D01*
Y472753D01*
X135248Y503786D01*
X210123D01*
X210518Y502832D01*
X212442Y500325D01*
X214948Y498401D01*
X217868Y497192D01*
X217727Y495701D01*
X214676Y494437D01*
X212057Y492427D01*
X210047Y489808D01*
X208783Y486757D01*
X208519Y484753D01*
X221000D01*
X233481D01*
X233217Y486757D01*
X231954Y489808D01*
X229944Y492427D01*
X227324Y494437D01*
X224274Y495701D01*
X224133Y497192D01*
X227052Y498401D01*
X229559Y500325D01*
X231482Y502832D01*
X231694Y503344D01*
X240750D01*
Y501750D01*
X258750D01*
Y514750D01*
X240750D01*
Y513540D01*
X232060D01*
X231482Y514935D01*
X229559Y517442D01*
X227052Y519366D01*
X224133Y520575D01*
X222216Y520827D01*
Y522340D01*
X224133Y522592D01*
X227052Y523801D01*
X229559Y525725D01*
X231482Y528232D01*
X232691Y531151D01*
X233104Y534283D01*
X232691Y537416D01*
X231482Y540335D01*
X229559Y542842D01*
X227052Y544766D01*
X224784Y545705D01*
Y547328D01*
X227052Y548268D01*
X229559Y550191D01*
X231482Y552698D01*
X232691Y555617D01*
X233104Y558750D01*
X232691Y561882D01*
X231482Y564802D01*
X229559Y567308D01*
X227052Y569232D01*
X224133Y570441D01*
X221000Y570853D01*
D02*
G37*
G36*
X836155Y499676D02*
X827970D01*
Y491491D01*
X829190Y491651D01*
X831511Y492613D01*
X833504Y494142D01*
X835033Y496135D01*
X835994Y498456D01*
X836155Y499676D01*
D02*
G37*
G36*
X825430D02*
X817245D01*
X817405Y498456D01*
X818367Y496135D01*
X819896Y494142D01*
X821889Y492613D01*
X824210Y491651D01*
X825430Y491491D01*
Y499676D01*
D02*
G37*
G36*
X801300Y497324D02*
X798951Y497014D01*
X796761Y496107D01*
X794881Y494665D01*
X793438Y492785D01*
X792532Y490596D01*
X792222Y488246D01*
X792532Y485896D01*
X793438Y483707D01*
X794881Y481827D01*
X796761Y480384D01*
X798951Y479478D01*
X801300Y479168D01*
X803649Y479478D01*
X805839Y480384D01*
X807719Y481827D01*
X809161Y483707D01*
X810068Y485896D01*
X810378Y488246D01*
X810068Y490596D01*
X809161Y492785D01*
X807719Y494665D01*
X805839Y496107D01*
X803649Y497014D01*
X801300Y497324D01*
D02*
G37*
G36*
X827970Y485001D02*
Y476816D01*
X836155D01*
X835994Y478036D01*
X835033Y480357D01*
X833504Y482350D01*
X831511Y483879D01*
X829190Y484840D01*
X827970Y485001D01*
D02*
G37*
G36*
X825430Y485001D02*
X824210Y484840D01*
X821889Y483879D01*
X819896Y482350D01*
X818367Y480357D01*
X817405Y478036D01*
X817245Y476816D01*
X825430D01*
Y485001D01*
D02*
G37*
G36*
X233481Y482214D02*
X222270D01*
Y471003D01*
X224274Y471266D01*
X227324Y472530D01*
X229944Y474540D01*
X231954Y477159D01*
X233217Y480210D01*
X233481Y482214D01*
D02*
G37*
G36*
X219730D02*
X208519D01*
X208783Y480210D01*
X210047Y477159D01*
X212057Y474540D01*
X214676Y472530D01*
X217727Y471266D01*
X219730Y471003D01*
Y482214D01*
D02*
G37*
G36*
X836155Y474276D02*
X827970D01*
Y466091D01*
X829190Y466251D01*
X831511Y467213D01*
X833504Y468742D01*
X835033Y470735D01*
X835994Y473055D01*
X836155Y474276D01*
D02*
G37*
G36*
X825430D02*
X817245D01*
X817405Y473055D01*
X818367Y470735D01*
X819896Y468742D01*
X821889Y467213D01*
X824210Y466251D01*
X825430Y466091D01*
Y474276D01*
D02*
G37*
G36*
X76725Y459839D02*
X68455D01*
Y454069D01*
X76725D01*
Y459839D01*
D02*
G37*
G36*
X65915D02*
X57645D01*
Y454069D01*
X65915D01*
Y459839D01*
D02*
G37*
G36*
X801300Y471924D02*
X798951Y471614D01*
X796761Y470707D01*
X794881Y469265D01*
X793438Y467385D01*
X792532Y465196D01*
X792222Y462846D01*
X792532Y460496D01*
X793438Y458307D01*
X794881Y456427D01*
X796761Y454985D01*
X798951Y454078D01*
X801300Y453768D01*
X803649Y454078D01*
X805839Y454985D01*
X807719Y456427D01*
X809161Y458307D01*
X810068Y460496D01*
X810378Y462846D01*
X810068Y465196D01*
X809161Y467385D01*
X807719Y469265D01*
X805839Y470707D01*
X803649Y471614D01*
X801300Y471924D01*
D02*
G37*
G36*
X939197Y466836D02*
X936587Y466493D01*
X934154Y465485D01*
X932065Y463882D01*
X930462Y461793D01*
X929454Y459361D01*
X929111Y456750D01*
X929454Y454140D01*
X930462Y451707D01*
X932065Y449618D01*
X934154Y448015D01*
X936587Y447007D01*
X939197Y446664D01*
X941807Y447007D01*
X944240Y448015D01*
X946329Y449618D01*
X947932Y451707D01*
X948940Y454140D01*
X949283Y456750D01*
X948940Y459361D01*
X947932Y461793D01*
X946329Y463882D01*
X944240Y465485D01*
X941807Y466493D01*
X939197Y466836D01*
D02*
G37*
G36*
X76725Y451529D02*
X68455D01*
Y445759D01*
X76725D01*
Y451529D01*
D02*
G37*
G36*
X65915D02*
X57645D01*
Y445759D01*
X65915D01*
Y451529D01*
D02*
G37*
G36*
X153756Y448503D02*
X144986D01*
Y442233D01*
X153756D01*
Y448503D01*
D02*
G37*
G36*
X142445D02*
X133675D01*
Y442233D01*
X142445D01*
Y448503D01*
D02*
G37*
G36*
X104215Y447963D02*
X85216D01*
Y433963D01*
X104215D01*
Y447963D01*
D02*
G37*
G36*
X153756Y439693D02*
X144986D01*
Y433423D01*
X153756D01*
Y439693D01*
D02*
G37*
G36*
X142445D02*
X133675D01*
Y433423D01*
X142445D01*
Y439693D01*
D02*
G37*
G36*
X939197Y441436D02*
X936587Y441093D01*
X934154Y440085D01*
X932065Y438482D01*
X930462Y436393D01*
X929454Y433960D01*
X929111Y431350D01*
X929454Y428740D01*
X930462Y426307D01*
X932065Y424218D01*
X934154Y422615D01*
X936587Y421607D01*
X939197Y421264D01*
X941807Y421607D01*
X944240Y422615D01*
X946329Y424218D01*
X947932Y426307D01*
X948940Y428740D01*
X949283Y431350D01*
X948940Y433960D01*
X947932Y436393D01*
X946329Y438482D01*
X944240Y440085D01*
X941807Y441093D01*
X939197Y441436D01*
D02*
G37*
G36*
X890200Y455784D02*
X886622Y455432D01*
X883182Y454388D01*
X880012Y452694D01*
X877233Y450413D01*
X874952Y447634D01*
X873258Y444464D01*
X872214Y441024D01*
X871862Y437446D01*
X872214Y433868D01*
X873258Y430428D01*
X874952Y427258D01*
X877233Y424479D01*
X880012Y422198D01*
X883182Y420504D01*
X886622Y419460D01*
X890200Y419108D01*
X893778Y419460D01*
X897218Y420504D01*
X900388Y422198D01*
X903167Y424479D01*
X905448Y427258D01*
X907142Y430428D01*
X908186Y433868D01*
X908538Y437446D01*
X908186Y441024D01*
X907142Y444464D01*
X905448Y447634D01*
X903167Y450413D01*
X900388Y452694D01*
X897218Y454388D01*
X893778Y455432D01*
X890200Y455784D01*
D02*
G37*
G36*
X859695Y428454D02*
X856432Y428024D01*
X853391Y426765D01*
X850780Y424761D01*
X848776Y422150D01*
X847517Y419109D01*
X847087Y415846D01*
X847517Y412583D01*
X848776Y409542D01*
X850780Y406931D01*
X853391Y404927D01*
X856432Y403668D01*
X859695Y403238D01*
X862958Y403668D01*
X865999Y404927D01*
X868610Y406931D01*
X870614Y409542D01*
X871873Y412583D01*
X872303Y415846D01*
X871873Y419109D01*
X870614Y422150D01*
X868610Y424761D01*
X865999Y426765D01*
X862958Y428024D01*
X859695Y428454D01*
D02*
G37*
G36*
X911000Y362000D02*
X898500D01*
Y358828D01*
X896064D01*
X895636Y359386D01*
X894278Y360428D01*
X892697Y361083D01*
X891000Y361306D01*
X889303Y361083D01*
X887722Y360428D01*
X886364Y359386D01*
X885322Y358028D01*
X884667Y356447D01*
X884444Y354750D01*
X884667Y353053D01*
X885322Y351472D01*
X886364Y350114D01*
X887722Y349072D01*
X889303Y348417D01*
X891000Y348194D01*
X892697Y348417D01*
X894278Y349072D01*
X895636Y350114D01*
X896064Y350672D01*
X898500D01*
Y344500D01*
X911000D01*
Y362000D01*
D02*
G37*
G36*
X933000D02*
X920500D01*
Y344500D01*
X933000D01*
Y350172D01*
X941628D01*
X941864Y349864D01*
X943222Y348822D01*
X944803Y348167D01*
X946500Y347944D01*
X948197Y348167D01*
X949778Y348822D01*
X951136Y349864D01*
X952178Y351222D01*
X952833Y352803D01*
X953056Y354500D01*
X952833Y356197D01*
X952178Y357778D01*
X951136Y359136D01*
X949778Y360178D01*
X948197Y360833D01*
X946500Y361056D01*
X944803Y360833D01*
X943222Y360178D01*
X941864Y359136D01*
X941245Y358328D01*
X933000D01*
Y362000D01*
D02*
G37*
G36*
X358757Y386811D02*
X80743D01*
X79377Y386539D01*
X78219Y385766D01*
X71953Y379500D01*
X62500D01*
Y358500D01*
X66431D01*
Y295500D01*
X62500D01*
Y274500D01*
X77500D01*
Y295500D01*
X73569D01*
Y358500D01*
X77500D01*
Y372655D01*
X77569Y373000D01*
Y375022D01*
X82221Y379674D01*
X106072D01*
X107500Y379500D01*
X107500Y378174D01*
Y358500D01*
X111431D01*
Y352238D01*
X110364Y351419D01*
X109322Y350061D01*
X108667Y348480D01*
X108444Y346783D01*
X108667Y345086D01*
X109322Y343505D01*
X110364Y342147D01*
X111431Y341328D01*
Y295500D01*
X107500D01*
Y274500D01*
X122500D01*
Y295500D01*
X118569D01*
Y341328D01*
X119636Y342147D01*
X120678Y343505D01*
X121333Y345086D01*
X121556Y346783D01*
X121333Y348480D01*
X120678Y350061D01*
X119636Y351419D01*
X118569Y352238D01*
Y358500D01*
X122500D01*
Y378174D01*
X122500Y379500D01*
X123928Y379674D01*
X136072D01*
X137500Y379500D01*
Y358500D01*
X141431D01*
Y295500D01*
X137500D01*
Y274500D01*
X152500D01*
Y295500D01*
X148568D01*
Y358500D01*
X152500D01*
Y379500D01*
X153928Y379674D01*
X181072D01*
X182500Y379500D01*
X182500Y378174D01*
Y358500D01*
X186431D01*
Y352238D01*
X185364Y351419D01*
X184322Y350061D01*
X183667Y348480D01*
X183444Y346783D01*
X183667Y345086D01*
X184322Y343505D01*
X185364Y342147D01*
X186431Y341328D01*
Y295500D01*
X182500D01*
Y274500D01*
X197500D01*
Y295500D01*
X193569D01*
Y341328D01*
X194636Y342147D01*
X195678Y343505D01*
X196333Y345086D01*
X196556Y346783D01*
X196333Y348480D01*
X195678Y350061D01*
X194636Y351419D01*
X193569Y352238D01*
Y358500D01*
X197500D01*
Y378174D01*
X197500Y379500D01*
X198928Y379674D01*
X211072D01*
X212500Y379500D01*
Y358500D01*
X216431D01*
Y295500D01*
X212500D01*
Y274500D01*
X227500D01*
Y295500D01*
X223568D01*
Y358500D01*
X227500D01*
Y379500D01*
X228928Y379674D01*
X256072D01*
X257500Y379500D01*
X257500Y378174D01*
Y358500D01*
X261431D01*
Y352238D01*
X260364Y351419D01*
X259322Y350061D01*
X258667Y348480D01*
X258444Y346783D01*
X258667Y345086D01*
X259322Y343505D01*
X260364Y342147D01*
X261431Y341328D01*
Y295500D01*
X257500D01*
Y274500D01*
X272500D01*
Y295500D01*
X268569D01*
Y341328D01*
X269636Y342147D01*
X270678Y343505D01*
X271333Y345086D01*
X271556Y346783D01*
X271333Y348480D01*
X270678Y350061D01*
X269636Y351419D01*
X268569Y352238D01*
Y358500D01*
X272500D01*
Y378174D01*
X272500Y379500D01*
X273928Y379674D01*
X286072D01*
X287500Y379500D01*
Y358500D01*
X291431D01*
Y295500D01*
X287500D01*
Y274500D01*
X302500D01*
Y295500D01*
X298569D01*
Y358500D01*
X302500D01*
Y379500D01*
X303928Y379674D01*
X331072D01*
X332500Y379500D01*
X332500Y378174D01*
Y358500D01*
X336432D01*
Y352238D01*
X335364Y351419D01*
X334322Y350061D01*
X333667Y348480D01*
X333444Y346783D01*
X333667Y345086D01*
X334322Y343505D01*
X335364Y342147D01*
X336432Y341328D01*
Y295500D01*
X332500D01*
Y274500D01*
X347500D01*
Y295500D01*
X343569D01*
Y341328D01*
X344636Y342147D01*
X345678Y343505D01*
X346333Y345086D01*
X346556Y346783D01*
X346333Y348480D01*
X345678Y350061D01*
X344636Y351419D01*
X343569Y352238D01*
Y358500D01*
X347500D01*
Y378174D01*
X347500Y379500D01*
X348928Y379674D01*
X357279D01*
X362500Y374453D01*
Y358500D01*
X366431D01*
Y352238D01*
X365364Y351419D01*
X364322Y350061D01*
X363667Y348480D01*
X363444Y346783D01*
X363667Y345086D01*
X364322Y343505D01*
X365364Y342147D01*
X366431Y341328D01*
Y295500D01*
X362500D01*
Y274500D01*
X377500D01*
Y295500D01*
X373568D01*
Y341328D01*
X374636Y342147D01*
X375678Y343505D01*
X376333Y345086D01*
X376556Y346783D01*
X376333Y348480D01*
X375678Y350061D01*
X374636Y351419D01*
X373568Y352238D01*
Y358500D01*
X377500D01*
Y379500D01*
X367547D01*
X361281Y385766D01*
X360123Y386539D01*
X358757Y386811D01*
D02*
G37*
G36*
X647500Y379500D02*
X632500D01*
Y358500D01*
X636431D01*
Y352238D01*
X635364Y351419D01*
X634322Y350061D01*
X633667Y348480D01*
X633444Y346783D01*
X633667Y345086D01*
X634322Y343505D01*
X635364Y342147D01*
X636431Y341328D01*
Y295500D01*
X632500D01*
Y274500D01*
X647500D01*
Y295500D01*
X643569D01*
Y341328D01*
X644636Y342147D01*
X645678Y343505D01*
X646333Y345086D01*
X646556Y346783D01*
X646333Y348480D01*
X645678Y350061D01*
X644636Y351419D01*
X643569Y352238D01*
Y358500D01*
X647500D01*
Y379500D01*
D02*
G37*
G36*
X572500D02*
X557500D01*
Y358500D01*
X561431D01*
Y352238D01*
X560364Y351419D01*
X559322Y350061D01*
X558667Y348480D01*
X558444Y346783D01*
X558667Y345086D01*
X559322Y343505D01*
X560364Y342147D01*
X561431Y341328D01*
Y295500D01*
X557500D01*
Y274500D01*
X572500D01*
Y295500D01*
X568569D01*
Y341328D01*
X569636Y342147D01*
X570678Y343505D01*
X571333Y345086D01*
X571556Y346783D01*
X571333Y348480D01*
X570678Y350061D01*
X569636Y351419D01*
X568569Y352238D01*
Y358500D01*
X572500D01*
Y379500D01*
D02*
G37*
G36*
X497500D02*
X482500D01*
Y358500D01*
X486431D01*
Y352238D01*
X485364Y351419D01*
X484322Y350061D01*
X483667Y348480D01*
X483444Y346783D01*
X483667Y345086D01*
X484322Y343505D01*
X485364Y342147D01*
X486431Y341328D01*
Y295500D01*
X482500D01*
Y274500D01*
X497500D01*
Y295500D01*
X493569D01*
Y341328D01*
X494636Y342147D01*
X495678Y343505D01*
X496333Y345086D01*
X496556Y346783D01*
X496333Y348480D01*
X495678Y350061D01*
X494636Y351419D01*
X493569Y352238D01*
Y358500D01*
X497500D01*
Y379500D01*
D02*
G37*
G36*
X786250Y379569D02*
X785905Y379500D01*
X782750D01*
Y376345D01*
X782681Y376000D01*
X782750Y375655D01*
Y358500D01*
X786431D01*
Y352238D01*
X785364Y351419D01*
X784322Y350061D01*
X783667Y348480D01*
X783444Y346783D01*
X783667Y345086D01*
X784322Y343505D01*
X785364Y342147D01*
X786431Y341328D01*
Y295500D01*
X782750D01*
Y274500D01*
X797750D01*
Y295500D01*
X793569D01*
Y341328D01*
X794636Y342147D01*
X795678Y343505D01*
X796333Y345086D01*
X796556Y346783D01*
X796333Y348480D01*
X795678Y350061D01*
X794636Y351419D01*
X793569Y352238D01*
Y358500D01*
X797750D01*
Y379500D01*
X786595D01*
X786250Y379569D01*
D02*
G37*
G36*
X677500Y379500D02*
X662500D01*
Y358500D01*
X666431D01*
Y295500D01*
X662500D01*
Y274500D01*
X666431D01*
Y271069D01*
X598569D01*
Y274500D01*
X602500D01*
Y295500D01*
X598569D01*
Y358500D01*
X602500D01*
Y379500D01*
X587500D01*
Y358500D01*
X591431D01*
Y295500D01*
X587500D01*
Y274500D01*
X591431D01*
Y271069D01*
X547961D01*
X547913Y271430D01*
X547258Y273011D01*
X546216Y274369D01*
X544859Y275411D01*
X543278Y276066D01*
X541581Y276289D01*
X539884Y276066D01*
X538303Y275411D01*
X536945Y274369D01*
X535903Y273011D01*
X535248Y271430D01*
X535200Y271069D01*
X523568D01*
Y274500D01*
X527500D01*
Y295500D01*
X523568D01*
Y358500D01*
X527500D01*
Y379500D01*
X512500D01*
Y358500D01*
X516431D01*
Y295500D01*
X512500D01*
Y274500D01*
X516431D01*
Y271069D01*
X460978D01*
X452500Y279547D01*
Y295500D01*
X448568D01*
Y358500D01*
X452500D01*
Y379500D01*
X437500D01*
Y358500D01*
X441431D01*
Y295500D01*
X437500D01*
Y274500D01*
X447453D01*
X456977Y264977D01*
X458134Y264203D01*
X459500Y263931D01*
X538602D01*
X539884Y263400D01*
X541581Y263177D01*
X543278Y263400D01*
X544559Y263931D01*
X730000D01*
X731366Y264203D01*
X732523Y264977D01*
X742047Y274500D01*
X752750D01*
Y295500D01*
X748819D01*
Y358500D01*
X752750D01*
Y379500D01*
X737750D01*
Y358500D01*
X741681D01*
Y295500D01*
X737750D01*
Y280297D01*
X728522Y271069D01*
X673568D01*
Y274500D01*
X677500D01*
Y295500D01*
X673568D01*
Y358500D01*
X677500D01*
Y379500D01*
D02*
G37*
G36*
X674145Y257667D02*
X659145D01*
Y236667D01*
X663931D01*
Y224238D01*
X662864Y223419D01*
X661822Y222061D01*
X661167Y220480D01*
X660944Y218783D01*
X661167Y217086D01*
X661822Y215505D01*
X662864Y214147D01*
X663931Y213328D01*
Y173667D01*
X659145D01*
Y152667D01*
X674145D01*
Y173667D01*
X671069D01*
Y213328D01*
X672136Y214147D01*
X673178Y215505D01*
X673833Y217086D01*
X674056Y218783D01*
X673833Y220480D01*
X673178Y222061D01*
X672136Y223419D01*
X671069Y224238D01*
Y236667D01*
X674145D01*
Y257667D01*
D02*
G37*
G36*
X599145D02*
X584145D01*
Y236667D01*
X588931D01*
Y224238D01*
X587864Y223419D01*
X586822Y222061D01*
X586167Y220480D01*
X585944Y218783D01*
X586167Y217086D01*
X586822Y215505D01*
X587864Y214147D01*
X588931Y213328D01*
Y173667D01*
X584145D01*
Y152667D01*
X599145D01*
Y173667D01*
X596069D01*
Y213328D01*
X597136Y214147D01*
X598178Y215505D01*
X598833Y217086D01*
X599056Y218783D01*
X598833Y220480D01*
X598178Y222061D01*
X597136Y223419D01*
X596069Y224238D01*
Y236667D01*
X599145D01*
Y257667D01*
D02*
G37*
G36*
X524145D02*
X509145D01*
Y236667D01*
X513931D01*
Y224238D01*
X512864Y223419D01*
X511822Y222061D01*
X511167Y220480D01*
X510944Y218783D01*
X511167Y217086D01*
X511822Y215505D01*
X512864Y214147D01*
X513931Y213328D01*
Y173667D01*
X509145D01*
Y152667D01*
X524145D01*
Y173667D01*
X521069D01*
Y213328D01*
X522136Y214147D01*
X523178Y215505D01*
X523833Y217086D01*
X524056Y218783D01*
X523833Y220480D01*
X523178Y222061D01*
X522136Y223419D01*
X521069Y224238D01*
Y236667D01*
X524145D01*
Y257667D01*
D02*
G37*
G36*
X422500Y379500D02*
X407500D01*
Y358500D01*
X411431D01*
Y295500D01*
X407500D01*
Y274500D01*
X417453D01*
X433232Y258722D01*
X434145Y257667D01*
X434145D01*
X434145Y257667D01*
Y236667D01*
X438931D01*
Y224238D01*
X437864Y223419D01*
X436822Y222061D01*
X436167Y220480D01*
X435944Y218783D01*
X436167Y217086D01*
X436822Y215505D01*
X437864Y214147D01*
X438931Y213328D01*
Y173667D01*
X434145D01*
Y152667D01*
X449145D01*
Y173667D01*
X446069D01*
Y213328D01*
X447136Y214147D01*
X448178Y215505D01*
X448833Y217086D01*
X449056Y218783D01*
X448833Y220480D01*
X448178Y222061D01*
X447136Y223419D01*
X446069Y224238D01*
Y236667D01*
X449145D01*
Y257667D01*
X442159D01*
Y258410D01*
X441887Y259775D01*
X441114Y260933D01*
X422500Y279547D01*
Y295500D01*
X418569D01*
Y358500D01*
X422500D01*
Y379500D01*
D02*
G37*
G36*
X750000Y257000D02*
X735000D01*
Y236000D01*
X738931D01*
Y224238D01*
X737864Y223419D01*
X736822Y222061D01*
X736167Y220480D01*
X735944Y218783D01*
X736167Y217086D01*
X736822Y215505D01*
X737864Y214147D01*
X738931Y213328D01*
Y173000D01*
X735000D01*
Y152000D01*
X750000D01*
Y173000D01*
X746069D01*
Y213328D01*
X747136Y214147D01*
X748178Y215505D01*
X748833Y217086D01*
X749056Y218783D01*
X748833Y220480D01*
X748178Y222061D01*
X747136Y223419D01*
X746069Y224238D01*
Y236000D01*
X750000D01*
Y251145D01*
X750069Y251490D01*
Y252500D01*
X750000Y252845D01*
Y257000D01*
D02*
G37*
G36*
X957500Y286000D02*
X942500D01*
Y265000D01*
X946431D01*
Y202000D01*
X942500D01*
Y181000D01*
X946431D01*
Y176978D01*
X913022Y143569D01*
X892955D01*
X892136Y144636D01*
X890778Y145678D01*
X889197Y146333D01*
X887500Y146556D01*
X885803Y146333D01*
X884222Y145678D01*
X882864Y144636D01*
X881822Y143278D01*
X881167Y141697D01*
X880944Y140000D01*
X881167Y138303D01*
X881822Y136722D01*
X882864Y135364D01*
X884222Y134322D01*
X885803Y133667D01*
X887500Y133444D01*
X889197Y133667D01*
X890778Y134322D01*
X892136Y135364D01*
X892955Y136431D01*
X914500D01*
X915866Y136703D01*
X917023Y137477D01*
X952523Y172977D01*
X953297Y174134D01*
X953569Y175500D01*
Y181000D01*
X957500D01*
Y202000D01*
X953569D01*
Y265000D01*
X957500D01*
Y286000D01*
D02*
G37*
G36*
X877500Y219500D02*
X862500D01*
Y198500D01*
X866431D01*
Y190455D01*
X865364Y189636D01*
X864322Y188278D01*
X863667Y186697D01*
X863444Y185000D01*
X863667Y183303D01*
X864322Y181722D01*
X865364Y180364D01*
X866431Y179545D01*
Y135500D01*
X862500D01*
Y114500D01*
X877500D01*
Y135500D01*
X873569D01*
Y179545D01*
X874636Y180364D01*
X875678Y181722D01*
X876333Y183303D01*
X876556Y185000D01*
X876333Y186697D01*
X875678Y188278D01*
X874636Y189636D01*
X873569Y190455D01*
Y198500D01*
X877500D01*
Y219500D01*
D02*
G37*
G36*
X925000Y102083D02*
X920763Y101750D01*
X916631Y100758D01*
X912704Y99131D01*
X909081Y96911D01*
X905849Y94151D01*
X903089Y90919D01*
X900869Y87296D01*
X899242Y83369D01*
X898250Y79237D01*
X897917Y75000D01*
X898250Y70763D01*
X899242Y66631D01*
X900869Y62704D01*
X903089Y59081D01*
X905849Y55849D01*
X909081Y53089D01*
X912704Y50868D01*
X916631Y49242D01*
X920763Y48250D01*
X925000Y47916D01*
X929237Y48250D01*
X933369Y49242D01*
X937296Y50868D01*
X940919Y53089D01*
X944151Y55849D01*
X946911Y59081D01*
X949132Y62704D01*
X950758Y66631D01*
X951750Y70763D01*
X952084Y75000D01*
X951750Y79237D01*
X950758Y83369D01*
X949132Y87296D01*
X946911Y90919D01*
X944151Y94151D01*
X940919Y96911D01*
X937296Y99131D01*
X933369Y100758D01*
X929237Y101750D01*
X925000Y102083D01*
D02*
G37*
G36*
X75000D02*
X70763Y101750D01*
X66631Y100758D01*
X62704Y99131D01*
X59081Y96911D01*
X55849Y94151D01*
X53089Y90919D01*
X50868Y87296D01*
X49242Y83369D01*
X48250Y79237D01*
X47916Y75000D01*
X48250Y70763D01*
X49242Y66631D01*
X50868Y62704D01*
X53089Y59081D01*
X55849Y55849D01*
X59081Y53089D01*
X62704Y50868D01*
X66631Y49242D01*
X70763Y48250D01*
X75000Y47916D01*
X79237Y48250D01*
X83369Y49242D01*
X87296Y50868D01*
X90919Y53089D01*
X94151Y55849D01*
X96911Y59081D01*
X99131Y62704D01*
X100758Y66631D01*
X101750Y70763D01*
X102083Y75000D01*
X101750Y79237D01*
X100758Y83369D01*
X99131Y87296D01*
X96911Y90919D01*
X94151Y94151D01*
X90919Y96911D01*
X87296Y99131D01*
X83369Y100758D01*
X79237Y101750D01*
X75000Y102083D01*
D02*
G37*
G36*
X322552Y137925D02*
X307552D01*
Y116925D01*
X310960D01*
Y103846D01*
X310390Y103408D01*
X309348Y102051D01*
X308693Y100469D01*
X308470Y98772D01*
X308693Y97076D01*
X309348Y95494D01*
X310390Y94137D01*
X310960Y93699D01*
Y53925D01*
X307552D01*
Y32925D01*
X322552D01*
Y53925D01*
X319117D01*
Y93719D01*
X319662Y94137D01*
X320704Y95494D01*
X321358Y97076D01*
X321582Y98772D01*
X321358Y100469D01*
X320704Y102051D01*
X319662Y103408D01*
X319117Y103826D01*
Y116925D01*
X322552D01*
Y137925D01*
D02*
G37*
G36*
X247552Y137925D02*
X232552D01*
Y116925D01*
X235947D01*
Y103856D01*
X235364Y103408D01*
X234322Y102051D01*
X233667Y100469D01*
X233444Y98772D01*
X233667Y97076D01*
X234322Y95494D01*
X235364Y94137D01*
X235947Y93689D01*
Y53925D01*
X232552D01*
Y32925D01*
X247552D01*
Y53925D01*
X244104D01*
Y93729D01*
X244636Y94137D01*
X245678Y95494D01*
X246333Y97076D01*
X246556Y98772D01*
X246333Y100469D01*
X245678Y102051D01*
X244636Y103408D01*
X244104Y103816D01*
Y116627D01*
X244282D01*
X245647Y116898D01*
X245687Y116925D01*
X247552D01*
Y118790D01*
X247579Y118830D01*
X247850Y120195D01*
X247579Y121561D01*
X247552Y121601D01*
Y137925D01*
D02*
G37*
G36*
X172552D02*
X157552D01*
Y116925D01*
X161431D01*
Y104227D01*
X160364Y103408D01*
X159322Y102051D01*
X158667Y100469D01*
X158444Y98772D01*
X158667Y97076D01*
X159322Y95494D01*
X160364Y94137D01*
X161431Y93318D01*
Y53925D01*
X157552D01*
Y32925D01*
X172552D01*
Y53925D01*
X168569D01*
Y93318D01*
X169636Y94137D01*
X170678Y95494D01*
X171333Y97076D01*
X171556Y98772D01*
X171333Y100469D01*
X170678Y102051D01*
X169636Y103408D01*
X168569Y104227D01*
Y116925D01*
X172552D01*
Y137925D01*
D02*
G37*
%LPD*%
G36*
X224993Y680238D02*
X224419Y678852D01*
X215201D01*
X213836Y678580D01*
X212678Y677807D01*
X203727Y668856D01*
X202953Y667698D01*
X202681Y666332D01*
Y661300D01*
X201181Y660560D01*
X201028Y660678D01*
X199447Y661333D01*
X197750Y661556D01*
X196053Y661333D01*
X195379Y661053D01*
X194004Y662108D01*
X194056Y662500D01*
X193833Y664197D01*
X193178Y665778D01*
X192136Y667136D01*
X190778Y668178D01*
X189197Y668833D01*
X187500Y669056D01*
X185803Y668833D01*
X184222Y668178D01*
X182864Y667136D01*
X181822Y665778D01*
X181532Y665078D01*
X132439D01*
X99500Y698018D01*
Y715300D01*
X100389Y716431D01*
X188800D01*
X224993Y680238D01*
D02*
G37*
G36*
X126404Y659578D02*
X125783Y658078D01*
X99500D01*
Y664084D01*
X100040Y665360D01*
X100040Y665360D01*
X100040Y665360D01*
Y676630D01*
X87500D01*
Y679170D01*
X100040D01*
Y683983D01*
X101426Y684557D01*
X126404Y659578D01*
D02*
G37*
D10*
X734250Y461126D02*
Y486000D01*
Y461126D02*
X738876Y456500D01*
X739500D01*
X707020Y511829D02*
X711369Y507480D01*
X707020Y572108D02*
X715722Y580810D01*
X711560Y513710D02*
X713250Y512020D01*
X707020Y511829D02*
Y572108D01*
X711560Y513710D02*
Y570227D01*
X717603Y576270D01*
X725560Y469060D02*
X732762D01*
X723500Y467000D02*
X725560Y469060D01*
X745000Y563000D02*
Y565500D01*
X745000Y550000D02*
Y552500D01*
X749468Y560020D02*
X749468Y560020D01*
X747980Y560020D02*
X749468D01*
X749468Y560020D02*
X758729D01*
X745000Y563000D02*
X747980Y560020D01*
X783569Y540220D02*
X784738Y539051D01*
X758729Y560020D02*
X778529Y540220D01*
X783569D01*
X756848Y555480D02*
X777484Y534844D01*
X747980Y555480D02*
X756848D01*
X777484Y529852D02*
Y534844D01*
X745000Y552500D02*
X747980Y555480D01*
X777484Y529852D02*
X778678Y528658D01*
X745250Y519250D02*
Y534500D01*
X744750Y518750D02*
X745250Y519250D01*
Y484500D02*
Y500250D01*
X744750Y500750D02*
X745250Y500250D01*
X755568Y513757D02*
Y513821D01*
Y506177D02*
X757999Y503747D01*
X755568Y506177D02*
Y506241D01*
X744750Y516250D02*
X748731Y512269D01*
X754081Y507729D02*
X755568Y506241D01*
X744750Y500750D02*
Y503250D01*
X755568Y513821D02*
X757999Y516251D01*
X749229Y507729D02*
X754081D01*
Y512269D02*
X755568Y513757D01*
X744750Y516250D02*
Y518750D01*
X748731Y512269D02*
X754081D01*
X757999Y501999D02*
Y503747D01*
X744750Y503250D02*
X749229Y507729D01*
X757999Y516251D02*
Y517999D01*
X760753D02*
X761252Y517500D01*
X757999Y517999D02*
X760753D01*
X734250Y486000D02*
Y532762D01*
X723250Y484500D02*
X724750Y486000D01*
X734250D01*
X723500Y534250D02*
X732762D01*
X734250Y532762D01*
X723250Y534500D02*
X723500Y534250D01*
X717603Y576270D02*
X781468D01*
X783349Y580810D02*
X819640Y544519D01*
X781468Y576270D02*
X815100Y542638D01*
X715722Y580810D02*
X783349D01*
X819640Y534782D02*
Y544519D01*
Y534782D02*
X826700Y527723D01*
X801300Y539046D02*
X813612D01*
X826700Y526346D02*
Y527723D01*
X815100Y540534D02*
Y542638D01*
X813612Y539046D02*
X815100Y540534D01*
X711369Y507480D02*
X714599D01*
X713250Y512020D02*
X716480D01*
X714599Y507480D02*
X719520D01*
X714599Y507480D02*
X714599Y507480D01*
X716480Y512020D02*
X719520D01*
X723750Y516250D01*
Y518750D01*
X719520Y507480D02*
X723750Y503250D01*
Y500750D02*
Y503250D01*
X716480Y512020D02*
X716480Y512020D01*
D13*
X136500Y548750D02*
X206250Y618500D01*
X92750Y548750D02*
X136500D01*
X950000Y191500D02*
Y275500D01*
X914500Y140000D02*
X950000Y175500D01*
X887500Y140000D02*
X914500D01*
X950000Y175500D02*
Y188500D01*
Y191500D01*
X801300Y513646D02*
X801300D01*
X774000Y462843D02*
Y486346D01*
X801300Y513646D01*
X708999Y451500D02*
X767000D01*
X661249Y499250D02*
X708999Y451500D01*
X661249Y499250D02*
X661249D01*
X767000Y451500D02*
X781500Y437000D01*
X855500D01*
X913500Y495000D01*
X905000Y191500D02*
Y224750D01*
Y275500D01*
X825658Y224750D02*
X905000D01*
X825658D02*
Y240571D01*
Y209658D02*
Y224750D01*
X700000Y44675D02*
Y126517D01*
X870000Y241229D02*
X870658Y240571D01*
X870000Y241229D02*
Y277500D01*
Y323913D02*
X870658Y324571D01*
X870000Y277500D02*
Y323913D01*
X825658Y240571D02*
Y324571D01*
X570425Y638925D02*
X580015Y648515D01*
X568425Y638925D02*
X570425D01*
X581000Y689750D02*
Y730750D01*
X488239Y614046D02*
X505296D01*
X581000Y689750D01*
X618952Y639871D02*
X622397Y636426D01*
Y636222D02*
X624250Y634369D01*
X618952Y639871D02*
Y640515D01*
X629250Y635645D02*
X629632Y636028D01*
Y639255D02*
X630780Y640403D01*
X629250Y554250D02*
Y635645D01*
X629632Y636028D02*
Y639255D01*
X643250Y639500D02*
Y709750D01*
X624250Y556321D02*
Y634369D01*
X622397Y636222D02*
Y636426D01*
X464500Y637250D02*
X482750Y655500D01*
X387433Y637250D02*
X464500D01*
X470036Y632250D02*
X488239Y614046D01*
X385362Y632250D02*
X470036D01*
X392790Y617750D02*
X456489D01*
X341790Y668750D02*
X392790Y617750D01*
X456489D02*
X457453Y618714D01*
X565100Y490100D02*
X629250Y554250D01*
X555750Y487821D02*
X624250Y556321D01*
X614500Y738500D02*
X643250Y709750D01*
X57500Y822279D02*
Y882500D01*
Y798500D02*
Y822279D01*
X279400Y798100D02*
X381102Y696398D01*
X279400Y798100D02*
Y863600D01*
X381102Y696398D02*
X387309D01*
X384814Y675750D02*
X384814D01*
X393250Y667314D01*
X383538Y684962D02*
X386916D01*
X147789Y778750D02*
X281814D01*
X254000Y814500D02*
Y863600D01*
X386916Y684962D02*
X388064Y683814D01*
X254000Y814500D02*
X383538Y684962D01*
X281814Y778750D02*
X384814Y675750D01*
X393250Y646250D02*
Y667314D01*
X384102Y665148D02*
X385250Y664000D01*
X384102Y665148D02*
Y669148D01*
X148382Y773500D02*
X279750D01*
X384102Y669148D01*
X387309Y696398D02*
X388457Y695250D01*
X376392Y708250D02*
X398084D01*
X305000Y779642D02*
X376392Y708250D01*
X305000Y779642D02*
Y863400D01*
X144615Y781924D02*
X147789Y778750D01*
X142721Y781924D02*
X144615D01*
X143125Y769494D02*
X144376D01*
X148382Y773500D01*
X79200Y720000D02*
X190278D01*
X241528Y668750D01*
X338500Y663750D02*
X435000Y567250D01*
X241528Y668750D02*
X341790D01*
X262124Y673750D02*
X343862D01*
X385362Y632250D01*
X255750Y678500D02*
X257374D01*
X238750Y663750D02*
X338500D01*
X273250Y678750D02*
X345933D01*
X387433Y637250D01*
X257374Y678500D02*
X262124Y673750D01*
X265750Y686250D02*
X273250Y678750D01*
X227216Y675284D02*
X238750Y663750D01*
X392250Y645250D02*
X393250Y646250D01*
X435000Y567250D02*
X450500D01*
X206250Y618500D02*
Y666332D01*
X62500Y703300D02*
X79200Y720000D01*
X731080Y549750D02*
X733391Y552061D01*
Y556893D01*
X731743Y565500D02*
X733500Y563743D01*
X733391Y556893D02*
X734539Y558041D01*
X733500Y559080D02*
Y563743D01*
Y559080D02*
X734539Y558041D01*
X723250Y565500D02*
X731743D01*
X723500Y549750D02*
X731080D01*
X723250Y550000D02*
X723500Y549750D01*
X698750Y43425D02*
X700000Y44675D01*
X699092Y127425D02*
X700000Y126517D01*
X744092Y43425D02*
X745000Y44334D01*
Y126517D01*
X744092Y127425D02*
X745000Y126517D01*
X482500Y422250D02*
X509451D01*
X510451Y423250D01*
X511451Y422250D02*
X524750D01*
X510451Y423250D02*
X511451Y422250D01*
X332500Y577000D02*
Y592500D01*
X674000Y546750D02*
X674000Y546750D01*
X673750Y546500D02*
X674000Y546750D01*
X656500Y546500D02*
X673750D01*
X674000Y530000D02*
Y546750D01*
X660000Y530000D02*
X674000D01*
X659000Y529000D02*
X660000Y530000D01*
X659000Y512750D02*
Y529000D01*
X659000Y512750D02*
X659000Y512750D01*
X565100Y453000D02*
Y490100D01*
X555750Y443250D02*
Y487821D01*
X739500Y456500D02*
X767657D01*
X702250Y509874D02*
Y574084D01*
X698000Y505624D02*
X702250Y509874D01*
Y574084D02*
X714416Y586250D01*
X698000Y504000D02*
Y505624D01*
X534750Y725750D02*
X542000D01*
X525000Y735500D02*
X534750Y725750D01*
X478750Y754250D02*
X525500Y707500D01*
X549750D01*
X567786Y725536D01*
X528278Y712500D02*
X542500D01*
X484250Y756528D02*
X528278Y712500D01*
X542500D02*
X555000Y725000D01*
X567786Y725536D02*
Y725536D01*
X555000Y725000D02*
Y725000D01*
X581000Y730750D02*
X588750Y738500D01*
X614500D01*
X599000Y648000D02*
Y719000D01*
X558000Y518250D02*
Y607000D01*
X599000Y648000D01*
X563500Y516071D02*
Y604056D01*
X604000Y644556D02*
Y719479D01*
X563500Y604056D02*
X604000Y644556D01*
X580502Y612931D02*
X608500D01*
X569000Y514500D02*
Y601429D01*
X580502Y612931D01*
X581813Y592125D02*
X581876Y592188D01*
X581750Y559750D02*
X581813Y559813D01*
Y592125D01*
X593163Y559757D02*
X593169Y559750D01*
X593156Y587782D02*
X593163Y587776D01*
Y559757D02*
Y587776D01*
X605138Y559773D02*
X605161Y559750D01*
X605138Y559773D02*
Y582504D01*
X605115Y582527D02*
X605138Y582504D01*
X547500Y435500D02*
Y493000D01*
X555750Y443250D02*
X556000Y443000D01*
X547500Y435500D02*
X548000Y435000D01*
X556000Y429000D02*
Y443000D01*
X536250Y409250D02*
X556000Y429000D01*
X540000Y425750D02*
Y492571D01*
X563500Y516071D01*
X547500Y493000D02*
X569000Y514500D01*
X539318Y425750D02*
X540000D01*
X528818Y415250D02*
X539318Y425750D01*
X532750Y430250D02*
Y493000D01*
X524750Y422250D02*
X532750Y430250D01*
Y493000D02*
X558000Y518250D01*
X473000Y409250D02*
X536250D01*
X479750Y415250D02*
X528818D01*
X432500Y462500D02*
X479750Y415250D01*
X431250Y473500D02*
X482500Y422250D01*
X413250Y473500D02*
X431250D01*
X420750Y462500D02*
X432500D01*
X431000Y451250D02*
X473000Y409250D01*
X430000Y451250D02*
X431000D01*
X341500Y461750D02*
X431087Y551337D01*
X187209Y461750D02*
X341500D01*
X175747Y473213D02*
X187209Y461750D01*
X431087Y551337D02*
X475787D01*
X215201Y675284D02*
X227216D01*
X206250Y666332D02*
X215201Y675284D01*
X575810Y141000D02*
X576885Y139925D01*
X303988Y145925D02*
X304063Y146000D01*
X400626Y141000D02*
X575810D01*
X577881Y146000D02*
X577956Y145925D01*
X135552Y145925D02*
X303988D01*
X546645Y146000D02*
X577881D01*
X546645D02*
Y163167D01*
X390052Y130425D02*
X400626Y141000D01*
X472500Y146000D02*
Y162311D01*
X304063Y146000D02*
X472500D01*
X577956Y145925D02*
X621645D01*
X472500Y146000D02*
X546645D01*
X621645Y145925D02*
X683925D01*
X621645D02*
Y163167D01*
X604000Y719479D02*
X607535Y723013D01*
Y724236D01*
X593000Y725000D02*
X599000Y719000D01*
X767657Y456500D02*
X774000Y462843D01*
X786750Y586250D02*
X843500Y529500D01*
X906500D01*
X920942Y543942D01*
X913500Y495000D02*
X940000D01*
X554302Y862302D02*
X582032D01*
X530000Y743257D02*
Y838000D01*
X554302Y862302D01*
X525000Y735500D02*
Y847250D01*
X558039Y880289D02*
X580019D01*
X525000Y847250D02*
X558039Y880289D01*
X564802Y902302D02*
X582032D01*
X520000Y857500D02*
X564802Y902302D01*
X520000Y780000D02*
Y857500D01*
X580019Y880289D02*
X582032Y882302D01*
X535500Y832250D02*
X545552Y842302D01*
X535500Y779500D02*
Y832250D01*
X545552Y842302D02*
X582032D01*
X535500Y779500D02*
X542500Y772500D01*
X437360Y862302D02*
X484250Y815413D01*
X417032Y862302D02*
X437360D01*
X714416Y586250D02*
X786750D01*
X742500Y162500D02*
Y220000D01*
Y248500D01*
Y162500D02*
X742500Y162500D01*
X540750Y613999D02*
X541375Y613374D01*
Y555000D02*
Y613374D01*
X370000Y285000D02*
Y347500D01*
Y369000D02*
Y372000D01*
Y347500D02*
Y369000D01*
X769523Y139963D02*
X807463D01*
X769486Y139925D02*
X769523Y139963D01*
X807463D02*
X807500Y140000D01*
X870000Y125000D02*
Y185000D01*
Y209000D01*
X790000Y347500D02*
Y371750D01*
Y285250D02*
Y347500D01*
X442500Y164022D02*
Y220000D01*
X441645Y163167D02*
X442500Y164022D01*
X810729Y387500D02*
X866658Y331571D01*
X866658D01*
X730500Y387500D02*
X810729D01*
X870658Y324571D02*
Y327571D01*
X866658Y331571D02*
X870658Y327571D01*
X715000Y372000D02*
X730500Y387500D01*
X715000Y369000D02*
Y372000D01*
X790000Y371750D02*
X790250Y372000D01*
X790000Y285250D02*
X790250Y285000D01*
X786250Y376000D02*
X790250Y372000D01*
X786250Y376000D02*
X786250D01*
X517500Y230000D02*
Y246311D01*
Y164022D02*
Y230000D01*
X540000Y100000D02*
Y127374D01*
Y43477D02*
Y100000D01*
X495052Y99948D02*
Y122448D01*
X495000Y43477D02*
X495052Y43425D01*
X495000Y43477D02*
Y100000D01*
X480000Y25000D02*
X491052Y36052D01*
Y39425D01*
X495052Y43425D01*
X270000Y25000D02*
X345052D01*
X270000D02*
Y43374D01*
X195052Y43425D02*
X213477Y25000D01*
X270000D01*
X345052D02*
X420052D01*
X480000D01*
X345052D02*
Y43425D01*
X420052Y25000D02*
Y43425D01*
X698750Y26250D02*
Y43425D01*
X697500Y25000D02*
X698750D01*
X697500D02*
X698750Y26250D01*
Y25000D02*
X790000D01*
X588153D02*
X697500D01*
X825000Y60000D02*
Y122000D01*
Y125000D01*
X790000Y25000D02*
X825000Y60000D01*
X829000Y118000D02*
X829000D01*
X825000Y122000D02*
X829000Y118000D01*
X438591Y250221D02*
X442500Y246311D01*
X438591Y250221D02*
Y258410D01*
X415000Y282000D02*
X438591Y258410D01*
X415000Y285000D02*
Y369000D01*
Y282000D02*
Y285000D01*
X442500Y220000D02*
Y246311D01*
X490000Y347500D02*
Y369000D01*
Y285000D02*
Y347500D01*
X742500Y248500D02*
X746500Y252500D01*
Y251490D02*
Y252500D01*
X541581Y267500D02*
Y269733D01*
Y267500D02*
X595000D01*
X520000D02*
X541581D01*
X595000Y285000D02*
Y369000D01*
Y267500D02*
Y285000D01*
X295000Y383243D02*
X358757D01*
X370000Y372000D01*
X715000Y347500D02*
Y369000D01*
Y285000D02*
Y347500D01*
X367500Y220000D02*
Y246311D01*
Y164022D02*
Y220000D01*
X465000Y100000D02*
Y127374D01*
Y43477D02*
Y100000D01*
X340000Y347500D02*
Y369000D01*
Y285000D02*
Y347500D01*
X540000Y43477D02*
X540052Y43425D01*
X447698Y842302D02*
X478750Y811250D01*
X417032Y842302D02*
X447698D01*
X534000Y738500D02*
Y739257D01*
X484250Y756528D02*
Y815413D01*
X512500Y772500D02*
X520000Y780000D01*
X478750Y754250D02*
Y811250D01*
X530000Y743257D02*
X534000Y739257D01*
X165000Y43477D02*
X165052Y43425D01*
X165000Y127374D02*
X165052Y127425D01*
X165000Y43477D02*
Y127374D01*
X366645Y163167D02*
X367500Y164022D01*
X366645Y247167D02*
X367500Y246311D01*
X397500Y161022D02*
Y246311D01*
X396645Y247167D02*
X397500Y246311D01*
X387645Y151167D02*
X397500Y161022D01*
X516645Y163167D02*
X517500Y164022D01*
X516645Y247167D02*
X517500Y246311D01*
X591645Y247167D02*
X592500Y246311D01*
Y164022D02*
Y246311D01*
X591645Y163167D02*
X592500Y164022D01*
X667500Y164022D02*
Y246311D01*
X666645Y247167D02*
X667500Y246311D01*
X666645Y163167D02*
X667500Y164022D01*
X345052Y43425D02*
Y127425D01*
X270000Y43374D02*
X270052Y43425D01*
X670000Y267500D02*
X730000D01*
X595000D02*
X670000D01*
Y270000D01*
X670000Y270000D02*
X670000Y270000D01*
X670000Y270000D02*
Y285000D01*
X459500Y267500D02*
X520000D01*
X520000Y267500D02*
Y285000D01*
Y267500D02*
X520000Y267500D01*
X445000Y282000D02*
Y369000D01*
Y282000D02*
X459500Y267500D01*
X741250Y278000D02*
X745250Y282000D01*
X730000Y267500D02*
X740500Y278000D01*
X741250D01*
X745250Y282000D02*
Y369000D01*
X670000Y285000D02*
Y369000D01*
X520000Y285000D02*
Y369000D01*
X715000Y285000D02*
X715000Y285000D01*
X715000Y369000D02*
X715000Y369000D01*
X640000Y285000D02*
Y369000D01*
X565000Y285000D02*
Y369000D01*
X490000Y285000D02*
X490000Y285000D01*
X490000Y369000D02*
X490000Y369000D01*
X340000D02*
X340000Y369000D01*
X340000Y285000D02*
X340000Y285000D01*
X265000Y285000D02*
Y369000D01*
X265000Y285000D02*
X265000Y285000D01*
X265000Y369000D02*
X265000Y369000D01*
X190000Y285000D02*
X190000Y285000D01*
X190000Y369000D02*
X190000Y369000D01*
Y285000D02*
Y369000D01*
X220000Y383243D02*
X295000D01*
X295000Y369000D02*
Y383243D01*
X295000Y383243D01*
X145000D02*
X220000D01*
X220000Y383243D02*
X220000Y383243D01*
X220000Y369000D02*
Y383243D01*
X80743Y383243D02*
X145000D01*
X145000Y369000D02*
Y383243D01*
X145000Y383243D01*
X115000Y285000D02*
Y369000D01*
X115000Y369000D02*
X115000Y369000D01*
X115000Y285000D02*
X115000Y285000D01*
X74000Y376500D02*
X80743Y383243D01*
X74000Y373000D02*
Y376500D01*
X70000Y369000D02*
X74000Y373000D01*
X295000Y285000D02*
Y369000D01*
X220000Y285000D02*
Y369000D01*
X145000Y285000D02*
Y369000D01*
X70000Y285000D02*
Y369000D01*
X465000Y127374D02*
X465052Y127425D01*
X465000Y43477D02*
X465052Y43425D01*
X540000Y127374D02*
X540052Y127425D01*
X120052Y130425D02*
X135552Y145925D01*
X105825Y150925D02*
X169500D01*
X170000Y151425D01*
X100750Y156000D02*
X105825Y150925D01*
X322242Y151167D02*
X387645D01*
X169742D02*
X247758D01*
X96750Y160000D02*
Y163000D01*
Y247000D01*
X247758Y151167D02*
X322242D01*
X322500Y151425D01*
X170000D02*
Y161522D01*
X247500Y151425D02*
X247758Y151167D01*
X247500Y151425D02*
Y162311D01*
X322500Y151425D02*
Y162311D01*
X96750Y160000D02*
X100750Y156000D01*
X100750D01*
X420052Y43425D02*
Y127425D01*
X825000Y125000D02*
Y209000D01*
X321645Y163167D02*
Y247167D01*
X246645Y163167D02*
Y247167D01*
X171645Y163167D02*
Y247167D01*
X321645Y163167D02*
X322500Y162311D01*
X246645Y163167D02*
X247500Y162311D01*
X170000Y161522D02*
X171645Y163167D01*
X825000Y209000D02*
X825658Y209658D01*
X195052Y43425D02*
Y127425D01*
X270052Y43425D02*
Y127425D01*
X569728Y43425D02*
Y127425D01*
X569728Y43425D02*
X588153Y25000D01*
X744750Y467750D02*
X747000Y470000D01*
X143965Y473213D02*
X175747D01*
X143715Y472963D02*
X143965Y473213D01*
X304800Y863600D02*
X305000Y863400D01*
X243397Y120195D02*
X244282D01*
D16*
X417032Y922302D02*
X484052D01*
X500000Y938250D02*
Y972500D01*
X484052Y922302D02*
X500000Y938250D01*
D19*
X870658Y240571D02*
D03*
Y324571D02*
D03*
X825658Y324571D02*
D03*
Y240571D02*
D03*
X744092Y43425D02*
D03*
Y127425D02*
D03*
X699092Y127425D02*
D03*
Y43425D02*
D03*
X57500Y882500D02*
D03*
Y798500D02*
D03*
X102500Y798500D02*
D03*
Y882500D02*
D03*
X390052Y43425D02*
D03*
Y127425D02*
D03*
X345052Y127425D02*
D03*
Y43425D02*
D03*
X640000Y285000D02*
D03*
Y369000D02*
D03*
X595000Y369000D02*
D03*
Y285000D02*
D03*
X115000Y285000D02*
D03*
Y369000D02*
D03*
X70000Y369000D02*
D03*
Y285000D02*
D03*
X145000D02*
D03*
Y369000D02*
D03*
X190000Y369000D02*
D03*
Y285000D02*
D03*
X265000D02*
D03*
Y369000D02*
D03*
X220000Y369000D02*
D03*
Y285000D02*
D03*
X295000Y285000D02*
D03*
Y369000D02*
D03*
X340000Y369000D02*
D03*
Y285000D02*
D03*
X415000Y285000D02*
D03*
Y369000D02*
D03*
X370000Y369000D02*
D03*
Y285000D02*
D03*
X445000D02*
D03*
Y369000D02*
D03*
X490000Y369000D02*
D03*
Y285000D02*
D03*
X565000D02*
D03*
Y369000D02*
D03*
X520000Y369000D02*
D03*
Y285000D02*
D03*
X715000Y285000D02*
D03*
Y369000D02*
D03*
X670000Y369000D02*
D03*
Y285000D02*
D03*
X745250Y285000D02*
D03*
Y369000D02*
D03*
X790250Y369000D02*
D03*
Y285000D02*
D03*
X216645Y163167D02*
D03*
Y247167D02*
D03*
X171645Y247167D02*
D03*
Y163167D02*
D03*
X246645D02*
D03*
Y247167D02*
D03*
X291645Y247167D02*
D03*
Y163167D02*
D03*
X366645D02*
D03*
Y247167D02*
D03*
X321645Y247167D02*
D03*
Y163167D02*
D03*
X396645D02*
D03*
Y247167D02*
D03*
X441645Y247167D02*
D03*
Y163167D02*
D03*
X516645D02*
D03*
Y247167D02*
D03*
X471645Y247167D02*
D03*
Y163167D02*
D03*
X546645D02*
D03*
Y247167D02*
D03*
X591645Y247167D02*
D03*
Y163167D02*
D03*
X666645D02*
D03*
Y247167D02*
D03*
X621645Y247167D02*
D03*
Y163167D02*
D03*
X697500Y162500D02*
D03*
Y246500D02*
D03*
X742500Y246500D02*
D03*
Y162500D02*
D03*
X165052Y43425D02*
D03*
Y127425D02*
D03*
X120052Y127425D02*
D03*
Y43425D02*
D03*
X195052D02*
D03*
Y127425D02*
D03*
X240052Y127425D02*
D03*
Y43425D02*
D03*
X315052Y43425D02*
D03*
Y127425D02*
D03*
X270052Y127425D02*
D03*
Y43425D02*
D03*
X465052Y43425D02*
D03*
Y127425D02*
D03*
X420052Y127425D02*
D03*
Y43425D02*
D03*
X495052D02*
D03*
Y127425D02*
D03*
X540052Y127425D02*
D03*
Y43425D02*
D03*
X614728Y43425D02*
D03*
Y127425D02*
D03*
X569728Y127425D02*
D03*
Y43425D02*
D03*
X950000Y191500D02*
D03*
Y275500D02*
D03*
X905000Y275500D02*
D03*
Y191500D02*
D03*
X870000Y125000D02*
D03*
Y209000D02*
D03*
X825000Y209000D02*
D03*
Y125000D02*
D03*
X141750Y163000D02*
D03*
Y247000D02*
D03*
X96750Y247000D02*
D03*
Y163000D02*
D03*
D20*
X568425Y638925D02*
D03*
X553575Y624075D02*
D03*
X508576Y649575D02*
D03*
X487825Y670575D02*
D03*
X523425Y664424D02*
D03*
X502675Y685425D02*
D03*
D21*
X656500Y546500D02*
D03*
Y567500D02*
D03*
X674000Y546750D02*
D03*
X674000Y567750D02*
D03*
X249750Y529250D02*
D03*
X67185Y452799D02*
D03*
X249750Y508250D02*
D03*
X67185Y473799D02*
D03*
D22*
X659000Y512750D02*
D03*
X638000Y512750D02*
D03*
X659000Y529000D02*
D03*
X638000D02*
D03*
X744500Y467000D02*
D03*
X744750Y500750D02*
D03*
X723750Y500750D02*
D03*
X723500Y467000D02*
D03*
X723750Y518750D02*
D03*
X744750D02*
D03*
D23*
X926750Y353250D02*
D03*
X904750D02*
D03*
X745250Y550000D02*
D03*
X723250D02*
D03*
X723250Y565500D02*
D03*
X745250D02*
D03*
X723250Y484500D02*
D03*
X745250D02*
D03*
X723250Y534500D02*
D03*
X745250D02*
D03*
D24*
X582032Y902302D02*
D03*
Y882302D02*
D03*
Y862302D02*
D03*
Y842302D02*
D03*
Y822302D02*
D03*
Y802302D02*
D03*
X417032Y782302D02*
D03*
Y802302D02*
D03*
Y822302D02*
D03*
Y842302D02*
D03*
Y862302D02*
D03*
Y882302D02*
D03*
Y922302D02*
D03*
Y902302D02*
D03*
X582032Y782302D02*
D03*
Y922302D02*
D03*
D25*
X473999Y972500D02*
D03*
X526000D02*
D03*
X500000D02*
D03*
D26*
X143715Y440963D02*
D03*
Y472963D02*
D03*
X94715Y440963D02*
D03*
Y472963D02*
D03*
D27*
X476500Y610750D02*
D03*
X492763Y627014D02*
D03*
X518926Y600851D02*
D03*
X502663Y584587D02*
D03*
D50*
X47500Y719500D02*
X61250Y733250D01*
X92250D01*
X47500Y444500D02*
Y719500D01*
X96374Y395626D02*
X813916D01*
X47500Y444500D02*
X96374Y395626D01*
X399500Y772750D02*
Y869341D01*
Y772750D02*
X461432Y710818D01*
X475156D01*
X476108Y711392D02*
X502075Y685425D01*
X475730Y711392D02*
X476108D01*
X475156Y710818D02*
X475730Y711392D01*
X941468Y326407D02*
X971500Y356438D01*
X62900Y601900D02*
X87900D01*
X502675Y685425D02*
X523550Y664550D01*
X502075Y685425D02*
X502675D01*
Y685425D02*
Y685425D01*
X147062Y620032D02*
Y620844D01*
X138003Y608503D02*
Y610973D01*
X147062Y620032D01*
X130500Y601000D02*
X138003Y608503D01*
X88799Y601000D02*
X130500D01*
X813916Y395626D02*
X846271Y363271D01*
X399500Y869341D02*
X407961Y877802D01*
X87900Y601900D02*
X88799Y601000D01*
X381000Y863600D02*
Y939800D01*
X381000Y939800D02*
X381000Y939800D01*
X927750Y623250D02*
X949750Y601250D01*
X777500Y688500D02*
X842750Y623250D01*
X927750D01*
X939197Y557842D02*
X949750Y568395D01*
Y601250D01*
X861874Y669700D02*
X879174Y687000D01*
X946000D02*
X971500Y661500D01*
X879174Y687000D02*
X946000D01*
X407961Y877802D02*
X412532D01*
X417032Y882302D01*
X971500Y356438D02*
Y661500D01*
X735000Y858250D02*
X777500Y815751D01*
Y688500D02*
Y815751D01*
X609600Y863600D02*
Y889000D01*
Y914400D02*
Y939800D01*
Y889000D02*
Y914400D01*
X381000Y863600D02*
X381000Y863600D01*
X835000Y785000D02*
X838250D01*
X67185Y473799D02*
X67603Y473381D01*
X94297D01*
X94715Y472962D01*
X221000Y508884D02*
X221442Y508442D01*
X97215Y472962D02*
X133136Y508884D01*
X221000D01*
X94715Y472962D02*
X97215D01*
X221442Y508442D02*
X245058D01*
X245500Y508000D01*
D51*
X902750Y354750D02*
X904500Y353000D01*
X195397Y654000D02*
X196397Y655000D01*
X89000Y654000D02*
X195397D01*
X196397Y655000D02*
X197750D01*
X186000Y661000D02*
X187500Y662500D01*
X130750Y661000D02*
X186000D01*
X240000Y96272D02*
X240026Y96298D01*
X240000D02*
X240026Y96272D01*
X315026D02*
X315039Y96285D01*
X315026D02*
X315039Y96272D01*
X614310D02*
X614519Y96481D01*
X614310D02*
X614519Y96272D01*
X95500Y695300D02*
X96450D01*
X130750Y661000D01*
X87500Y703300D02*
X95500Y695300D01*
X576885Y139925D02*
X576885Y139925D01*
X769486D01*
X683925Y145925D02*
X694000Y156000D01*
X694000D02*
X697500Y159500D01*
X694000Y156000D02*
X694000D01*
X946250Y354250D02*
X946500Y354500D01*
X926750Y353250D02*
X927750Y354250D01*
X946250D01*
X891000Y354750D02*
X902750D01*
X546965Y216604D02*
X547286Y216283D01*
X546965D02*
X547286Y216604D01*
X546965Y163488D02*
Y219465D01*
X546645Y163167D02*
X546965Y163488D01*
Y220107D02*
Y246846D01*
X546645Y247167D02*
X546965Y246846D01*
X697500Y159500D02*
Y246500D01*
X904500Y353000D02*
X904750Y353250D01*
X87500Y652500D02*
X89000Y654000D01*
X390052Y100000D02*
Y130425D01*
Y43425D02*
Y100000D01*
X471645Y163167D02*
X471649Y163172D01*
Y219536D01*
Y216283D02*
X471654Y216288D01*
Y219541D02*
Y247157D01*
X471645Y247167D02*
X471654Y247157D01*
X614519Y43634D02*
X614728Y43425D01*
X614519Y99750D02*
Y127216D01*
X614728Y127425D01*
X614519Y43634D02*
Y99333D01*
X315039Y43438D02*
Y99961D01*
Y43438D02*
X315052Y43425D01*
X315039Y127412D02*
X315052Y127425D01*
X315039Y99987D02*
Y127412D01*
X240026Y43451D02*
Y99974D01*
Y43451D02*
X240052Y43425D01*
X240026Y100026D02*
Y127399D01*
X240052Y127425D01*
X141891Y216424D02*
X142031Y216283D01*
X141891Y220422D02*
Y246859D01*
X141750Y247000D02*
X141891Y246859D01*
X141750Y163000D02*
X141891Y163141D01*
Y216283D02*
X142031Y216424D01*
X141891Y163141D02*
Y220141D01*
X217072Y216711D02*
X217500Y216283D01*
X217072Y220428D02*
Y246739D01*
X216645Y247167D02*
X217072Y246739D01*
Y163595D02*
Y219572D01*
X216645Y163167D02*
X217072Y163595D01*
Y216283D02*
X217500Y216711D01*
X291965Y220107D02*
Y246846D01*
X291645Y247167D02*
X291965Y246846D01*
Y163488D02*
Y219465D01*
X291645Y163167D02*
X291965Y163488D01*
Y216604D02*
X292286Y216283D01*
X291965D02*
X292286Y216604D01*
X621645Y163167D02*
Y247167D01*
X120052Y127425D02*
Y130425D01*
Y43425D02*
Y127425D01*
X471645Y163167D02*
X472500Y162311D01*
D52*
X910000Y785250D02*
X910250Y785000D01*
X961750D02*
X963375Y786626D01*
X910250Y785000D02*
X961750D01*
X912750Y857500D02*
X962500D01*
X963375Y856625D01*
X910000Y860250D02*
X912750Y857500D01*
X961750Y820000D02*
X963375Y821625D01*
X873250Y820000D02*
X961750D01*
X838250Y785000D02*
X873250Y820000D01*
D53*
X87900Y601900D02*
D03*
Y626900D02*
D03*
X87500Y652500D02*
D03*
Y703300D02*
D03*
X62900Y601900D02*
D03*
Y626900D02*
D03*
X62500Y652500D02*
D03*
Y703300D02*
D03*
X87500Y677900D02*
D03*
X62500D02*
D03*
D54*
X332750Y573500D02*
D03*
X939197Y532442D02*
D03*
Y557842D02*
D03*
Y456750D02*
D03*
Y431350D02*
D03*
D55*
X862474Y644700D02*
D03*
X882474D02*
D03*
X861874Y669700D02*
D03*
X882474D02*
D03*
D56*
X909575Y597000D02*
D03*
X910574Y718000D02*
D03*
D57*
X221000Y635883D02*
D03*
Y661283D02*
D03*
Y508884D02*
D03*
Y534283D02*
D03*
Y558750D02*
D03*
Y585084D02*
D03*
Y610484D02*
D03*
Y483484D02*
D03*
X381000Y863600D02*
D03*
X330200D02*
D03*
X304800D02*
D03*
X279400D02*
D03*
X254000D02*
D03*
X228600D02*
D03*
X203200D02*
D03*
X355600D02*
D03*
D58*
X826700Y500946D02*
D03*
Y475546D02*
D03*
Y526346D02*
D03*
X801300Y539046D02*
D03*
Y513646D02*
D03*
Y488246D02*
D03*
Y462846D02*
D03*
D59*
X609600Y939800D02*
D03*
Y914400D02*
D03*
Y863600D02*
D03*
Y889000D02*
D03*
X381000Y914400D02*
D03*
Y939800D02*
D03*
Y889000D02*
D03*
X279400D02*
D03*
X254000D02*
D03*
X228600D02*
D03*
X203200D02*
D03*
X304800D02*
D03*
X330200D02*
D03*
X355600D02*
D03*
X304800Y914400D02*
D03*
X330200D02*
D03*
X355600D02*
D03*
X304800Y939800D02*
D03*
X330200D02*
D03*
X355600D02*
D03*
X304800Y965200D02*
D03*
X330200D02*
D03*
X355600D02*
D03*
X278013Y966200D02*
D03*
X252614D02*
D03*
X227213D02*
D03*
X201814D02*
D03*
X278013Y940800D02*
D03*
X227213D02*
D03*
X201814D02*
D03*
X177800Y965200D02*
D03*
X152400D02*
D03*
X127000D02*
D03*
X101600D02*
D03*
X177800Y939800D02*
D03*
X152400D02*
D03*
X127000D02*
D03*
X125613Y915400D02*
D03*
X151013D02*
D03*
X176413D02*
D03*
X254000Y939800D02*
D03*
X279400Y914400D02*
D03*
X254000D02*
D03*
X228600D02*
D03*
X203200D02*
D03*
X787400D02*
D03*
X762000D02*
D03*
X736600D02*
D03*
X711200D02*
D03*
X736600Y939800D02*
D03*
X814186Y915400D02*
D03*
X839586D02*
D03*
X864986D02*
D03*
X863600Y939800D02*
D03*
X838200D02*
D03*
X812800D02*
D03*
X889000Y965200D02*
D03*
X863600D02*
D03*
X838200D02*
D03*
X812800D02*
D03*
X788786Y940800D02*
D03*
X763387D02*
D03*
X712587D02*
D03*
X788786Y966200D02*
D03*
X763387D02*
D03*
X737987D02*
D03*
X712587D02*
D03*
X635000Y965200D02*
D03*
X660400D02*
D03*
X685800D02*
D03*
X635000Y939800D02*
D03*
X660400D02*
D03*
X685800D02*
D03*
X635000Y914400D02*
D03*
X660400D02*
D03*
X685800D02*
D03*
X635000Y889000D02*
D03*
X660400D02*
D03*
X685800D02*
D03*
Y863600D02*
D03*
X660400D02*
D03*
X635000D02*
D03*
D60*
X859695Y573346D02*
D03*
Y415846D02*
D03*
D61*
X826700Y450146D02*
D03*
D62*
X835000Y785000D02*
D03*
X735000Y785250D02*
D03*
X910000D02*
D03*
Y860250D02*
D03*
X735000D02*
D03*
X963375Y786626D02*
D03*
Y821625D02*
D03*
Y856625D02*
D03*
D63*
X333500Y522500D02*
D03*
X332500Y592500D02*
D03*
D64*
X229041Y423126D02*
D03*
Y723126D02*
D03*
X739041D02*
D03*
Y423126D02*
D03*
D65*
X75000Y75000D02*
D03*
X925000D02*
D03*
Y925000D02*
D03*
X75000D02*
D03*
D66*
X92750Y548750D02*
D03*
X475730Y711392D02*
D03*
X661249Y499250D02*
D03*
X786403Y464413D02*
D03*
X846271Y363271D02*
D03*
X511741Y631805D02*
D03*
X580750Y676750D02*
D03*
X580015Y648515D02*
D03*
X630780Y640403D02*
D03*
X618952Y640515D02*
D03*
X643250Y639500D02*
D03*
X457453Y618714D02*
D03*
X615000Y602000D02*
D03*
X57500Y822279D02*
D03*
X388064Y683814D02*
D03*
X280750Y727750D02*
D03*
X385250Y664000D02*
D03*
X410750Y657554D02*
D03*
X392250Y645250D02*
D03*
X388457Y695250D02*
D03*
X142721Y781924D02*
D03*
X143125Y769494D02*
D03*
X147062Y620844D02*
D03*
X197750Y655000D02*
D03*
X182500Y685250D02*
D03*
X187500Y662500D02*
D03*
X92250Y732000D02*
D03*
X734539Y558041D02*
D03*
X745000Y98772D02*
D03*
X700000D02*
D03*
X442669D02*
D03*
X465000D02*
D03*
X540000D02*
D03*
X390000D02*
D03*
X165000D02*
D03*
X240000D02*
D03*
X495000D02*
D03*
X517500D02*
D03*
X315026D02*
D03*
X614310D02*
D03*
X361750D02*
D03*
X764500D02*
D03*
X651250D02*
D03*
X568028Y218783D02*
D03*
X713778D02*
D03*
X766528Y346783D02*
D03*
X615778D02*
D03*
X465278D02*
D03*
X343278Y218783D02*
D03*
X182750D02*
D03*
X204250Y98772D02*
D03*
X510451Y423250D02*
D03*
X640000Y552500D02*
D03*
X674000Y530000D02*
D03*
X680750Y513750D02*
D03*
X698000Y504000D02*
D03*
X832256Y613056D02*
D03*
X760000Y613000D02*
D03*
X703000Y614750D02*
D03*
X531064Y539179D02*
D03*
X498500Y543250D02*
D03*
X509750Y445250D02*
D03*
X940314Y656429D02*
D03*
X617000Y413750D02*
D03*
X704500Y414250D02*
D03*
X397314Y435679D02*
D03*
X398084Y708250D02*
D03*
X180945Y439655D02*
D03*
X348195Y435905D02*
D03*
X384091Y564581D02*
D03*
X567786Y725536D02*
D03*
X542000Y725750D02*
D03*
X581876Y592188D02*
D03*
X593156Y587782D02*
D03*
X605115Y582527D02*
D03*
X605161Y559750D02*
D03*
X593169D02*
D03*
X581750D02*
D03*
X548000Y435000D02*
D03*
X540000Y425750D02*
D03*
X555750Y443250D02*
D03*
X565100Y453000D02*
D03*
X592000Y479500D02*
D03*
X430000Y451250D02*
D03*
X450500Y567250D02*
D03*
X420750Y462500D02*
D03*
X627500Y688250D02*
D03*
X71653Y119204D02*
D03*
X870903Y54204D02*
D03*
X931654Y133954D02*
D03*
X482750Y655500D02*
D03*
X413250Y473500D02*
D03*
X475787Y551337D02*
D03*
X255750Y678500D02*
D03*
X265750Y686250D02*
D03*
X502800Y664406D02*
D03*
X491750Y600000D02*
D03*
X541375Y555000D02*
D03*
X410750Y676250D02*
D03*
X608500Y612931D02*
D03*
X689250Y597500D02*
D03*
X70500Y247500D02*
D03*
X259750Y628250D02*
D03*
X518926Y600851D02*
D03*
X477250Y610000D02*
D03*
X946500Y354500D02*
D03*
X891000Y354750D02*
D03*
X941875Y326000D02*
D03*
X742500Y218783D02*
D03*
X654750Y629000D02*
D03*
X683995Y649925D02*
D03*
X540750Y613999D02*
D03*
X920942Y543942D02*
D03*
X891000Y496500D02*
D03*
X784738Y539051D02*
D03*
X778678Y528658D02*
D03*
X757999Y501999D02*
D03*
Y517999D02*
D03*
X937000Y496000D02*
D03*
X370000Y346783D02*
D03*
X769486Y139925D02*
D03*
X807500Y140000D02*
D03*
X887500D02*
D03*
X471654Y218783D02*
D03*
X442500D02*
D03*
X790000Y346783D02*
D03*
X517500Y218783D02*
D03*
X541581Y269733D02*
D03*
X870000Y185000D02*
D03*
X542500Y772500D02*
D03*
X555000Y725000D02*
D03*
X534000Y738500D02*
D03*
X512500Y772500D02*
D03*
X142031Y218783D02*
D03*
X217500D02*
D03*
X292286D02*
D03*
X367500D02*
D03*
X397500D02*
D03*
X592500D02*
D03*
X667500D02*
D03*
X715000Y346783D02*
D03*
X640000D02*
D03*
X565000D02*
D03*
X490000D02*
D03*
X340000D02*
D03*
X265000D02*
D03*
X190000D02*
D03*
X115000D02*
D03*
X801270Y721270D02*
D03*
X684250Y721500D02*
D03*
X931270Y391270D02*
D03*
X921000Y338500D02*
D03*
X662500Y413500D02*
D03*
X499576Y908131D02*
D03*
X506000Y807250D02*
D03*
X355750Y806000D02*
D03*
X182500Y534750D02*
D03*
X317500Y346783D02*
D03*
X120500Y467000D02*
D03*
X607535Y724236D02*
D03*
X593000Y725000D02*
D03*
M02*
